<svg xmlns="http://www.w3.org/2000/svg" viewBox="0 0 154 60">
  <path
    d="M142.8 13.805c.716-.114 1.387-.48 2.114-.594 3.395-.543 7.477.73 8.703 4.234.574 1.645.32 3.86.313 5.59-.016 4.918-.02 9.844-.157 14.746-.039 1.364.313 2.875-1.3 3.422-.977.332-1.641.078-2.243-.738-.628-.86-.44-2.574-.437-3.649.023-4.82.137-9.703.184-14.504.011-1.37.316-3.023-.52-4.171-1.527-2.102-5.043-1.29-6.582.398.078 3.055.066 6.133.102 9.2.039 3.28.156 6.64.12 9.929-.011 1.2.25 2.766-1.128 3.316-1.055.426-2.485-.468-2.582-1.601-.14-1.645-.032-3.524-.055-5.188-.14-9.754-.309-19.414-.363-29.14-.008-.836-.117-1.703 0-2.555.097-.695.5-1.066 1.133-1.305.746-.285 1.722-.086 2.175.606.555.844.446 2.883.465 3.922.04 2.695.02 5.39.059 8.082ZM95.762 12.89c.566-.05 1.12.07 1.683.098.207.012.47-.05.72-.035.605.035 1.378.094 1.76.613.91 1.227.7 2.98-.862 3.516-1.04.36-2.126-.074-3.18.074.015.453-.043.903-.028 1.352.184 5.637.2 11.363.45 16.976.007.16-.16.457.066.57.297-.765.563-1.663 1.402-1.98 1.239-.465 2.032.028 2.543 1.164.352.782.235 1.336-.058 2.117-.153.407-.504 1.024-.735 1.403-1.109 1.836-3.585 3.867-5.558 1.87-.278-.284-.793-.921-1.059-1.253-.836-1.043-.578-2.234-.61-3.477-.265-10.332-.53-20.714-.667-31.03-.02-1.313-.156-1.688-.05-2.481.179-1.313 1.925-2.192 2.995-1.325 1.317 1.067.957 2.325 1.004 3.81.04 1.28.098 2.562.125 3.835.031 1.395.031 2.79.059 4.18ZM132.074 13.82c1.774-.226 3.5 1.348 4.297 2.797.223.403.629 1.18.781 1.598.301.832.82 2.2.641 3.039-.445 2.055-3.3 1.812-3.906.047-.305-.887-.45-1.79-.856-2.68a2.865 2.865 0 0 0-.484-.73c-.379.004-1.129 2.734-1.219 3.168-.785 3.695-.676 8.394.121 12.074.281 1.3.707 2.941 1.422 4.062.027.043.063.172.133.114.195-.344.371-.704.516-1.07.359-.907.296-1.579 1.195-2.16.887-.575 1.594-.524 2.422.12.758.594.847 1.09.61 2.004-.696 2.7-2.856 6.402-6.145 4.762-3.957-1.973-4.77-9.8-4.805-13.715-.031-3.46.394-10.113 3.254-12.473.379-.312 1.554-.894 2.027-.957ZM42.031 15.57c.094.11.426-.402.485-.457 1.867-1.75 3.984-1.968 5.933-.21.867.78 1.942 2.82 1.86 3.988-.051.707-.38 1.582-1.11 1.816-.719.234-1.281.172-1.914-.25-.887-.582-.637-2.004-1.57-2.617-.14.066-.278.16-.399.258-1.836 1.527-3.398 6.386-3.504 8.73-.164 3.656-.156 7.363-.269 11.02-.035 1.136.168 2.25-1.156 2.746-1.157.43-2.09.011-2.625-1.086-.38-.778-.137-2.176-.125-3.059.093-6.672.27-13.375.379-20.054.02-1.176.261-2.438 1.523-2.864 1.113-.379 2.563.867 2.496 2.04ZM53.215 13.395c1.297-.188 2.41.878 2.512 2.144.132 1.684-.028 3.649-.008 5.371.07 5.617.144 11.203.183 16.824.008.832.203 1.446-.363 2.192-.777 1.027-1.66 1.191-2.758.508-.93-.579-.879-1.352-.89-2.336-.082-5.621-.07-11.328-.118-16.946-.015-1.84-.21-3.976-.07-5.793.063-.8.656-1.84 1.508-1.964ZM120.633 33.695c1.746-.222 3.058.395 3.695 2.059 1.219 3.156-3.742 5.539-5.797 2.453-1.289-1.937-.164-4.227 2.102-4.512ZM53.21 1.078c1.227-.191 2.337.5 2.567 1.73-.144 1.66.621 4.212-1.27 5.114-.956.46-2.476-.277-2.671-1.348-.215-1.176.023-2.703-.027-3.918.218-.683.625-1.457 1.402-1.578Zm0 0"
    style="stroke:none;fill-rule:nonzero;fill:#fff;fill-opacity:1"/>
  <path
    d="M12.035 38.797a6.97 6.97 0 0 1 .668-.61c-.027.282-.082.551-.133.813-.14.695-.27 1.336.125 2.031.54.957 2.328 1.348 3.078.504.532-.601.575-.976.649-1.566.015-.14.035-.293.058-.465.82-5.3 1.016-10.531.301-15.856-.504-3.746-1.605-8.91-5.582-10.378-3.816-1.407-6.855 2.617-8.426 5.55-.015.032-.035.07-.058.11v.004c-.195.363-.582 1.074-.633 1.328-.305 1.468 1.078 2.468 2.43 2.312.937-.105 1.32-.953 1.676-1.73.09-.203.18-.403.277-.578.637-1.18 1.805-3.078 3.137-3.504.363-.117.476.011.675.238l.114.125c.511.54.968 1.414 1.246 2.105.531 1.317.797 2.727 1.062 4.118l.004.027c-.156-.027-.289-.082-.43-.137a3.962 3.962 0 0 0-.324-.117C6.254 21.555 1.023 27.981.176 33.043c-.625 3.734.332 7.254 4.265 8.395 2.536.73 5.168-.551 7.075-2.153a8.58 8.58 0 0 0 .52-.488Zm-7.957-2.848c.55 3.227 3.39 1.762 5.012.328v-.004c1.61-1.421 2.805-3.68 3.113-5.812.031-.227.035-.461.04-.695.007-.485.019-.97.269-1.364-.352-.234-.543-.554-.723-.863-.285-.48-.547-.922-1.36-.926-3.8-.027-6.929 5.953-6.35 9.336ZM30.41 14.656h.09c2.117-1.836 5.758-.715 6.45 2.016.265 1.035-.173 1.984-1.145 2.45-.844.401-2.075-.118-2.563-.868a.95.95 0 0 1-.101-.238c-.055-.184-.094-.297-.391-.067-.59.461-.457 1.188-.344 1.824.028.165.055.32.07.465.547 5.29-.46 12.586-3.214 17.2-1.297 2.175-4.145 4.73-6.758 3.097-.035-.023-.086-.066-.14-.11-.13-.109-.286-.237-.352-.195-.09.06-.375.645-.438.786-.504 1.14-.8 2.578-.59 3.816.207.031.364-.09.52-.215.074-.058.144-.113.223-.156 2.527-1.387 5.359-2.313 8.285-2 6.531.695 8.27 7.195 4.558 12.125-3.222 4.277-9.793 6.836-14.894 4.566-4.024-1.789-4.711-6.695-2.582-10.25.05-.086.187-.265.332-.46.215-.286.445-.594.449-.653.004-.055-.102-.258-.21-.465-.083-.156-.169-.316-.2-.402-.926-2.66.078-7.117 1.625-9.434.047-.062.164-.207.293-.36.18-.214.375-.444.383-.491.004-.059-.055-.211-.11-.364-.039-.109-.082-.214-.097-.285-1.145-5.039-.282-11.715 1.539-16.543.98-2.593 3.297-6.75 6.543-6.43.925.094 2.293.844 2.77 1.65Zm-3.05 2.383c.015.012.183.277.203.32 1.66 3.282 1.093 9.348.21 12.856-.464 1.87-1.414 4.648-2.632 6.14-.145.18-.54.637-.782.618-.246-.02-.644-1.043-.722-1.297-1.14-3.86-.453-9.957.843-13.762.45-1.324 1.485-3.934 2.614-4.758l.015-.011c.067-.047.196-.141.25-.106Zm4.023 35.02c.898-1.153 1.937-3.082.832-4.403-1.75-2.09-6.008-.972-8.055.153-2.422 1.34-7.055 5.898-2.613 7.765 3.117 1.313 7.875-1.004 9.836-3.515ZM67.926 39.41l.879-.855c-.149.98.543 1.945 1.398 2.351 1.145.54 2.68-.59 2.684-1.832.004-.547-.016-1.11-.032-1.672-.011-.379-.027-.757-.03-1.136-.09-5.47-.208-10.946-.325-16.426v-.008c-.102-4.785-.207-9.566-.29-14.344-.007-.32.009-.676.024-1.054.067-1.532.149-3.372-1.136-4.114-.961-.554-1.801-.383-2.477.47-.621.78-.5 2.515-.41 3.823v.004c.023.344.043.664.05.926.024 1.2.04 2.39.055 3.582v.004c.016 1.387.036 2.77.067 4.156.004.211 0 .422-.004.637 0 .207-.004.41 0 .613h-.004c-.621-.41-1.148-.754-1.883-.941-4.844-1.246-7.347 4.351-8.234 8.148-1.055 4.54-.961 10.422 1.004 14.7 1.691 3.69 5 5.93 8.664 2.968Zm.64-14.805c.016-1.023.043-2.707-.078-2.921a1.189 1.189 0 0 0-.187-.184c-.156-.137-.367-.32-.48-.523-.184-.336-.321-.692-.458-1.04-.3-.789-.597-1.558-1.457-2.101-.441-.277-.687-.313-1.136-.059-.43.243-.946.973-1.223 1.395-2.461 3.8-3.004 12.27-.512 16.11.59.906 1.2 1.738 2.297.859 1.82-1.45 2.414-4.536 2.871-6.914.067-.348.129-.68.195-.989.02-.11.067-.215.11-.324.05-.121.101-.242.117-.363.059-.461.02-.953-.02-1.434-.02-.277-.043-.555-.046-.82 0-.129.004-.379.007-.692ZM81.598 40.547c1.254-.313 2.523-.988 3.515-1.809-.117.79.512 1.93 1.325 2.059.683.105 1.742-.063 2.171-.66.47-.657.813-3.453.934-4.442l.008-.043c.504-4.101.683-8.617.117-12.726-.566-4.133-2.352-10.781-7.914-9.227-2.012.567-3.84 2.692-4.918 4.403-.027.046-.059.093-.086.14h-.004c-.785 1.242-1.805 2.848-.578 4.13.273.288.402.413.824.456 1.66.168 2.172-.828 2.746-1.945.176-.348.364-.711.59-1.051.383-.57 1.313-1.734 1.844-2.117.121-.086.726-.406.844-.41.57-.024 1.226 1.058 1.453 1.504.52 1.035.804 2.21 1.008 3.347-1.559-.613-3.317-.39-4.829.25-4.613 1.961-7.546 8.399-6.273 13.223.852 3.226 3.727 5.797 7.223 4.918Zm4.465-10.75-.043-2.695c-.426-.098-.688-.383-.95-.672-.265-.293-.53-.582-.965-.672-2.582-.54-4.804 2.644-5.53 4.75-.595 1.715-1.169 5.86 1.35 6.265 1.852.297 4.02-2.402 4.743-3.875.168-.34.289-.718.406-1.09.121-.37.239-.73.395-1.035.078-.156.183-.265.281-.367.156-.168.3-.316.313-.61ZM111.563 38.688c.167-.192.332-.383.507-.56v-.003c.032.191 0 .379-.027.566-.027.172-.055.34-.035.504.062.57 1 1.434 1.535 1.575.871.226 2.266-.426 2.457-1.36a4.36 4.36 0 0 1 .035-.172l.012-.054c.039-.196.058-.29.07-.383.008-.086.008-.176.008-.344 0-.348 0-1.043.082-2.8.172-3.825.234-7.634-.25-11.45-.383-2.977-1.242-7.484-3.523-9.582-2.61-2.402-5.426-1.516-7.543.977-.801.945-2.82 3.968-2.914 5.128-.079.98 1.18 1.965 2.09 1.915 1.265-.075 1.828-1.207 2.343-2.243.145-.293.285-.578.438-.828.422-.699 1.234-1.836 1.879-2.32.296-.219.632-.41.945-.102.07.075.422.61.488.727.195.34.356.726.496 1.09.586 1.508.89 3.12 1.168 4.71-1.082-.3-1.972-.398-3.066-.058-5.223 1.621-9.113 11.234-6.024 15.844 2.004 2.988 5.711 2.062 8.059.035.281-.242.527-.527.77-.813Zm-1.34-11.407c-.512.043-1.164.59-1.54.934-1.94 1.762-3.988 5.965-3.03 8.57.308.852.558.903 1.378.535.91-.406 1.305-.656 2.387-2.242 1.082-1.59 2.039-4.008 1.922-5.941-.04-.649-.23-1.926-1.117-1.856Zm0 0"
    style="stroke:none;fill-rule:evenodd;fill:#fff;fill-opacity:1"/>
</svg>
