<svg width="36" height="53" viewBox="0 0 36 53" fill="none" xmlns="http://www.w3.org/2000/svg">
<path d="M23.0686 8.89005L24.0923 9.18253C22.0376 11.6832 20.0561 14.5422 18.3597 17.3062C16.7364 19.9458 15.2521 22.6878 14.0748 25.5614C13.9798 25.6272 13.446 25.2616 13.3217 25.1885C12.1664 24.45 10.9526 23.4336 9.87042 22.5708C8.8833 21.7738 6.75551 19.2804 5.55634 21.0426C4.69352 22.3149 5.38816 25.3933 5.75376 26.8337C6.96024 31.5573 9.34396 37.7725 12.2834 41.6552C13.2778 42.9713 14.6817 44.6239 16.3708 43.2711C17.8113 42.1085 19.4053 37.7871 20.173 35.9591C23.0101 29.2467 25.6644 22.4611 28.8524 15.9023C29.2399 15.1126 30.0004 13.2919 30.461 12.685C30.5269 12.6046 30.5342 12.5387 30.6658 12.568C30.6658 12.6484 30.7097 12.7362 30.7755 12.7874C31.2069 13.153 33.9196 13.7672 33.9635 13.928L33.7076 37.7213L2.15625 49.713L2.22937 4.45166L22.1546 9.78943C22.6226 9.73093 23.054 9.4092 23.0686 8.91199V8.89005Z" fill="#476A80"/>
<path d="M24.0941 9.18235C25.9513 6.92294 29.7682 2.78435 32.4517 1.70948C33.8556 1.14645 35.1937 1.56324 34.9817 3.28887C34.2943 6.06744 32.5395 8.4804 31.333 11.0469C31.3769 11.2663 35.1864 12.1437 35.5593 12.6702L35.786 13.1747L35.7202 38.1087C35.7202 38.5913 35.3838 38.9715 34.989 39.2055L1.8217 51.7383C0.878448 51.8553 0.256927 51.2264 0.176495 50.3197C0.0595031 48.9743 0.161871 47.2414 0.176495 45.8521C0.264239 34.0651 0.293488 22.2562 0.403168 10.4693C0.425104 8.2976 0.205744 5.69453 0.403168 3.58867C0.4836 2.68198 1.18555 2.17745 2.07762 2.43337C8.54875 4.46611 15.4659 5.7384 21.8859 7.85157C22.1564 7.94062 23.0923 8.18061 23.0704 8.89719C23.0485 9.61376 22.6171 9.72344 22.1564 9.77463L2.23117 4.43686L2.15805 49.6982L33.7094 37.7065L33.9653 13.9132C33.9214 13.7524 31.2014 13.1382 30.7773 12.7726C30.3532 12.407 30.6749 12.6336 30.6676 12.5532C30.536 12.5239 30.5213 12.5898 30.4628 12.6702C30.0022 13.2771 29.2344 15.0978 28.8542 15.8875C25.6662 22.4463 23.0119 29.2319 20.1749 35.9443C19.4071 37.7723 17.8131 42.101 16.3726 43.2563C14.6835 44.6164 13.2796 42.9565 12.2852 41.6404C9.34576 37.7577 6.96204 31.5425 5.75556 26.8189C5.38996 25.3785 4.69532 22.3001 5.55814 21.0278C6.75731 19.2656 8.87779 21.7663 9.87222 22.556C10.9544 23.4188 12.1609 24.4352 13.3235 25.1737C13.4478 25.2542 13.9816 25.6124 14.0766 25.5466C15.2539 22.673 16.7382 19.931 18.3615 17.2914C20.0579 14.5347 22.0394 11.6684 24.0941 9.16773V9.18235ZM33.0147 3.55211C32.9489 3.4863 31.5743 4.42955 31.4134 4.54654C26.0098 8.52427 20.46 16.7503 17.4109 22.7169C16.9356 23.6528 15.7291 26.6873 15.093 27.1992C14.7859 27.4404 14.508 27.5428 14.1132 27.5428C13.1114 27.5282 10.991 25.8099 10.1355 25.1518C9.27995 24.4937 8.11734 23.4335 7.0571 22.6365C7.0571 25.203 7.9126 27.7329 8.73886 30.1313C9.99653 33.7873 11.6198 38.0575 14.1497 41.0262C14.391 41.3113 14.9175 42.0206 15.2831 41.8012C15.6487 41.5819 16.5408 39.6808 16.7674 39.1909C19.0049 34.46 20.8183 29.3196 22.9095 24.4937C24.8253 20.0699 26.8434 15.6754 29.0297 11.3833C30.1557 9.16042 31.4719 6.96682 32.5395 4.72934C32.7223 4.35643 32.8758 3.94696 33.0147 3.55942V3.55211Z" fill="#020202"/>
</svg>
