<svg width="281" height="259" viewBox="0 0 281 259" fill="none" xmlns="http://www.w3.org/2000/svg">
<path d="M277.971 6.00732C273.211 6.14886 268.535 6.3206 263.942 6.5249C262.287 6.59839 260.886 5.31577 260.812 3.66064C260.739 2.0056 262.021 0.604496 263.676 0.530758C268.343 0.323157 273.093 0.148493 277.928 0.00536692C277.928 0.00536692 281 -0.256352 281 2.87548C281 6.00732 277.971 6.00732 277.971 6.00732Z" fill="#CAD5E2"/>
<path d="M18.5967 211.367C20.2503 211.471 21.5063 212.896 21.4023 214.549C21.1141 219.132 20.8719 223.805 20.6709 228.567L34.6377 228.741L16.9473 258.524L0 228.312L14.6709 228.493C14.875 223.63 15.1195 218.857 15.4141 214.172C15.5182 212.519 16.9433 211.263 18.5967 211.367Z" fill="#CAD5E2"/>
<path d="M18.7773 178.904C18.9956 177.261 20.5041 176.106 22.1465 176.325C23.7888 176.543 24.9427 178.052 24.7246 179.694C23.9765 185.323 23.3263 191.115 22.7656 197.07C22.6103 198.719 21.1466 199.931 19.4971 199.776C17.8476 199.621 16.6367 198.157 16.792 196.507C17.3593 190.482 18.0184 184.615 18.7773 178.904Z" fill="#CAD5E2"/>
<path d="M25.209 143.847C25.5999 142.237 27.2221 141.248 28.832 141.639C30.442 142.03 31.4308 143.652 31.04 145.262C29.7023 150.771 28.5025 156.473 27.4316 162.373C27.1357 164.003 25.5736 165.084 23.9434 164.789C22.3134 164.492 21.2315 162.931 21.5273 161.301C22.6174 155.296 23.8415 149.479 25.209 143.847Z" fill="#CAD5E2"/>
<path d="M36.2041 109.868C36.8463 108.341 38.6046 107.623 40.1318 108.265C41.6591 108.907 42.3772 110.666 41.7354 112.193C39.5426 117.409 37.5429 122.852 35.7246 128.526C35.2189 130.104 33.5299 130.973 31.9521 130.467C30.3744 129.962 29.5053 128.273 30.0107 126.695C31.8789 120.865 33.9387 115.257 36.2041 109.868Z" fill="#CAD5E2"/>
<path d="M53.5361 78.4722C54.4992 77.1242 56.3726 76.8122 57.7207 77.7749C59.0689 78.738 59.3811 80.6123 58.418 81.9604C55.1062 86.5964 52.0506 91.4756 49.2354 96.6069C48.4384 98.0595 46.6147 98.5913 45.1621 97.7944C43.7095 96.9975 43.1777 95.1738 43.9746 93.7212C46.8994 88.3901 50.0809 83.3088 53.5361 78.4722Z" fill="#CAD5E2"/>
<path d="M77.9619 52.1177C79.2333 51.0552 81.125 51.2253 82.1875 52.4966C83.25 53.7679 83.0809 55.6597 81.8096 56.7222C77.3484 60.4504 73.1859 64.4044 69.3047 68.5923C68.1785 69.8075 66.2807 69.8796 65.0654 68.7534C63.8503 67.6272 63.7781 65.7294 64.9043 64.5142C68.9602 60.1378 73.307 56.0078 77.9619 52.1177Z" fill="#CAD5E2"/>
<path d="M107.976 32.4692C109.451 31.7158 111.258 32.3006 112.012 33.7759C112.765 35.2514 112.18 37.0583 110.704 37.812C105.415 40.5137 100.42 43.3988 95.7021 46.4712C94.3138 47.3754 92.455 46.9826 91.5508 45.5942C90.6468 44.2059 91.0395 42.348 92.4277 41.4438C97.3297 38.2513 102.508 35.2619 107.976 32.4692Z" fill="#CAD5E2"/>
<path d="M141.056 19.0405C142.634 18.5371 144.322 19.4084 144.825 20.9868C145.329 22.5653 144.457 24.2528 142.879 24.7563C137.176 26.5758 131.726 28.5329 126.52 30.6304C124.983 31.2495 123.234 30.506 122.615 28.9692C121.996 27.4324 122.741 25.6841 124.277 25.0649C129.63 22.9085 135.22 20.9022 141.056 19.0405Z" fill="#CAD5E2"/>
<path d="M175.624 10.2436C177.249 9.92008 178.829 10.9753 179.152 12.6001C179.476 14.2248 178.421 15.8047 176.796 16.1284C170.882 17.3068 165.182 18.5885 159.688 19.9761C158.082 20.3818 156.451 19.4077 156.045 17.8013C155.639 16.1951 156.613 14.5645 158.219 14.1587C163.817 12.7447 169.617 11.4405 175.624 10.2436Z" fill="#CAD5E2"/>
<path d="M210.695 4.729C212.34 4.53093 213.835 5.7042 214.033 7.34912C214.231 8.99403 213.058 10.4879 211.413 10.686C205.451 11.404 199.666 12.2003 194.055 13.0757C192.418 13.3309 190.883 12.2107 190.628 10.5737C190.373 8.93672 191.493 7.40241 193.13 7.14697C198.814 6.26019 204.668 5.45475 210.695 4.729Z" fill="#CAD5E2"/>
<path d="M246.024 1.49755C247.678 1.38902 249.106 2.64137 249.215 4.29443C249.323 5.9476 248.071 7.37607 246.418 7.48486C240.42 7.87887 234.574 8.33418 228.876 8.85107C227.226 9.00076 225.767 7.78421 225.617 6.13427C225.467 4.4842 226.684 3.02518 228.334 2.87548C234.084 2.35385 239.98 1.89464 246.024 1.49755Z" fill="#CAD5E2"/>
</svg>
