<svg width="281" height="259" viewBox="0 0 281 259" fill="none" xmlns="http://www.w3.org/2000/svg">
<path d="M3.0293 6.00732C7.78891 6.14886 12.4648 6.3206 17.0576 6.5249C18.7127 6.59839 20.1139 5.31577 20.1875 3.66064C20.261 2.0056 18.9792 0.604496 17.3242 0.530758C12.6571 0.323157 7.90677 0.148493 3.07227 0.00536692C3.07227 0.00536692 0 -0.256352 0 2.87548C0 6.00732 3.0293 6.00732 3.0293 6.00732Z" fill="#CAD5E2"/>
<path d="M262.403 211.367C260.75 211.471 259.494 212.896 259.598 214.549C259.886 219.132 260.128 223.805 260.329 228.567L246.362 228.741L264.053 258.524L281 228.312L266.329 228.493C266.125 223.63 265.881 218.857 265.586 214.172C265.482 212.519 264.057 211.263 262.403 211.367Z" fill="#CAD5E2"/>
<path d="M262.223 178.904C262.004 177.261 260.496 176.106 258.854 176.325C257.211 176.543 256.057 178.052 256.275 179.694C257.023 185.323 257.674 191.115 258.234 197.07C258.39 198.719 259.853 199.931 261.503 199.776C263.152 199.621 264.363 198.157 264.208 196.507C263.641 190.482 262.982 184.615 262.223 178.904Z" fill="#CAD5E2"/>
<path d="M255.791 143.847C255.4 142.237 253.778 141.248 252.168 141.639C250.558 142.03 249.569 143.652 249.96 145.262C251.298 150.771 252.498 156.473 253.568 162.373C253.864 164.003 255.426 165.084 257.057 164.789C258.687 164.492 259.769 162.931 259.473 161.301C258.383 155.296 257.159 149.479 255.791 143.847Z" fill="#CAD5E2"/>
<path d="M244.796 109.868C244.154 108.341 242.395 107.623 240.868 108.265C239.341 108.907 238.623 110.666 239.265 112.193C241.457 117.409 243.457 122.852 245.275 128.526C245.781 130.104 247.47 130.973 249.048 130.467C250.626 129.962 251.495 128.273 250.989 126.695C249.121 120.865 247.061 115.257 244.796 109.868Z" fill="#CAD5E2"/>
<path d="M227.464 78.4722C226.501 77.1242 224.627 76.8122 223.279 77.7749C221.931 78.738 221.619 80.6123 222.582 81.9604C225.894 86.5964 228.949 91.4756 231.765 96.6069C232.562 98.0595 234.385 98.5913 235.838 97.7944C237.29 96.9975 237.822 95.1738 237.025 93.7212C234.101 88.3901 230.919 83.3088 227.464 78.4722Z" fill="#CAD5E2"/>
<path d="M203.038 52.1177C201.767 51.0552 199.875 51.2253 198.812 52.4966C197.75 53.7679 197.919 55.6597 199.19 56.7222C203.652 60.4504 207.814 64.4044 211.695 68.5923C212.822 69.8075 214.719 69.8796 215.935 68.7534C217.15 67.6272 217.222 65.7294 216.096 64.5142C212.04 60.1378 207.693 56.0078 203.038 52.1177Z" fill="#CAD5E2"/>
<path d="M173.024 32.4692C171.549 31.7158 169.742 32.3006 168.988 33.7759C168.235 35.2514 168.82 37.0583 170.296 37.812C175.585 40.5137 180.58 43.3988 185.298 46.4712C186.686 47.3754 188.545 46.9826 189.449 45.5942C190.353 44.2059 189.961 42.348 188.572 41.4438C183.67 38.2513 178.492 35.2619 173.024 32.4692Z" fill="#CAD5E2"/>
<path d="M139.944 19.0405C138.366 18.5371 136.678 19.4084 136.175 20.9868C135.671 22.5653 136.543 24.2528 138.121 24.7563C143.824 26.5758 149.274 28.5329 154.48 30.6304C156.017 31.2495 157.766 30.506 158.385 28.9692C159.004 27.4324 158.259 25.6841 156.723 25.0649C151.37 22.9085 145.78 20.9022 139.944 19.0405Z" fill="#CAD5E2"/>
<path d="M105.376 10.2436C103.751 9.92008 102.171 10.9753 101.848 12.6001C101.524 14.2248 102.579 15.8047 104.204 16.1284C110.118 17.3068 115.818 18.5885 121.312 19.9761C122.918 20.3818 124.549 19.4077 124.955 17.8013C125.361 16.1951 124.387 14.5645 122.781 14.1587C117.183 12.7447 111.383 11.4405 105.376 10.2436Z" fill="#CAD5E2"/>
<path d="M70.3047 4.729C68.6597 4.53093 67.1649 5.7042 66.9668 7.34912C66.7687 8.99403 67.942 10.4879 69.5869 10.686C75.5491 11.404 81.3338 12.2003 86.9453 13.0757C88.5823 13.3309 90.1167 12.2107 90.3721 10.5737C90.6274 8.93672 89.5071 7.40241 87.8701 7.14697C82.1855 6.26019 76.3318 5.45475 70.3047 4.729Z" fill="#CAD5E2"/>
<path d="M34.9756 1.49755C33.3225 1.38902 31.894 2.64137 31.7852 4.29443C31.6766 5.9476 32.9289 7.37607 34.582 7.48486C40.5802 7.87887 46.4265 8.33418 52.124 8.85107C53.774 9.00076 55.233 7.78421 55.3828 6.13427C55.5325 4.4842 54.3161 3.02518 52.666 2.87548C46.9162 2.35385 41.0204 1.89464 34.9756 1.49755Z" fill="#CAD5E2"/>
</svg>
