<svg width="69" height="69" viewBox="0 0 69 69" fill="none" xmlns="http://www.w3.org/2000/svg">
<path d="M47.8862 26.9375C41.8625 26.9375 36.1274 29.5359 32.1491 34.0574C31.5815 34.7033 31.6451 35.6869 32.291 36.2545C32.9369 36.8222 33.9205 36.7585 34.4881 36.1126C37.8793 32.2566 42.7629 30.0497 47.8911 30.0497C57.7268 30.0497 65.7275 38.0504 65.7275 47.8861C65.7275 57.7218 58.3189 65.1891 48.8649 65.698C48.0086 65.7421 47.348 66.476 47.392 67.3373C47.436 68.1692 48.126 68.8102 48.9432 68.8102C48.9726 68.8102 49.0019 68.8102 49.0264 68.8102C60.1344 68.2132 68.8348 59.0234 68.8348 47.891C68.8348 36.7585 59.4346 26.9375 47.8813 26.9375H47.8862Z" fill="#62748E"/>
<path d="M42.0293 57.424H39.7147C38.8094 46.5117 28.641 37.6449 24.4376 34.4201C28.641 31.1954 38.8046 22.3237 39.7147 11.4163H42.0293C42.8906 11.4163 43.5854 10.7214 43.5854 9.86019V1.55612C43.5854 0.694887 42.8906 0 42.0293 0H1.55609C0.694858 0 0 0.694887 0 1.55612V9.86019C0 10.7214 0.694858 11.4163 1.55609 11.4163H3.87066C4.77593 22.3286 14.9444 31.1954 19.1478 34.4201C14.9444 37.6449 4.78083 46.5166 3.87066 57.424H1.55609C0.694858 57.424 0 58.1188 0 58.98V67.2841C0 68.1453 0.694858 68.8402 1.55609 68.8402H42.0293C42.8906 68.8402 43.5854 68.1453 43.5854 67.2841V58.98C43.5854 58.1188 42.8906 57.424 42.0293 57.424ZM3.11219 3.11219H40.4732V8.29923H3.11219V3.11219ZM6.99754 11.4163H36.5927C35.5749 21.575 24.9367 30.1776 21.7951 32.5068C18.6536 30.1776 8.01536 21.575 6.99754 11.4163ZM21.7951 36.3383C24.9367 38.6627 35.5749 47.2505 36.5927 57.4288H6.99754C8.01536 47.2652 18.6585 38.6676 21.7951 36.3383ZM40.4732 65.7329H3.11219V60.5459H40.4732V65.7329Z" fill="#62748E"/>
<path d="M26.4395 45.6699H17.142C16.2808 45.6699 15.5859 46.3647 15.5859 47.226C15.5859 48.0872 16.2808 48.7821 17.142 48.7821H26.4395C27.3007 48.7821 27.9956 48.0872 27.9956 47.226C27.9956 46.3647 27.3007 45.6699 26.4395 45.6699Z" fill="#62748E"/>
<path d="M27.9956 21.2182C27.9956 20.3569 27.3007 19.6621 26.4395 19.6621H17.142C16.2808 19.6621 15.5859 20.3569 15.5859 21.2182C15.5859 22.0794 16.2808 22.7743 17.142 22.7743H26.4395C27.3007 22.7743 27.9956 22.0794 27.9956 21.2182Z" fill="#62748E"/>
<path d="M56.0679 49.4484C56.9292 49.4484 57.624 48.7535 57.624 47.8922C57.624 47.031 56.9292 46.3362 56.0679 46.3362H49.4423V37.3861C49.4423 36.5249 48.7474 35.8301 47.8862 35.8301C47.0249 35.8301 46.3301 36.5249 46.3301 37.3861V47.8922C46.3301 48.7535 47.0249 49.4484 47.8862 49.4484H56.0728H56.0679Z" fill="#62748E"/>
</svg>
