<svg width="134" height="55" viewBox="0 0 134 55" fill="none" xmlns="http://www.w3.org/2000/svg">
<g opacity="0.5" clip-path="url(#clip0_7238_2540)">
<path d="M1.91442 50.0266H3.5393V48.4259H4.92165V50.0266H6.54653V51.4089H4.92165V53.0095H3.5393V51.4089H1.91442V50.0266ZM0.507812 0.552734V54.3919H7.92889V0.552734H0.507812Z" fill="white"/>
<path d="M25.6089 29.5338H25.8757L28.5676 25.3867L29.3437 25.8718L26.7002 29.9461L29.853 34.8935L29.0527 35.3785L25.9484 30.4069H25.6089V35.1845H24.6631V25.5807H25.6089V29.5338Z" fill="white"/>
<path d="M37.4429 30.3826C37.4429 31.5952 37.4914 35.33 34.7752 35.33C32.059 35.33 32.1075 31.6195 32.1075 30.3826C32.1075 29.1458 32.2045 25.4595 34.7752 25.4595C37.3459 25.4595 37.4429 29.1215 37.4429 30.3826ZM33.1261 30.3826C33.1261 32.9776 33.4171 34.4084 34.7752 34.4084C36.1333 34.4084 36.4243 32.056 36.4243 30.3826C36.4243 28.7092 36.4728 26.3568 34.7752 26.3568C33.0776 26.3568 33.1261 28.976 33.1261 30.3826Z" fill="white"/>
<path d="M41.0312 25.5815H42.0013V34.3365H45.9544V35.1853H41.0312V25.5815Z" fill="white"/>
<path d="M49.7621 32.2269L49.0103 35.3796L48.0645 35.1129L50.4896 25.5576H51.6537L54.0789 35.1129L53.1331 35.3796L52.3813 32.2269H49.7621ZM51.0959 26.8672H51.0717L50.0046 31.3538H52.163L51.0959 26.8672Z" fill="white"/>
<path d="M60.6033 27.7645C60.4335 27.0612 60.094 26.3579 59.2694 26.3579C58.4449 26.3579 58.0083 27.0855 58.0083 27.9101C58.0083 28.7346 58.1781 28.9286 59.6817 29.8502C60.8701 30.5535 61.6704 31.1356 61.6704 32.6392C61.6704 34.1428 60.8701 35.3554 59.2452 35.3554C57.6203 35.3554 56.917 34.2398 56.7715 32.7119L57.7416 32.5907C57.8628 33.6577 58.1053 34.4581 59.2694 34.4581C60.4335 34.4581 60.7003 33.9003 60.7003 32.7362C60.7003 31.5721 59.8757 31.0385 58.8814 30.4565C57.7658 29.8017 57.0383 29.3409 57.0383 27.9343C57.0383 26.5277 57.9113 25.4849 59.2694 25.4849C60.6275 25.4849 61.2823 26.4549 61.5249 27.6675L60.579 27.813L60.6033 27.7645Z" fill="white"/>
<path d="M69.6257 25.4849H68.9951V35.1371H69.6257V25.4849Z" fill="#BFBDBD"/>
<path d="M82.3322 33.7536C81.7744 34.6509 80.9255 35.33 79.8342 35.33C77.3363 35.33 76.9482 32.2985 76.9482 30.4069C76.9482 28.5152 77.312 25.4595 79.8342 25.4595C80.8828 25.4595 81.6774 26.09 82.1866 27.0116L81.3621 27.4966C81.0711 26.8903 80.5618 26.3568 79.8342 26.3568C78.0638 26.3568 77.9668 29.1215 77.9668 30.3826C77.9668 31.6437 78.0881 34.4084 79.8342 34.4084C80.8828 34.4084 81.1681 33.7779 81.5318 33.1958L82.3322 33.7536Z" fill="white"/>
<path d="M90.9029 30.3826C90.9029 31.5952 90.9514 35.33 88.2351 35.33C85.5189 35.33 85.5674 31.6195 85.5674 30.3826C85.5674 29.1458 85.6644 25.4595 88.2351 25.4595C90.8058 25.4595 90.9029 29.1215 90.9029 30.3826ZM86.586 30.3826C86.586 32.9776 86.877 34.4084 88.2351 34.4084C89.5933 34.4084 89.8843 32.056 89.8843 30.3826C89.8843 28.7092 89.9328 26.3568 88.2351 26.3568C86.5375 26.3568 86.586 28.976 86.586 30.3826Z" fill="white"/>
<path d="M97.9695 27.7645C97.7997 27.0612 97.4602 26.3579 96.6356 26.3579C95.8111 26.3579 95.3745 27.0855 95.3745 27.9101C95.3745 28.7346 95.5443 28.9286 97.0479 29.8502C98.2363 30.5535 99.0366 31.1356 99.0366 32.6392C99.0366 34.1428 98.2363 35.3554 96.6114 35.3554C94.9865 35.3554 94.2832 34.2398 94.1377 32.7119L95.1078 32.5907C95.229 33.6577 95.4715 34.4581 96.6356 34.4581C97.7997 34.4581 98.0665 33.9003 98.0665 32.7362C98.0665 31.5721 97.2419 31.0385 96.2476 30.4565C95.132 29.8017 94.4045 29.3409 94.4045 27.9343C94.4045 26.5277 95.2775 25.4849 96.6356 25.4849C97.9937 25.4849 98.6485 26.4549 98.8911 27.6675L97.9452 27.813L97.9695 27.7645Z" fill="white"/>
<path d="M103.97 32.2269L103.218 35.3796L102.272 35.1129L104.698 25.5576H105.862L108.287 35.1129L107.341 35.3796L106.589 32.2269H103.97ZM105.304 26.8672H105.28L104.213 31.3538H106.371L105.304 26.8672Z" fill="white"/>
<path d="M116.905 33.7536C116.348 34.6509 115.499 35.33 114.407 35.33C111.91 35.33 111.521 32.2985 111.521 30.4069C111.521 28.5152 111.885 25.4595 114.407 25.4595C115.456 25.4595 116.251 26.09 116.76 27.0116L115.935 27.4966C115.644 26.8903 115.135 26.3568 114.407 26.3568C112.637 26.3568 112.54 29.1215 112.54 30.3826C112.54 31.6437 112.661 34.4084 114.407 34.4084C115.456 34.4084 115.741 33.7779 116.105 33.1958L116.905 33.7536Z" fill="white"/>
<path d="M26.6737 43.989L25.7279 42.3399L24.9761 43.1887V43.989H24.7578V41.103H24.9761V42.8734L26.5525 41.103H26.8192L25.8491 42.1944L26.9162 43.989H26.6737Z" fill="#BFBDBD"/>
<path d="M28.6149 43.794C28.4694 43.9395 28.2754 44.0365 28.0086 44.0365C27.7419 44.0365 27.5479 43.9395 27.4023 43.794C27.1841 43.5757 27.1113 43.309 27.1113 42.9694C27.1113 42.6299 27.1841 42.3631 27.4023 42.1449C27.5479 41.9994 27.7419 41.9023 28.0086 41.9023C28.2754 41.9023 28.4694 41.9994 28.6149 42.1449C28.8332 42.3631 28.906 42.6299 28.906 42.9694C28.906 43.309 28.8332 43.5757 28.6149 43.794ZM28.4694 42.2904C28.3724 42.1691 28.2269 42.1206 28.0086 42.1206C27.7904 42.1206 27.6691 42.1934 27.5721 42.2904C27.3781 42.4844 27.3538 42.7269 27.3538 42.9937C27.3538 43.2604 27.4024 43.503 27.5721 43.697C27.6691 43.8182 27.8146 43.8667 28.0086 43.8667C28.2027 43.8667 28.3482 43.794 28.4694 43.697C28.6634 43.503 28.6877 43.2604 28.6877 42.9937C28.6877 42.7269 28.6392 42.4844 28.4694 42.2904Z" fill="#BFBDBD"/>
<path d="M30.9213 43.9883V42.6545C30.9213 42.2907 30.7757 42.0967 30.3877 42.0967C29.9997 42.0967 29.7087 42.5332 29.7087 42.9698V43.9883H29.5146V41.9512H29.6844V42.315C29.8299 42.0482 30.1209 41.8784 30.3877 41.8784C30.8485 41.8784 31.1153 42.1694 31.1153 42.6302V43.9641H30.9213V43.9883Z" fill="#BFBDBD"/>
<path d="M32.5939 41.1992C32.3272 41.1992 32.2059 41.3447 32.2059 41.5873V41.9268H32.8365V42.1208H32.2059V43.9639H32.0119V42.1208H31.5996V41.9268H32.0119V41.563C32.0119 41.2477 32.2059 40.981 32.5939 40.981C32.982 40.981 32.8122 40.981 32.9092 41.0052V41.1992C32.8365 41.1992 32.7394 41.175 32.6182 41.175" fill="#BFBDBD"/>
<path d="M34.8466 43.0179H33.2944C33.2944 43.2605 33.3672 43.4787 33.5127 43.6242C33.634 43.7697 33.7795 43.8425 33.9977 43.8425C34.216 43.8425 34.3373 43.7697 34.4343 43.6727C34.507 43.6 34.5555 43.503 34.5798 43.3817H34.7981C34.7738 43.5515 34.6768 43.697 34.5798 43.8182C34.4343 43.9638 34.2403 44.0608 33.9977 44.0608C33.7552 44.0608 33.4885 43.9395 33.3429 43.7697C33.1732 43.5757 33.0762 43.309 33.0762 42.9937C33.0762 42.6784 33.1247 42.4844 33.2702 42.2661C33.4399 42.0236 33.6825 41.9023 33.9735 41.9023C34.5313 41.9023 34.8466 42.3631 34.8466 42.8967C34.8466 43.4302 34.8466 42.9937 34.8466 43.0422M33.9735 42.0964C33.5612 42.0964 33.2944 42.4359 33.2944 42.8482H34.6525C34.6525 42.4601 34.41 42.0964 33.9977 42.0964" fill="#BFBDBD"/>
<path d="M36.2775 42.1206C35.7682 42.1206 35.6227 42.5814 35.6227 42.9937V43.9638H35.4287V41.9266H35.5985V42.3389C35.7197 42.0479 35.9865 41.9023 36.2775 41.9023C36.5685 41.9023 36.423 41.9023 36.4715 41.9023V42.0964C36.3988 42.0964 36.326 42.0964 36.2775 42.0964" fill="#BFBDBD"/>
<path d="M38.5116 43.0179H36.9595C36.9595 43.2605 37.0322 43.4787 37.1777 43.6242C37.299 43.7697 37.4445 43.8425 37.6628 43.8425C37.881 43.8425 38.0023 43.7697 38.0993 43.6727C38.1721 43.6 38.2206 43.503 38.2448 43.3817H38.4631C38.4388 43.5515 38.3418 43.697 38.2448 43.8182C38.0993 43.9638 37.9053 44.0608 37.6628 44.0608C37.4203 44.0608 37.1535 43.9395 37.008 43.7697C36.8382 43.5757 36.7412 43.309 36.7412 42.9937C36.7412 42.6784 36.7897 42.4844 36.9352 42.2661C37.105 42.0236 37.3475 41.9023 37.6385 41.9023C38.1963 41.9023 38.5116 42.3631 38.5116 42.8967C38.5116 43.4302 38.5116 42.9937 38.5116 43.0422M37.6385 42.0964C37.2262 42.0964 36.9595 42.4359 36.9595 42.8482H38.3176C38.3176 42.4601 38.0751 42.0964 37.6628 42.0964" fill="#BFBDBD"/>
<path d="M40.4984 43.9883V42.6545C40.4984 42.2907 40.3529 42.0967 39.9649 42.0967C39.5768 42.0967 39.2858 42.5332 39.2858 42.9698V43.9883H39.0918V41.9512H39.2616V42.315C39.4071 42.0482 39.6981 41.8784 39.9649 41.8784C40.4257 41.8784 40.6924 42.1694 40.6924 42.6302V43.9641H40.4984V43.9883Z" fill="#BFBDBD"/>
<path d="M41.2988 43.9878V43.7696L42.6084 42.1447H41.2988V41.9507H42.8267V42.169L41.5171 43.7938H42.8267V43.9878H41.2988Z" fill="#BFBDBD"/>
<path d="M45.6877 43.988V43.6243C45.5422 43.8668 45.2512 44.0365 44.9844 44.0365C44.7176 44.0365 44.5721 43.9638 44.4509 43.8425C44.2326 43.6485 44.1113 43.309 44.1113 42.9694C44.1113 42.6299 44.2083 42.3146 44.4266 42.0964C44.5721 41.9751 44.7419 41.8781 44.9844 41.8781C45.2269 41.8781 45.5664 42.0479 45.6634 42.2661V41.0293H45.8575V43.9638H45.6877V43.988ZM45.3967 42.2661C45.2997 42.1691 45.1542 42.0964 44.9601 42.0964C44.7661 42.0964 44.6206 42.1691 44.5236 42.2661C44.3538 42.4359 44.3053 42.7027 44.3053 42.9694C44.3053 43.2362 44.3781 43.5272 44.5721 43.697C44.6691 43.794 44.8146 43.8425 44.9844 43.8425C45.1542 43.8425 45.2997 43.7698 45.3967 43.6728C45.5907 43.503 45.6634 43.2362 45.6634 42.9694C45.6634 42.7027 45.5907 42.4359 45.3967 42.2661Z" fill="#BFBDBD"/>
<path d="M48.2362 43.0179H46.6841C46.6841 43.2605 46.7568 43.4787 46.9024 43.6242C47.0236 43.7697 47.1691 43.8425 47.3874 43.8425C47.6057 43.8425 47.7269 43.7697 47.8239 43.6727C47.8967 43.6 47.9452 43.503 47.9694 43.3817H48.1877C48.1634 43.5515 48.0664 43.697 47.9694 43.8182C47.8239 43.9638 47.6299 44.0608 47.3874 44.0608C47.1449 44.0608 46.8781 43.9395 46.7326 43.7697C46.5628 43.5757 46.4658 43.309 46.4658 42.9937C46.4658 42.6784 46.5143 42.4844 46.6598 42.2661C46.8296 42.0236 47.0721 41.9023 47.3631 41.9023C47.9209 41.9023 48.2362 42.3631 48.2362 42.8967C48.2362 43.4302 48.2362 42.9937 48.2362 43.0422M47.3631 42.0964C46.9509 42.0964 46.6841 42.4359 46.6841 42.8482H48.0422C48.0422 42.4601 47.7997 42.0964 47.3874 42.0964" fill="#BFBDBD"/>
<path d="M49.6906 42.1206C49.1813 42.1206 49.0358 42.5814 49.0358 42.9937V43.9638H48.8418V41.9266H49.0116V42.3389C49.1328 42.0479 49.3996 41.9023 49.6906 41.9023C49.9816 41.9023 49.8361 41.9023 49.8846 41.9023V42.0964C49.8119 42.0964 49.7391 42.0964 49.6906 42.0964" fill="#BFBDBD"/>
<path d="M51.2432 43.989V41.103H51.4614V43.795H52.965V43.989H51.2432Z" fill="#BFBDBD"/>
<path d="M55.001 44.0124C54.7585 44.0124 54.6857 43.8184 54.6857 43.6244C54.5645 43.9154 54.2735 44.0609 53.9582 44.0609C53.6429 44.0609 53.2549 43.8184 53.2549 43.4304C53.2549 43.0423 53.5459 42.8483 53.9339 42.8241L54.6857 42.7756V42.5816C54.6857 42.242 54.4675 42.1208 54.1522 42.1208C53.8369 42.1208 53.5944 42.2663 53.5702 42.5573H53.3761C53.4004 42.145 53.7157 41.9268 54.1765 41.9268C54.6372 41.9268 54.7585 42.0238 54.8555 42.2905C54.904 42.4118 54.904 42.5573 54.904 42.6786V43.6001C54.904 43.7456 54.904 43.8184 55.0738 43.8184C55.2435 43.8184 55.1223 43.8184 55.1223 43.8184V43.9882C55.0738 43.9882 55.0738 43.9882 55.0253 43.9882M54.6857 42.9453L53.9582 42.9938C53.6672 42.9938 53.4731 43.1636 53.4731 43.4304C53.4731 43.6971 53.6914 43.8669 53.9824 43.8669C54.4917 43.8669 54.71 43.4546 54.71 43.0666V42.9696L54.6857 42.9453Z" fill="#BFBDBD"/>
<path d="M57.0853 43.9883V42.6545C57.0853 42.2907 56.9398 42.0967 56.5518 42.0967C56.1637 42.0967 55.8727 42.5332 55.8727 42.9698V43.9883H55.6787V41.9512H55.8485V42.315C55.994 42.0482 56.285 41.8784 56.5518 41.8784C57.0126 41.8784 57.2793 42.1694 57.2793 42.6302V43.9641H57.0853V43.9883Z" fill="#BFBDBD"/>
<path d="M59.4397 43.988V43.6243C59.2941 43.8668 59.0031 44.0365 58.7363 44.0365C58.4696 44.0365 58.3241 43.9638 58.2028 43.8425C57.9845 43.6485 57.8633 43.309 57.8633 42.9694C57.8633 42.6299 57.9603 42.3146 58.1786 42.0964C58.3241 41.9751 58.4938 41.8781 58.7363 41.8781C58.9789 41.8781 59.3184 42.0479 59.4154 42.2661V41.0293H59.6094V43.9638H59.4397V43.988ZM59.1486 42.2661C59.0516 42.1691 58.9061 42.0964 58.7121 42.0964C58.5181 42.0964 58.3726 42.1691 58.2756 42.2661C58.1058 42.4359 58.0573 42.7027 58.0573 42.9694C58.0573 43.2362 58.1301 43.5272 58.3241 43.697C58.4211 43.794 58.5666 43.8425 58.7363 43.8425C58.9061 43.8425 59.0516 43.7698 59.1486 43.6728C59.3426 43.503 59.4154 43.2362 59.4154 42.9694C59.4154 42.7027 59.3426 42.4359 59.1486 42.2661Z" fill="#BFBDBD"/>
<path d="M62.3497 43.9878H62.1071L61.5008 42.2417L60.9188 43.9878H60.6763L60.167 41.9507H60.361L60.7975 43.7453L61.4038 41.9749H61.6221L62.2284 43.7211L62.6649 41.9507H62.8589L62.3497 43.9878Z" fill="#BFBDBD"/>
<path d="M63.3945 41.103H63.6855V41.394H63.3945V41.103ZM63.443 41.9518H63.6613V43.989H63.443V41.9518Z" fill="#BFBDBD"/>
<path d="M65.3068 42.1206C64.7975 42.1206 64.652 42.5814 64.652 42.9937V43.9638H64.458V41.9266H64.6278V42.3389C64.749 42.0479 65.0158 41.9023 65.3068 41.9023C65.5978 41.9023 65.4523 41.9023 65.5008 41.9023V42.0964C65.4281 42.0964 65.3553 42.0964 65.3068 42.0964" fill="#BFBDBD"/>
<path d="M66.6675 44.0123C66.2795 44.0123 66.134 43.7697 66.134 43.406V42.1206H65.7217V41.9266H66.134V41.3688L66.328 41.3203V41.9266H66.9585V42.1206H66.328V43.406C66.328 43.6485 66.4007 43.8183 66.6675 43.8183C66.9343 43.8183 66.8858 43.8183 66.9828 43.794V43.9638C66.8615 43.988 66.7645 44.0123 66.6432 44.0123" fill="#BFBDBD"/>
<path d="M68.8259 43.7942C68.6804 43.9639 68.4379 44.0367 68.1711 44.0367C67.9043 44.0367 67.6618 43.9397 67.492 43.7699C67.3708 43.6486 67.3223 43.5274 67.3223 43.3576H67.5405C67.5405 43.4789 67.6133 43.5759 67.686 43.6729C67.8073 43.7942 67.9771 43.8427 68.1711 43.8427C68.3651 43.8427 68.5591 43.7941 68.6561 43.6971C68.7289 43.6244 68.7774 43.5516 68.7774 43.4304C68.7774 43.2364 68.6561 43.0908 68.4136 43.0666L68.0256 43.0181C67.8558 43.0181 67.686 42.9453 67.5648 42.8241C67.492 42.7271 67.4435 42.6301 67.4435 42.5088C67.4435 42.3875 67.5163 42.2178 67.6133 42.1208C67.7588 41.9753 67.9528 41.9268 68.1711 41.9268C68.3893 41.9268 68.6561 41.9995 68.7774 42.1693C68.8744 42.2905 68.9229 42.4118 68.9229 42.5331H68.7289C68.7289 42.4603 68.7046 42.3633 68.6319 42.2905C68.5349 42.1693 68.3893 42.1208 68.1711 42.1208C67.9528 42.1208 67.9043 42.145 67.8073 42.2178C67.7103 42.2905 67.6375 42.3875 67.6375 42.5088C67.6375 42.6786 67.7346 42.7998 68.0256 42.8483L68.4136 42.8968C68.8016 42.9453 68.9714 43.2121 68.9714 43.4546C68.9714 43.6971 68.9229 43.7214 68.8259 43.8184" fill="#BFBDBD"/>
<path d="M70.3045 44.0365C70.062 44.0365 69.8438 43.9395 69.6983 43.794C69.48 43.5757 69.4072 43.309 69.4072 42.9694C69.4072 42.6299 69.48 42.3389 69.6983 42.1449C69.8438 41.9994 70.0378 41.9023 70.3045 41.9023C70.7411 41.9023 71.0321 42.1691 71.0806 42.5814H70.8623C70.8138 42.2904 70.5956 42.0964 70.2803 42.0964C69.965 42.0964 69.9408 42.1691 69.8195 42.2661C69.6255 42.4601 69.6012 42.7027 69.6012 42.9694C69.6012 43.2362 69.6497 43.4787 69.8195 43.6727C69.9165 43.794 70.0863 43.8425 70.2803 43.8425C70.5956 43.8425 70.8138 43.6242 70.8623 43.3575H71.0806C71.0321 43.7455 70.7168 44.0608 70.2803 44.0608" fill="#BFBDBD"/>
<path d="M73.0218 43.9882V42.6543C73.0218 42.2906 72.8763 42.0965 72.4883 42.0965C72.1003 42.0965 71.8092 42.5331 71.8092 42.9696V43.9882H71.6152V41.0537H71.8092V42.3391C71.9305 42.0723 72.2215 41.9025 72.4883 41.9025C72.9491 41.9025 73.2159 42.1936 73.2159 42.6543V43.9882H73.0218Z" fill="#BFBDBD"/>
<path d="M75.5684 44.0124C75.3259 44.0124 75.2531 43.8184 75.2531 43.6244C75.1319 43.9154 74.8408 44.0609 74.5256 44.0609C74.2103 44.0609 73.8223 43.8184 73.8223 43.4304C73.8223 43.0423 74.1133 42.8483 74.5013 42.8241L75.2531 42.7756V42.5816C75.2531 42.242 75.0349 42.1208 74.7196 42.1208C74.4043 42.1208 74.1618 42.2663 74.1375 42.5573H73.9435C73.9678 42.145 74.283 41.9268 74.7438 41.9268C75.2046 41.9268 75.3259 42.0238 75.4229 42.2905C75.4714 42.4118 75.4714 42.5573 75.4714 42.6786V43.6001C75.4714 43.7456 75.4714 43.8184 75.6412 43.8184C75.8109 43.8184 75.6654 43.8184 75.6897 43.8184V43.9882C75.6412 43.9882 75.6412 43.9882 75.5926 43.9882M75.2531 42.9453L74.5256 42.9938C74.2345 42.9938 74.0405 43.1636 74.0405 43.4304C74.0405 43.6971 74.2588 43.8669 74.5498 43.8669C75.0591 43.8669 75.2774 43.4546 75.2774 43.0666V42.9696L75.2531 42.9453Z" fill="#BFBDBD"/>
<path d="M76.9758 41.1992C76.709 41.1992 76.5877 41.3447 76.5877 41.5873V41.9268H77.2183V42.1208H76.5877V43.9639H76.3937V42.1208H75.9814V41.9268H76.3937V41.563C76.3937 41.2477 76.5877 40.981 76.9758 40.981C77.3638 40.981 77.194 40.981 77.291 41.0052V41.1992C77.2183 41.1992 77.1213 41.175 77 41.175" fill="#BFBDBD"/>
<path d="M78.2837 44.0123C77.8957 44.0123 77.7502 43.7697 77.7502 43.406V42.1206H77.3379V41.9266H77.7502V41.3688L77.9442 41.3203V41.9266H78.5747V42.1206H77.9442V43.406C77.9442 43.6485 78.0169 43.8183 78.2837 43.8183C78.5505 43.8183 78.502 43.8183 78.599 43.794V43.9638C78.4777 43.988 78.3807 44.0123 78.2595 44.0123" fill="#BFBDBD"/>
<path d="M80.4655 43.7942C80.32 43.9639 80.0775 44.0367 79.8107 44.0367C79.544 44.0367 79.3014 43.9397 79.1317 43.7699C79.0104 43.6486 78.9619 43.5274 78.9619 43.3576H79.1802C79.1802 43.4789 79.2529 43.5759 79.3257 43.6729C79.447 43.7942 79.6167 43.8427 79.8107 43.8427C80.0047 43.8427 80.1988 43.7941 80.2958 43.6971C80.3685 43.6244 80.417 43.5516 80.417 43.4304C80.417 43.2364 80.2958 43.0908 80.0532 43.0666L79.6652 43.0181C79.4955 43.0181 79.3257 42.9453 79.2044 42.8241C79.1317 42.7271 79.0832 42.6301 79.0832 42.5088C79.0832 42.3875 79.1559 42.2178 79.2529 42.1208C79.3985 41.9753 79.5925 41.9268 79.8107 41.9268C80.029 41.9268 80.2958 41.9995 80.417 42.1693C80.514 42.2905 80.5625 42.4118 80.5625 42.5331H80.3685C80.3685 42.4603 80.3443 42.3633 80.2715 42.2905C80.1745 42.1693 80.029 42.1208 79.8107 42.1208C79.5925 42.1208 79.544 42.145 79.447 42.2178C79.3499 42.2905 79.2772 42.3875 79.2772 42.5088C79.2772 42.6786 79.3742 42.7998 79.6652 42.8483L80.0532 42.8968C80.4413 42.9453 80.611 43.2121 80.611 43.4546C80.611 43.6971 80.5625 43.7214 80.4655 43.8184" fill="#BFBDBD"/>
<path d="M82.793 44.0134C82.5505 44.0134 82.4777 43.8194 82.4777 43.6254C82.3565 43.9164 82.0655 44.0619 81.7502 44.0619C81.4349 44.0619 81.0469 43.8194 81.0469 43.4314C81.0469 43.0433 81.3379 42.8493 81.7259 42.8251L82.4777 42.7766V42.5826C82.4777 42.243 82.2595 42.1218 81.9442 42.1218C81.6289 42.1218 81.3864 42.2673 81.3622 42.5583H81.1681C81.1924 42.146 81.5077 41.9278 81.9685 41.9278C82.4292 41.9278 82.5505 42.0248 82.6475 42.2915C82.696 42.4128 82.696 42.5583 82.696 42.6796V43.6011C82.696 43.7466 82.696 43.8194 82.8658 43.8194C83.0355 43.8194 82.9143 43.8194 82.9143 43.8194V43.9892C82.8658 43.9892 82.8658 43.9892 82.8173 43.9892M82.4777 42.9463L81.7502 42.9948C81.4592 42.9948 81.2651 43.1646 81.2651 43.4314C81.2651 43.6981 81.4834 43.8679 81.7744 43.8679C82.2837 43.8679 82.502 43.4556 82.502 43.0676V42.9706L82.4777 42.9463ZM81.4349 41.2002H81.6774V41.467H81.4349V41.2002ZM82.1867 41.2002H82.4292V41.467H82.1867V41.2002Z" fill="#BFBDBD"/>
<path d="M86.0666 43.9882V42.6543C86.0666 42.2905 85.9454 42.0965 85.5816 42.0965C85.2178 42.0965 85.3148 42.145 85.2178 42.242C85.0481 42.3875 84.9753 42.6058 84.9753 42.8483V44.0124H84.757V42.6786C84.757 42.3148 84.6115 42.1208 84.272 42.1208C83.9325 42.1208 84.0052 42.1693 83.9082 42.2663C83.7142 42.436 83.6657 42.7271 83.6657 43.0181V44.0367H83.4717V41.9995H83.6414V42.339C83.7627 42.0965 83.981 41.9268 84.2962 41.9268C84.6115 41.9268 84.854 42.0965 84.951 42.3633C85.0481 42.1208 85.2663 41.9268 85.6058 41.9268C86.0909 41.9268 86.2849 42.242 86.2849 42.6786V44.0124H86.0909L86.0666 43.9882Z" fill="#BFBDBD"/>
<path d="M87.6206 44.0123C87.2326 44.0123 87.0871 43.7697 87.0871 43.406V42.1206H86.6748V41.9266H87.0871V41.3688L87.2811 41.3203V41.9266H87.9117V42.1206H87.2811V43.406C87.2811 43.6485 87.3539 43.8183 87.6206 43.8183C87.8874 43.8183 87.8389 43.8183 87.9359 43.794V43.9638C87.8146 43.988 87.7176 44.0123 87.5964 44.0123" fill="#BFBDBD"/>
<path d="M90.0194 43.0179H88.4673C88.4673 43.2605 88.54 43.4787 88.6856 43.6242C88.8068 43.7697 88.9523 43.8425 89.1706 43.8425C89.3889 43.8425 89.5101 43.7697 89.6071 43.6727C89.6799 43.6 89.7284 43.503 89.7526 43.3817H89.9709C89.9467 43.5515 89.8496 43.697 89.7526 43.8182C89.6071 43.9638 89.4131 44.0608 89.1706 44.0608C88.9281 44.0608 88.6613 43.9395 88.5158 43.7697C88.346 43.5757 88.249 43.309 88.249 42.9937C88.249 42.6784 88.2975 42.4844 88.443 42.2661C88.6128 42.0236 88.8553 41.9023 89.1463 41.9023C89.7041 41.9023 90.0194 42.3631 90.0194 42.8967C90.0194 43.4302 90.0194 42.9937 90.0194 43.0422M89.1463 42.0964C88.7341 42.0964 88.4673 42.4359 88.4673 42.8482H89.8254C89.8254 42.4601 89.5829 42.0964 89.1706 42.0964" fill="#BFBDBD"/>
<path d="M91.4777 42.1206C90.9684 42.1206 90.8229 42.5814 90.8229 42.9937V43.9638H90.6289V41.9266H90.7987V42.3389C90.9199 42.0479 91.1867 41.9023 91.4777 41.9023C91.7687 41.9023 91.6232 41.9023 91.6717 41.9023V42.0964C91.599 42.0964 91.5262 42.0964 91.4777 42.0964" fill="#BFBDBD"/>
<path d="M94.4104 43.988V43.6243C94.2648 43.8668 93.9738 44.0365 93.7071 44.0365C93.4403 44.0365 93.2948 43.9638 93.1735 43.8425C92.9552 43.6485 92.834 43.309 92.834 42.9694C92.834 42.6299 92.931 42.3146 93.1493 42.0964C93.2705 41.9751 93.4645 41.8781 93.7071 41.8781C93.9496 41.8781 94.2891 42.0479 94.3861 42.2661V41.0293H94.5801V43.9638H94.4104V43.988ZM94.1193 42.2661C94.0223 42.1691 93.8768 42.0964 93.6828 42.0964C93.4888 42.0964 93.3433 42.1691 93.2463 42.2661C93.0765 42.4359 93.028 42.7027 93.028 42.9694C93.028 43.2362 93.1008 43.5272 93.2948 43.697C93.3918 43.794 93.5373 43.8425 93.7071 43.8425C93.8768 43.8425 94.0223 43.7698 94.1193 43.6728C94.3133 43.503 94.3861 43.2362 94.3861 42.9694C94.3861 42.7027 94.3133 42.4359 94.1193 42.2661Z" fill="#BFBDBD"/>
<path d="M96.955 43.0179H95.4028C95.4028 43.2605 95.4756 43.4787 95.6211 43.6242C95.7424 43.7697 95.8879 43.8425 96.1061 43.8425C96.3244 43.8425 96.4457 43.7697 96.5427 43.6727C96.6154 43.6 96.6639 43.503 96.6882 43.3817H96.9064C96.8822 43.5515 96.7852 43.697 96.6882 43.8182C96.5427 43.9638 96.3487 44.0608 96.1061 44.0608C95.8636 44.0608 95.5968 43.9395 95.4513 43.7697C95.2816 43.5757 95.1846 43.309 95.1846 42.9937C95.1846 42.6784 95.2331 42.4844 95.3786 42.2661C95.5483 42.0236 95.7909 41.9023 96.0819 41.9023C96.6397 41.9023 96.955 42.3631 96.955 42.8967C96.955 43.4302 96.955 42.9937 96.955 43.0422M96.0819 42.0964C95.6696 42.0964 95.4028 42.4359 95.4028 42.8482H96.7609C96.7609 42.4601 96.5184 42.0964 96.1061 42.0964" fill="#BFBDBD"/>
<path d="M98.3889 42.1206C97.8796 42.1206 97.7341 42.5814 97.7341 42.9937V43.9638H97.54V41.9266H97.7098V42.3389C97.8311 42.0479 98.0978 41.9023 98.3889 41.9023C98.6799 41.9023 98.5344 41.9023 98.5829 41.9023V42.0964C98.5101 42.0964 98.4374 42.0964 98.3889 42.0964" fill="#BFBDBD"/>
<path d="M101.615 43.7699C101.421 43.9639 101.13 44.0609 100.791 44.0609C100.451 44.0609 100.184 43.9639 99.9904 43.7457C99.8449 43.6002 99.7479 43.3819 99.7236 43.1636H99.9419C99.9419 43.3334 100.039 43.5032 100.16 43.6002C100.306 43.7699 100.548 43.8427 100.791 43.8427C101.033 43.8427 101.276 43.7699 101.446 43.6244C101.543 43.5274 101.615 43.3819 101.615 43.2121C101.615 42.9454 101.397 42.7028 101.057 42.6543L100.524 42.5816C100.112 42.5331 99.8206 42.2906 99.8206 41.854C99.8206 41.4175 99.9176 41.4417 100.063 41.2962C100.233 41.1265 100.5 41.0537 100.766 41.0537C101.033 41.0537 101.397 41.175 101.543 41.369C101.664 41.5145 101.737 41.66 101.761 41.8783H101.543C101.543 41.7328 101.47 41.6115 101.373 41.5145C101.252 41.369 101.009 41.272 100.742 41.272C100.475 41.272 100.33 41.3205 100.184 41.4417C100.063 41.5387 99.9904 41.6843 99.9904 41.854C99.9904 42.1935 100.233 42.3148 100.5 42.3633L101.057 42.4361C101.494 42.4846 101.809 42.8241 101.809 43.2121C101.809 43.6002 101.712 43.6244 101.591 43.7699" fill="#BFBDBD"/>
<path d="M103.142 44.0365C102.9 44.0365 102.682 43.9395 102.536 43.794C102.318 43.5757 102.245 43.309 102.245 42.9694C102.245 42.6299 102.318 42.3389 102.536 42.1449C102.682 41.9994 102.876 41.9023 103.142 41.9023C103.555 41.9023 103.87 42.1691 103.919 42.5814H103.7C103.652 42.2904 103.433 42.0964 103.118 42.0964C102.803 42.0964 102.779 42.1691 102.657 42.2661C102.463 42.4601 102.439 42.7027 102.439 42.9694C102.439 43.2362 102.488 43.4787 102.657 43.6727C102.754 43.794 102.924 43.8425 103.118 43.8425C103.433 43.8425 103.652 43.6242 103.7 43.3575H103.919C103.87 43.7455 103.555 44.0608 103.118 44.0608" fill="#BFBDBD"/>
<path d="M105.88 43.9882V42.6543C105.88 42.2906 105.735 42.0965 105.347 42.0965C104.959 42.0965 104.668 42.5331 104.668 42.9696V43.9882H104.474V41.0537H104.668V42.3391C104.789 42.0723 105.08 41.9025 105.347 41.9025C105.807 41.9025 106.074 42.1936 106.074 42.6543V43.9882H105.88Z" fill="#BFBDBD"/>
<path d="M108.767 43.9878H108.524L107.918 42.2417L107.312 43.9878H107.093L106.584 41.9507H106.778L107.215 43.7453L107.821 41.9749H108.039L108.621 43.7211L109.082 41.9507H109.276L108.767 43.9878Z" fill="#BFBDBD"/>
<path d="M111.386 43.0179H109.833C109.833 43.2605 109.906 43.4787 110.052 43.6242C110.173 43.7697 110.319 43.8425 110.537 43.8425C110.755 43.8425 110.876 43.7697 110.973 43.6727C111.046 43.6 111.095 43.503 111.119 43.3817H111.337C111.313 43.5515 111.216 43.697 111.119 43.8182C110.973 43.9638 110.779 44.0608 110.537 44.0608C110.294 44.0608 110.028 43.9395 109.882 43.7697C109.712 43.5757 109.615 43.309 109.615 42.9937C109.615 42.6784 109.664 42.4844 109.809 42.2661C109.979 42.0236 110.222 41.9023 110.513 41.9023C111.07 41.9023 111.386 42.3631 111.386 42.8967C111.386 43.4302 111.386 42.9937 111.386 43.0422M110.513 42.0964C110.1 42.0964 109.833 42.4359 109.833 42.8482H111.192C111.192 42.4601 110.949 42.0964 110.537 42.0964" fill="#BFBDBD"/>
<path d="M111.97 41.103H112.261V41.394H111.97V41.103ZM111.994 41.9518H112.212V43.989H111.994V41.9518Z" fill="#BFBDBD"/>
<path d="M112.867 43.9878V43.7696L114.177 42.1447H112.867V41.9507H114.395V42.169L113.085 43.7938H114.395V43.9878H112.867Z" fill="#BFBDBD"/>
<path d="M25.6577 48.9359C25.391 48.9359 25.0999 48.8147 24.9059 48.6207C24.5907 48.3054 24.5664 47.8446 24.5664 47.4323C24.5664 47.02 24.5907 46.5593 24.9059 46.244C25.0999 46.05 25.391 45.9287 25.6577 45.9287C26.2398 45.9287 26.6278 46.341 26.6763 46.8745H26.4581C26.4095 46.438 26.1185 46.147 25.6577 46.147C25.197 46.147 25.197 46.244 25.0514 46.3895C24.7847 46.6563 24.7847 47.0928 24.7847 47.4323C24.7847 47.7719 24.7847 48.2084 25.0514 48.4752C25.2212 48.6449 25.4152 48.7177 25.6577 48.7177C26.1185 48.7177 26.4338 48.4267 26.4581 47.9901H26.6763C26.6278 48.5237 26.2155 48.9359 25.6577 48.9359Z" fill="#BFBDBD"/>
<path d="M28.5661 48.6934C28.4206 48.8389 28.2266 48.9359 27.9598 48.9359C27.693 48.9359 27.499 48.8389 27.3535 48.6934C27.1353 48.4751 27.0625 48.2084 27.0625 47.8688C27.0625 47.5293 27.1353 47.2625 27.3535 47.0443C27.499 46.8988 27.693 46.8018 27.9598 46.8018C28.2266 46.8018 28.4206 46.8988 28.5661 47.0443C28.7844 47.2625 28.8571 47.5293 28.8571 47.8688C28.8571 48.2084 28.7844 48.4751 28.5661 48.6934ZM28.4206 47.1655C28.3236 47.0443 28.1781 46.9958 27.9598 46.9958C27.7416 46.9958 27.6203 47.0685 27.5233 47.1655C27.3293 47.3596 27.305 47.6021 27.305 47.8688C27.305 48.1356 27.3535 48.3781 27.5233 48.5721C27.6203 48.6934 27.7658 48.7419 27.9598 48.7419C28.1538 48.7419 28.2993 48.6692 28.4206 48.5721C28.6146 48.3781 28.6389 48.1356 28.6389 47.8688C28.6389 47.6021 28.5904 47.3596 28.4206 47.1655Z" fill="#BFBDBD"/>
<path d="M30.8959 48.8873V47.5534C30.8959 47.1896 30.7504 46.9956 30.3623 46.9956C29.9743 46.9956 29.6833 47.4321 29.6833 47.8687V48.8873H29.4893V46.8501H29.659V47.2139C29.8045 46.9471 30.0956 46.7773 30.3623 46.7773C30.8231 46.7773 31.0899 47.0684 31.0899 47.5291V48.863H30.8959V48.8873Z" fill="#BFBDBD"/>
<path d="M32.5939 46.0986C32.3272 46.0986 32.2059 46.2441 32.2059 46.4867V46.8262H32.8365V47.0202H32.2059V48.8634H32.0119V47.0202H31.5996V46.8262H32.0119V46.4624C32.0119 46.1471 32.2059 45.8804 32.5939 45.8804C32.982 45.8804 32.8122 45.8804 32.9092 45.9046V46.0986C32.8365 46.0986 32.7394 46.0744 32.6182 46.0744" fill="#BFBDBD"/>
<path d="M34.8466 47.9174H33.2944C33.2944 48.1599 33.3672 48.3782 33.5127 48.5237C33.634 48.6692 33.7795 48.7419 33.9977 48.7419C34.216 48.7419 34.3373 48.6692 34.4343 48.5722C34.507 48.4994 34.5555 48.4024 34.5798 48.2811H34.7981C34.7738 48.4509 34.6768 48.5964 34.5798 48.7177C34.4343 48.8632 34.2403 48.9602 33.9977 48.9602C33.7552 48.9602 33.4885 48.8389 33.3429 48.6692C33.1732 48.4752 33.0762 48.2084 33.0762 47.8931C33.0762 47.5778 33.1247 47.3838 33.2702 47.1656C33.4399 46.923 33.6825 46.8018 33.9735 46.8018C34.5313 46.8018 34.8466 47.2626 34.8466 47.7961C34.8466 48.3296 34.8466 47.8931 34.8466 47.9416M33.9735 46.9958C33.5612 46.9958 33.2944 47.3353 33.2944 47.7476H34.6525C34.6525 47.3596 34.41 46.9958 33.9977 46.9958M33.6825 46.5835L33.6097 46.4623L34.2645 46.0015L34.3858 46.1712L33.7067 46.5835H33.6825Z" fill="#BFBDBD"/>
<path d="M36.3049 47.02C35.7956 47.02 35.6501 47.4808 35.6501 47.8931V48.8632H35.4561V46.826H35.6258V47.2383C35.7471 46.9473 36.0138 46.8018 36.3049 46.8018C36.5959 46.8018 36.4504 46.8018 36.4989 46.8018V46.9958C36.4261 46.9958 36.3534 46.9958 36.3049 46.9958" fill="#BFBDBD"/>
<path d="M38.5595 47.9173H37.0073C37.0073 48.1599 37.0801 48.3781 37.2256 48.5236C37.3469 48.6692 37.4924 48.7419 37.7106 48.7419C37.9289 48.7419 38.0502 48.6692 38.1472 48.5721C38.2199 48.4994 38.2684 48.4024 38.2927 48.2811H38.5109C38.4867 48.4509 38.3897 48.5964 38.2927 48.7177C38.1472 48.8632 37.9532 48.9602 37.7106 48.9602C37.4681 48.9602 37.2013 48.8389 37.0558 48.6692C36.8861 48.4751 36.7891 48.2084 36.7891 47.8931C36.7891 47.5778 36.8376 47.3838 36.9831 47.1655C37.1528 46.923 37.3954 46.8018 37.6864 46.8018C38.2442 46.8018 38.5595 47.2625 38.5595 47.7961C38.5595 48.3296 38.5595 47.8931 38.5595 47.9416M37.6864 46.9958C37.2741 46.9958 37.0073 47.3353 37.0073 47.7476H38.3654C38.3654 47.3596 38.1229 46.9958 37.7106 46.9958" fill="#BFBDBD"/>
<path d="M40.5716 48.8873V47.5534C40.5716 47.1896 40.4261 46.9956 40.0381 46.9956C39.6501 46.9956 39.3591 47.4321 39.3591 47.8687V48.8873H39.165V46.8501H39.3348V47.2139C39.4803 46.9471 39.7713 46.7773 40.0381 46.7773C40.4989 46.7773 40.7657 47.0684 40.7657 47.5291V48.863H40.5716V48.8873Z" fill="#BFBDBD"/>
<path d="M42.245 48.9359C42.0025 48.9359 41.7842 48.8389 41.6387 48.6934C41.4204 48.4751 41.3477 48.2084 41.3477 47.8688C41.3477 47.5293 41.4204 47.2383 41.6387 47.0443C41.7842 46.8988 41.9782 46.8018 42.245 46.8018C42.6573 46.8018 42.9725 47.0685 43.021 47.4808H42.8028C42.7543 47.1898 42.536 46.9958 42.2207 46.9958C41.9055 46.9958 41.8812 47.0685 41.7599 47.1655C41.5659 47.3596 41.5417 47.6021 41.5417 47.8688C41.5417 48.1356 41.5902 48.3781 41.7599 48.5721C41.8569 48.6934 42.0267 48.7419 42.2207 48.7419C42.536 48.7419 42.7543 48.5236 42.8028 48.2569H43.021C42.9725 48.6449 42.6573 48.9602 42.2207 48.9602" fill="#BFBDBD"/>
<path d="M45.2264 47.9173H43.6743C43.6743 48.1599 43.7471 48.3781 43.8926 48.5236C44.0138 48.6692 44.1594 48.7419 44.3776 48.7419C44.5959 48.7419 44.7172 48.6692 44.8142 48.5721C44.8869 48.4994 44.9354 48.4024 44.9597 48.2811H45.1779C45.1537 48.4509 45.0567 48.5964 44.9597 48.7177C44.8142 48.8632 44.6201 48.9602 44.3776 48.9602C44.1351 48.9602 43.8683 48.8389 43.7228 48.6692C43.5531 48.4751 43.4561 48.2084 43.4561 47.8931C43.4561 47.5778 43.5046 47.3838 43.6501 47.1655C43.8198 46.923 44.0624 46.8018 44.3534 46.8018C44.9112 46.8018 45.2264 47.2625 45.2264 47.7961C45.2264 48.3296 45.2264 47.8931 45.2264 47.9416M44.3534 46.9958C43.9411 46.9958 43.6743 47.3353 43.6743 47.7476H45.0324C45.0324 47.3596 44.7899 46.9958 44.3776 46.9958" fill="#BFBDBD"/>
<path d="M48.4519 48.6936C48.3063 48.8633 48.0638 48.9361 47.7971 48.9361C47.5303 48.9361 47.2878 48.8391 47.118 48.6693C46.9967 48.5481 46.9482 48.4268 46.9482 48.257H47.1665C47.1665 48.3783 47.2393 48.4753 47.312 48.5723C47.4333 48.6936 47.603 48.7421 47.7971 48.7421C47.9911 48.7421 48.1851 48.6936 48.2821 48.5966C48.3549 48.5238 48.4034 48.451 48.4034 48.3298C48.4034 48.1358 48.2821 47.9903 48.0396 47.966L47.6515 47.9175C47.4818 47.9175 47.312 47.8447 47.1908 47.7235C47.118 47.6265 47.0695 47.5295 47.0695 47.4082C47.0695 47.287 47.1423 47.1172 47.2393 47.0202C47.3848 46.8747 47.5788 46.8262 47.7971 46.8262C48.0153 46.8262 48.2821 46.8989 48.4034 47.0687C48.5004 47.1899 48.5489 47.3112 48.5489 47.4325H48.3549C48.3549 47.3597 48.3306 47.2627 48.2578 47.1899C48.1608 47.0687 48.0153 47.0202 47.7971 47.0202C47.5788 47.0202 47.5303 47.0444 47.4333 47.1172C47.3363 47.1899 47.2635 47.287 47.2635 47.4082C47.2635 47.578 47.3605 47.6992 47.6515 47.7477L48.0396 47.7962C48.4276 47.8448 48.5974 48.1115 48.5974 48.354C48.5974 48.5966 48.5489 48.6208 48.4519 48.7178" fill="#BFBDBD"/>
<path d="M50.6115 48.8873V48.5235C50.466 48.7903 50.175 48.9358 49.9082 48.9358C49.4474 48.9358 49.1807 48.6447 49.1807 48.184V46.8501H49.3747V48.184C49.3747 48.5477 49.5202 48.7417 49.9082 48.7417C50.2963 48.7417 50.5873 48.3052 50.5873 47.8687V46.8501H50.7813V48.8873H50.6115Z" fill="#BFBDBD"/>
<path d="M51.584 46.0015H51.875V46.2925H51.584V46.0015ZM51.6325 46.8503H51.8508V48.8874H51.6325V46.8503Z" fill="#BFBDBD"/>
<path d="M53.9831 48.6936C53.8376 48.8633 53.5951 48.9361 53.3283 48.9361C53.0615 48.9361 52.819 48.8391 52.6493 48.6693C52.528 48.5481 52.4795 48.4268 52.4795 48.257H52.6978C52.6978 48.3783 52.7705 48.4753 52.8433 48.5723C52.9645 48.6936 53.1343 48.7421 53.3283 48.7421C53.5223 48.7421 53.7163 48.6936 53.8133 48.5966C53.8861 48.5238 53.9346 48.451 53.9346 48.3298C53.9346 48.1358 53.8133 47.9903 53.5708 47.966L53.1828 47.9175C53.013 47.9175 52.8433 47.8447 52.722 47.7235C52.6493 47.6265 52.6008 47.5295 52.6008 47.4082C52.6008 47.287 52.6735 47.1172 52.7705 47.0202C52.916 46.8747 53.11 46.8262 53.3283 46.8262C53.5466 46.8262 53.8133 46.8989 53.9346 47.0687C54.0316 47.1899 54.0801 47.3112 54.0801 47.4325H53.8861C53.8861 47.3597 53.8618 47.2627 53.7891 47.1899C53.6921 47.0687 53.5466 47.0202 53.3283 47.0202C53.11 47.0202 53.0615 47.0444 52.9645 47.1172C52.8675 47.1899 52.7948 47.287 52.7948 47.4082C52.7948 47.578 52.8918 47.6992 53.1828 47.7477L53.5708 47.7962C53.9589 47.8448 54.1286 48.1115 54.1286 48.354C54.1286 48.5966 54.0801 48.6208 53.9831 48.7178" fill="#BFBDBD"/>
<path d="M56.07 48.6936C55.9245 48.8633 55.682 48.9361 55.4152 48.9361C55.1485 48.9361 54.9059 48.8391 54.7362 48.6693C54.6149 48.5481 54.5664 48.4268 54.5664 48.257H54.7847C54.7847 48.3783 54.8574 48.4753 54.9302 48.5723C55.0514 48.6936 55.2212 48.7421 55.4152 48.7421C55.6092 48.7421 55.8033 48.6936 55.9003 48.5966C55.9973 48.4996 56.0215 48.451 56.0215 48.3298C56.0215 48.1358 55.9003 47.9903 55.6577 47.966L55.2697 47.9175C55.0999 47.9175 54.9302 47.8447 54.8089 47.7235C54.7362 47.6265 54.6877 47.5295 54.6877 47.4082C54.6877 47.287 54.7604 47.1172 54.8574 47.0202C55.0029 46.8747 55.197 46.8262 55.4152 46.8262C55.6335 46.8262 55.9003 46.8989 56.0215 47.0687C56.1185 47.1899 56.167 47.3112 56.167 47.4325H55.973C55.973 47.3597 55.9488 47.2627 55.876 47.1899C55.779 47.0687 55.6335 47.0202 55.4152 47.0202C55.197 47.0202 55.1485 47.0444 55.0514 47.1172C54.9544 47.1899 54.8817 47.287 54.8817 47.4082C54.8817 47.578 54.9787 47.6992 55.2697 47.7477L55.6577 47.7962C56.0458 47.8448 56.2155 48.1115 56.2155 48.354C56.2155 48.5966 56.167 48.6208 56.07 48.7178" fill="#BFBDBD"/>
<path d="M58.4198 47.9173H56.8677C56.8677 48.1599 56.9404 48.3781 57.0859 48.5236C57.2072 48.6692 57.3527 48.7419 57.571 48.7419C57.7893 48.7419 57.9105 48.6692 58.0075 48.5721C58.0803 48.4994 58.1288 48.4024 58.153 48.2811H58.3713C58.347 48.4509 58.25 48.5964 58.153 48.7177C58.0075 48.8632 57.8135 48.9602 57.571 48.9602C57.3285 48.9602 57.0617 48.8389 56.9162 48.6692C56.7464 48.4751 56.6494 48.2084 56.6494 47.8931C56.6494 47.5778 56.6979 47.3838 56.8434 47.1655C57.0132 46.923 57.2557 46.8018 57.5467 46.8018C58.1045 46.8018 58.4198 47.2625 58.4198 47.7961C58.4198 48.3296 58.4198 47.8931 58.4198 47.9416M57.5467 46.9958C57.1345 46.9958 56.8677 47.3353 56.8677 47.7476H58.2258C58.2258 47.3596 57.9833 46.9958 57.571 46.9958" fill="#BFBDBD"/>
<path d="M61.7434 48.8874V48.5237C61.5979 48.7662 61.3068 48.9359 61.0401 48.9359C60.7733 48.9359 60.6278 48.8632 60.5065 48.7419C60.2883 48.5479 60.167 48.2084 60.167 47.8689C60.167 47.5293 60.264 47.2141 60.4823 46.9958C60.6278 46.8745 60.7975 46.7775 61.0401 46.7775C61.2826 46.7775 61.6221 46.9473 61.7191 47.1656V45.9287H61.9131V48.8632H61.7434V48.8874ZM61.4523 47.1413C61.3553 47.0443 61.2098 46.9715 61.0158 46.9715C60.8218 46.9715 60.6763 47.0443 60.5793 47.1413C60.4095 47.3111 60.361 47.5778 60.361 47.8446C60.361 48.1114 60.4338 48.4024 60.6278 48.5722C60.7248 48.6692 60.8703 48.7177 61.0401 48.7177C61.2098 48.7177 61.3553 48.6449 61.4523 48.5479C61.6464 48.3781 61.7191 48.1114 61.7191 47.8446C61.7191 47.5778 61.6464 47.3111 61.4523 47.1413Z" fill="#BFBDBD"/>
<path d="M64.3134 47.9173H62.7612C62.7612 48.1599 62.834 48.3781 62.9795 48.5236C63.1008 48.6692 63.2463 48.7419 63.4645 48.7419C63.6828 48.7419 63.8041 48.6692 63.9011 48.5721C63.9738 48.4994 64.0223 48.4024 64.0466 48.2811H64.2649C64.2406 48.4509 64.1436 48.5964 64.0466 48.7177C63.9011 48.8632 63.7071 48.9602 63.4645 48.9602C63.222 48.9602 62.9553 48.8389 62.8097 48.6692C62.64 48.4751 62.543 48.2084 62.543 47.8931C62.543 47.5778 62.5915 47.3838 62.737 47.1655C62.9067 46.923 63.1493 46.8018 63.4403 46.8018C63.9981 46.8018 64.3134 47.2625 64.3134 47.7961C64.3134 48.3296 64.3134 47.8931 64.3134 47.9416M63.4403 46.9958C63.028 46.9958 62.7612 47.3353 62.7612 47.7476H64.1193C64.1193 47.3596 63.8768 46.9958 63.4645 46.9958" fill="#BFBDBD"/>
<path d="M66.2312 48.6936C66.0856 48.8633 65.8431 48.9361 65.5764 48.9361C65.3096 48.9361 65.0671 48.8391 64.8973 48.6693C64.776 48.5481 64.7275 48.4268 64.7275 48.257H64.9458C64.9458 48.3783 65.0186 48.4753 65.0913 48.5723C65.2126 48.6936 65.3823 48.7421 65.5764 48.7421C65.7704 48.7421 65.9644 48.6936 66.0614 48.5966C66.1341 48.5238 66.1827 48.451 66.1827 48.3298C66.1827 48.1358 66.0614 47.9903 65.8189 47.966L65.4308 47.9175C65.2611 47.9175 65.0913 47.8447 64.9701 47.7235C64.8973 47.6265 64.8488 47.5295 64.8488 47.4082C64.8488 47.287 64.9215 47.1172 65.0186 47.0202C65.1641 46.8747 65.3581 46.8262 65.5764 46.8262C65.7946 46.8262 66.0614 46.8989 66.1827 47.0687C66.2797 47.1899 66.3282 47.3112 66.3282 47.4325H66.1341C66.1341 47.3597 66.1099 47.2627 66.0371 47.1899C65.9401 47.0687 65.7946 47.0202 65.5764 47.0202C65.3581 47.0202 65.3096 47.0444 65.2126 47.1172C65.1156 47.1899 65.0428 47.287 65.0428 47.4082C65.0428 47.578 65.1398 47.6992 65.4308 47.7477L65.8189 47.7962C66.2069 47.8448 66.3767 48.1115 66.3767 48.354C66.3767 48.5966 66.3282 48.6208 66.2312 48.7178" fill="#BFBDBD"/>
<path d="M69.6501 48.6936C69.5046 48.8633 69.2621 48.9361 68.9953 48.9361C68.7285 48.9361 68.486 48.8391 68.3162 48.6693C68.195 48.5481 68.1465 48.4268 68.1465 48.257H68.3647C68.3647 48.3783 68.4375 48.4753 68.5103 48.5723C68.6315 48.6936 68.8013 48.7421 68.9953 48.7421C69.1893 48.7421 69.3833 48.6936 69.4803 48.5966C69.5531 48.5238 69.6016 48.451 69.6016 48.3298C69.6016 48.1358 69.4803 47.9903 69.2378 47.966L68.8498 47.9175C68.68 47.9175 68.5103 47.8447 68.389 47.7235C68.3162 47.6265 68.2677 47.5295 68.2677 47.4082C68.2677 47.287 68.3405 47.1172 68.4375 47.0202C68.583 46.8747 68.777 46.8262 68.9953 46.8262C69.2136 46.8262 69.4803 46.8989 69.6016 47.0687C69.6986 47.1899 69.7471 47.3112 69.7471 47.4325H69.5531C69.5531 47.3597 69.5288 47.2627 69.4561 47.1899C69.3591 47.0687 69.2136 47.0202 68.9953 47.0202C68.777 47.0202 68.7285 47.0444 68.6315 47.1172C68.5345 47.1899 68.4618 47.287 68.4618 47.4082C68.4618 47.578 68.5588 47.6992 68.8498 47.7477L69.2378 47.7962C69.6258 47.8448 69.7956 48.1115 69.7956 48.354C69.7956 48.5966 69.7471 48.6208 69.6501 48.7178" fill="#BFBDBD"/>
<path d="M72.0038 47.9173H70.4517C70.4517 48.1599 70.5244 48.3781 70.6699 48.5236C70.7912 48.6692 70.9367 48.7419 71.155 48.7419C71.3732 48.7419 71.4945 48.6692 71.5915 48.5721C71.6643 48.4994 71.7128 48.4024 71.737 48.2811H71.9553C71.931 48.4509 71.834 48.5964 71.737 48.7177C71.5915 48.8632 71.3975 48.9602 71.155 48.9602C70.9125 48.9602 70.6457 48.8389 70.5002 48.6692C70.3304 48.4751 70.2334 48.2084 70.2334 47.8931C70.2334 47.5778 70.2819 47.3838 70.4274 47.1655C70.5972 46.923 70.8397 46.8018 71.1307 46.8018C71.6885 46.8018 72.0038 47.2625 72.0038 47.7961C72.0038 48.3296 72.0038 47.8931 72.0038 47.9416M71.1307 46.9958C70.7184 46.9958 70.4517 47.3353 70.4517 47.7476H71.8098C71.8098 47.3596 71.5673 46.9958 71.155 46.9958" fill="#BFBDBD"/>
<path d="M73.4582 47.02C72.9489 47.02 72.8034 47.4808 72.8034 47.8931V48.8632H72.6094V46.826H72.7791V47.2383C72.9004 46.9473 73.1672 46.8018 73.4582 46.8018C73.7492 46.8018 73.6037 46.8018 73.6522 46.8018V46.9958C73.5794 46.9958 73.5067 46.9958 73.4582 46.9958" fill="#BFBDBD"/>
<path d="M74.8408 48.8873H74.6226L73.8223 46.8501H74.0405L74.7438 48.5962L75.3986 46.8501H75.5926L74.8408 48.8873Z" fill="#BFBDBD"/>
<path d="M76.0527 46.0015H76.3438V46.2925H76.0527V46.0015ZM76.077 46.8503H76.2953V48.8874H76.077V46.8503Z" fill="#BFBDBD"/>
<path d="M77.8221 48.9359C77.5796 48.9359 77.3613 48.8389 77.2158 48.6934C76.9976 48.4751 76.9248 48.2084 76.9248 47.8688C76.9248 47.5293 76.9976 47.2383 77.2158 47.0443C77.3613 46.8988 77.5554 46.8018 77.8221 46.8018C78.2344 46.8018 78.5497 47.0685 78.5982 47.4808H78.3799C78.3314 47.1898 78.1131 46.9958 77.7979 46.9958C77.4826 46.9958 77.4583 47.0685 77.3371 47.1655C77.1431 47.3596 77.1188 47.6021 77.1188 47.8688C77.1188 48.1356 77.1673 48.3781 77.3371 48.5721C77.4341 48.6934 77.6039 48.7419 77.7979 48.7419C78.1131 48.7419 78.3314 48.5236 78.3799 48.2569H78.5982C78.5497 48.6449 78.2344 48.9602 77.7979 48.9602" fill="#BFBDBD"/>
<path d="M80.8065 47.9173H79.2544C79.2544 48.1599 79.3272 48.3781 79.4727 48.5236C79.5939 48.6692 79.7394 48.7419 79.9577 48.7419C80.176 48.7419 80.2972 48.6692 80.3942 48.5721C80.467 48.4994 80.5155 48.4024 80.5397 48.2811H80.758C80.7338 48.4509 80.6368 48.5964 80.5397 48.7177C80.3942 48.8632 80.2002 48.9602 79.9577 48.9602C79.7152 48.9602 79.4484 48.8389 79.3029 48.6692C79.1331 48.4751 79.0361 48.2084 79.0361 47.8931C79.0361 47.5778 79.0846 47.3838 79.2301 47.1655C79.3999 46.923 79.6424 46.8018 79.9334 46.8018C80.4912 46.8018 80.8065 47.2625 80.8065 47.7961C80.8065 48.3296 80.8065 47.8931 80.8065 47.9416M79.9334 46.9958C79.5212 46.9958 79.2544 47.3353 79.2544 47.7476H80.6125C80.6125 47.3596 80.37 46.9958 79.9577 46.9958" fill="#BFBDBD"/>
<path d="M82.7214 48.6936C82.5759 48.8633 82.3334 48.9361 82.0666 48.9361C81.7998 48.9361 81.5573 48.8391 81.3875 48.6693C81.2663 48.5481 81.2178 48.4268 81.2178 48.257H81.436C81.436 48.3783 81.5088 48.4753 81.5816 48.5723C81.7028 48.6936 81.8726 48.7421 82.0666 48.7421C82.2606 48.7421 82.4546 48.6936 82.5516 48.5966C82.6244 48.5238 82.6729 48.451 82.6729 48.3298C82.6729 48.1358 82.5516 47.9903 82.3091 47.966L81.9211 47.9175C81.7513 47.9175 81.5816 47.8447 81.4603 47.7235C81.3875 47.6265 81.339 47.5295 81.339 47.4082C81.339 47.287 81.4118 47.1172 81.5088 47.0202C81.6543 46.8747 81.8483 46.8262 82.0666 46.8262C82.2849 46.8262 82.5516 46.8989 82.6729 47.0687C82.7699 47.1899 82.8184 47.3112 82.8184 47.4325H82.6244C82.6244 47.3597 82.5759 47.2627 82.5274 47.1899C82.4304 47.0687 82.2849 47.0202 82.0666 47.0202C81.8483 47.0202 81.7998 47.0444 81.7028 47.1172C81.6058 47.1899 81.533 47.287 81.533 47.4082C81.533 47.578 81.6301 47.6992 81.9211 47.7477L82.3091 47.7962C82.6971 47.8448 82.8669 48.1115 82.8669 48.354C82.8669 48.5966 82.8184 48.6208 82.7214 48.7178" fill="#BFBDBD"/>
<path d="M86.1897 48.8874V48.5237C86.0441 48.7662 85.7531 48.9359 85.4864 48.9359C85.2196 48.9359 85.0741 48.8632 84.9528 48.7419C84.7345 48.5479 84.6133 48.2084 84.6133 47.8689C84.6133 47.5293 84.7103 47.2141 84.9286 46.9958C85.0741 46.8745 85.2438 46.7775 85.4864 46.7775C85.7289 46.7775 86.0684 46.9473 86.1654 47.1656V45.9287H86.3594V48.8632H86.1897V48.8874ZM85.9229 47.1413C85.8259 47.0443 85.6804 46.9715 85.4864 46.9715C85.2923 46.9715 85.1468 47.0443 85.0498 47.1413C84.88 47.3111 84.8315 47.5778 84.8315 47.8446C84.8315 48.1114 84.9043 48.4024 85.0983 48.5722C85.1953 48.6692 85.3408 48.7177 85.5106 48.7177C85.6804 48.7177 85.8259 48.6449 85.9229 48.5479C86.1169 48.3781 86.1897 48.1114 86.1897 47.8446C86.1897 47.5778 86.1169 47.3111 85.9229 47.1413Z" fill="#BFBDBD"/>
<path d="M88.7616 47.9173H87.2095C87.2095 48.1599 87.2822 48.3781 87.4277 48.5236C87.549 48.6692 87.6945 48.7419 87.9128 48.7419C88.1311 48.7419 88.2523 48.6692 88.3493 48.5721C88.4221 48.4994 88.4706 48.4024 88.4948 48.2811H88.7131C88.6888 48.4509 88.5918 48.5964 88.4948 48.7177C88.3493 48.8632 88.1553 48.9602 87.9128 48.9602C87.6703 48.9602 87.4035 48.8389 87.258 48.6692C87.0882 48.4751 86.9912 48.2084 86.9912 47.8931C86.9912 47.5778 87.0397 47.3838 87.1852 47.1655C87.355 46.923 87.5975 46.8018 87.8885 46.8018C88.4463 46.8018 88.7616 47.2625 88.7616 47.7961C88.7616 48.3296 88.7616 47.8931 88.7616 47.9416M87.9128 46.9958C87.5005 46.9958 87.2337 47.3353 87.2337 47.7476H88.5918C88.5918 47.3596 88.3493 46.9958 87.937 46.9958" fill="#BFBDBD"/>
<path d="M91.089 48.9117C90.8223 48.9117 90.6768 48.7662 90.6768 48.4752V45.9287H90.8708V48.4509C90.8708 48.5964 90.9193 48.6934 91.089 48.6934C91.2588 48.6934 91.2103 48.6934 91.2588 48.6934V48.8632C91.2103 48.8632 91.1618 48.8874 91.0648 48.8874" fill="#BFBDBD"/>
<path d="M91.5483 46.8501L91.4756 46.7289C91.6453 46.6318 91.6939 46.5348 91.6939 46.3408H91.4756V45.9771H91.8394V46.3408C91.8394 46.5833 91.7424 46.7289 91.5241 46.8259" fill="#BFBDBD"/>
<path d="M93.8536 48.8874C93.611 48.8874 93.5383 48.6934 93.5383 48.4994C93.417 48.7904 93.126 48.9359 92.8107 48.9359C92.4955 48.9359 92.1074 48.6934 92.1074 48.3054C92.1074 47.9173 92.3984 47.7233 92.7865 47.6991L93.5383 47.6506V47.4566C93.5383 47.117 93.32 46.9958 93.0047 46.9958C92.6895 46.9958 92.4469 47.1413 92.4227 47.4323H92.2287C92.2529 47.02 92.5682 46.8018 93.029 46.8018C93.4898 46.8018 93.611 46.8988 93.708 47.1655C93.7566 47.2868 93.7565 47.4323 93.7565 47.5536V48.4751C93.7565 48.6207 93.7565 48.6934 93.9263 48.6934C94.0961 48.6934 93.9748 48.6934 93.9748 48.6934V48.8632C93.9263 48.8632 93.9263 48.8632 93.8778 48.8632M93.514 47.8446L92.7865 47.8931C92.4954 47.8931 92.3014 48.0629 92.3014 48.3296C92.3014 48.5964 92.5197 48.7662 92.8107 48.7662C93.32 48.7662 93.5383 48.3539 93.5383 47.9658V47.8688L93.514 47.8446Z" fill="#BFBDBD"/>
<path d="M96.0844 49.5665C95.9146 49.7362 95.5993 49.809 95.284 49.809C94.9688 49.809 94.702 49.7362 94.5322 49.5665C94.4352 49.4695 94.3867 49.3482 94.3867 49.2027C94.3867 49.0572 94.508 48.8147 94.702 48.7177C94.5565 48.6692 94.4352 48.5236 94.4352 48.3781C94.4352 48.2326 94.5322 48.0871 94.6777 47.9901C94.5565 47.8688 94.4837 47.6991 94.4837 47.4808C94.4837 47.0443 94.8233 46.7775 95.2355 46.7775C95.6478 46.7775 95.5751 46.826 95.7206 46.923C95.7691 46.7533 95.9388 46.6562 96.1329 46.6562C96.3269 46.6562 96.1814 46.6562 96.2056 46.6562V46.826C96.1814 46.826 96.1571 46.826 96.1329 46.826C95.9873 46.826 95.8903 46.8988 95.8418 47.0443C95.9388 47.1655 96.0116 47.3111 96.0116 47.5051C96.0116 47.9416 95.6721 48.2084 95.2355 48.2084C94.799 48.2084 94.9445 48.1841 94.8233 48.1114C94.7262 48.1599 94.6292 48.2326 94.6292 48.3539C94.6292 48.4751 94.702 48.5236 94.7748 48.5479C94.8475 48.5721 94.9688 48.5721 95.0415 48.5721H95.4781C95.7448 48.5721 95.9388 48.6449 96.0844 48.7662C96.1814 48.8632 96.2541 48.9844 96.2541 49.1542C96.2541 49.324 96.1814 49.4452 96.1086 49.5422M95.9388 48.9359C95.8418 48.8389 95.6963 48.7904 95.4538 48.7904H94.9203C94.7505 48.8389 94.5807 48.9602 94.5807 49.2027C94.5807 49.4452 94.6292 49.3967 94.702 49.4695C94.8475 49.615 95.09 49.6392 95.3083 49.6392C95.5266 49.6392 95.7933 49.615 95.9631 49.4695C96.0358 49.3967 96.0601 49.324 96.0601 49.2027C96.0601 49.0814 96.0116 49.0087 95.9631 48.9602M95.2113 46.9715C94.896 46.9715 94.6535 47.1655 94.6535 47.5051C94.6535 47.8446 94.896 48.0386 95.2113 48.0386C95.5266 48.0386 95.7691 47.8446 95.7691 47.5051C95.7691 47.1655 95.5266 46.9715 95.2113 46.9715Z" fill="#BFBDBD"/>
<path d="M97.5627 47.02C97.0534 47.02 96.9079 47.4808 96.9079 47.8931V48.8632H96.7139V46.826H96.8836V47.2383C97.0049 46.9473 97.2717 46.8018 97.5627 46.8018C97.8537 46.8018 97.7082 46.8018 97.7567 46.8018V46.9958C97.6839 46.9958 97.6112 46.9958 97.5627 46.9958" fill="#BFBDBD"/>
<path d="M98.2432 46.0015H98.5342V46.2925H98.2432V46.0015ZM98.2917 46.8503H98.5099V48.8874H98.2917V46.8503Z" fill="#BFBDBD"/>
<path d="M100.036 48.9359C99.7935 48.9359 99.5752 48.8389 99.4297 48.6934C99.2114 48.4751 99.1387 48.2084 99.1387 47.8688C99.1387 47.5293 99.2114 47.2383 99.4297 47.0443C99.5752 46.8988 99.7692 46.8018 100.036 46.8018C100.448 46.8018 100.764 47.0685 100.812 47.4808H100.594C100.545 47.1898 100.327 46.9958 100.012 46.9958C99.6965 46.9958 99.6722 47.0685 99.551 47.1655C99.3569 47.3596 99.3327 47.6021 99.3327 47.8688C99.3327 48.1356 99.3812 48.3781 99.551 48.5721C99.648 48.6934 99.8177 48.7419 100.012 48.7419C100.327 48.7419 100.545 48.5236 100.594 48.2569H100.812C100.764 48.6449 100.448 48.9602 100.012 48.9602" fill="#BFBDBD"/>
<path d="M102.802 48.8873V48.5235C102.656 48.7903 102.365 48.9358 102.099 48.9358C101.638 48.9358 101.371 48.6447 101.371 48.184V46.8501H101.565V48.184C101.565 48.5477 101.711 48.7417 102.099 48.7417C102.487 48.7417 102.778 48.3052 102.778 47.8687V46.8501H102.972V48.8873H102.802Z" fill="#BFBDBD"/>
<path d="M104.185 48.9117C103.918 48.9117 103.772 48.7662 103.772 48.4752V45.9287H103.966V48.4509C103.966 48.5964 104.015 48.6934 104.185 48.6934C104.355 48.6934 104.306 48.6934 104.355 48.6934V48.8632C104.306 48.8632 104.257 48.8874 104.16 48.8874" fill="#BFBDBD"/>
<path d="M105.543 48.9112C105.155 48.9112 105.01 48.6687 105.01 48.3049V47.0196H104.598V46.8255H105.01V46.2677L105.204 46.2192V46.8255H105.835V47.0196H105.204V48.3049C105.204 48.5474 105.277 48.7172 105.543 48.7172C105.81 48.7172 105.762 48.7172 105.859 48.6929V48.8627C105.737 48.8869 105.64 48.9112 105.519 48.9112" fill="#BFBDBD"/>
<path d="M107.823 48.8873V48.5235C107.678 48.7903 107.387 48.9358 107.12 48.9358C106.659 48.9358 106.393 48.6447 106.393 48.184V46.8501H106.587V48.184C106.587 48.5477 106.732 48.7417 107.12 48.7417C107.508 48.7417 107.799 48.3052 107.799 47.8687V46.8501H107.993V48.8873H107.823Z" fill="#BFBDBD"/>
<path d="M109.665 47.02C109.156 47.02 109.01 47.4808 109.01 47.8931V48.8632H108.816V46.826H108.986V47.2383C109.107 46.9473 109.374 46.8018 109.665 46.8018C109.956 46.8018 109.811 46.8018 109.859 46.8018V46.9958C109.786 46.9958 109.714 46.9958 109.665 46.9958" fill="#BFBDBD"/>
<path d="M111.895 47.9173H110.343C110.343 48.1599 110.416 48.3781 110.562 48.5236C110.683 48.6692 110.828 48.7419 111.047 48.7419C111.265 48.7419 111.386 48.6692 111.483 48.5721C111.556 48.4994 111.604 48.4024 111.629 48.2811H111.847C111.823 48.4509 111.726 48.5964 111.629 48.7177C111.483 48.8632 111.289 48.9602 111.047 48.9602C110.804 48.9602 110.537 48.8389 110.392 48.6692C110.222 48.4751 110.125 48.2084 110.125 47.8931C110.125 47.5778 110.174 47.3838 110.319 47.1655C110.489 46.923 110.731 46.8018 111.022 46.8018C111.58 46.8018 111.895 47.2625 111.895 47.7961C111.895 48.3296 111.895 47.8931 111.895 47.9416M111.022 46.9958C110.61 46.9958 110.343 47.3353 110.343 47.7476H111.701C111.701 47.3596 111.459 46.9958 111.047 46.9958" fill="#BFBDBD"/>
<path d="M114.54 48.9359C114.297 48.9359 114.079 48.8389 113.934 48.6934C113.715 48.4751 113.643 48.2084 113.643 47.8688C113.643 47.5293 113.715 47.2383 113.934 47.0443C114.079 46.8988 114.273 46.8018 114.54 46.8018C114.952 46.8018 115.267 47.0685 115.316 47.4808H115.098C115.049 47.1898 114.831 46.9958 114.516 46.9958C114.2 46.9958 114.176 47.0685 114.055 47.1655C113.861 47.3596 113.837 47.6021 113.837 47.8688C113.837 48.1356 113.885 48.3781 114.055 48.5721C114.152 48.6934 114.322 48.7419 114.516 48.7419C114.831 48.7419 115.049 48.5236 115.098 48.2569H115.316C115.267 48.6449 114.952 48.9602 114.516 48.9602" fill="#BFBDBD"/>
<path d="M117.499 48.8874C117.257 48.8874 117.184 48.6934 117.184 48.4994C117.063 48.7904 116.772 48.9359 116.456 48.9359C116.141 48.9359 115.753 48.6934 115.753 48.3054C115.753 47.9173 116.044 47.7233 116.432 47.6991L117.184 47.6506V47.4566C117.184 47.117 116.966 46.9958 116.65 46.9958C116.335 46.9958 116.092 47.1413 116.068 47.4323H115.874C115.898 47.02 116.238 46.8018 116.674 46.8018C117.111 46.8018 117.257 46.8988 117.354 47.1655C117.402 47.2868 117.402 47.4323 117.402 47.5536V48.4751C117.402 48.6207 117.402 48.6934 117.572 48.6934C117.742 48.6934 117.62 48.6934 117.62 48.6934V48.8632C117.572 48.8632 117.572 48.8632 117.523 48.8632M117.184 47.8446L116.456 47.8931C116.165 47.8931 115.971 48.0629 115.971 48.3296C115.971 48.5964 116.189 48.7662 116.48 48.7662C116.99 48.7662 117.208 48.3539 117.208 47.9658V47.8688L117.184 47.8446Z" fill="#BFBDBD"/>
<path d="M119.609 48.8873V47.5534C119.609 47.1896 119.463 46.9956 119.075 46.9956C118.687 46.9956 118.396 47.4321 118.396 47.8687V48.8873H118.202V46.8501H118.372V47.2139C118.517 46.9471 118.808 46.7773 119.075 46.7773C119.536 46.7773 119.803 47.0684 119.803 47.5291V48.863H119.609V48.8873Z" fill="#BFBDBD"/>
<path d="M121.21 48.9112C120.822 48.9112 120.677 48.6687 120.677 48.3049V47.0196H120.265V46.8255H120.677V46.2677L120.871 46.2192V46.8255H121.501V47.0196H120.871V48.3049C120.871 48.5474 120.944 48.7172 121.21 48.7172C121.477 48.7172 121.429 48.7172 121.526 48.6929V48.8627C121.404 48.8869 121.307 48.9112 121.186 48.9112" fill="#BFBDBD"/>
<path d="M123.342 48.6934C123.196 48.8389 123.002 48.9359 122.735 48.9359C122.468 48.9359 122.274 48.8389 122.129 48.6934C121.911 48.4751 121.838 48.2084 121.838 47.8688C121.838 47.5293 121.911 47.2625 122.129 47.0443C122.274 46.8988 122.468 46.8018 122.735 46.8018C123.002 46.8018 123.196 46.8988 123.342 47.0443C123.56 47.2625 123.633 47.5293 123.633 47.8688C123.633 48.2084 123.56 48.4751 123.342 48.6934ZM123.196 47.1655C123.099 47.0443 122.953 46.9958 122.759 46.9958C122.565 46.9958 122.42 47.0685 122.323 47.1655C122.129 47.3596 122.105 47.6021 122.105 47.8688C122.105 48.1356 122.153 48.3781 122.323 48.5721C122.42 48.6934 122.565 48.7419 122.759 48.7419C122.953 48.7419 123.099 48.6692 123.196 48.5721C123.39 48.3781 123.414 48.1356 123.414 47.8688C123.414 47.6021 123.366 47.3596 123.196 47.1655Z" fill="#BFBDBD"/>
<path d="M125.673 48.8873V47.5534C125.673 47.1896 125.528 46.9956 125.14 46.9956C124.752 46.9956 124.461 47.4321 124.461 47.8687V48.8873H124.267V46.8501H124.436V47.2139C124.582 46.9471 124.873 46.7773 125.14 46.7773C125.6 46.7773 125.867 47.0684 125.867 47.5291V48.863H125.673V48.8873Z" fill="#BFBDBD"/>
<path d="M128.241 48.8874C127.999 48.8874 127.926 48.6934 127.926 48.4994C127.805 48.7904 127.514 48.9359 127.198 48.9359C126.883 48.9359 126.495 48.6934 126.495 48.3054C126.495 47.9173 126.786 47.7233 127.174 47.6991L127.926 47.6506V47.4566C127.926 47.117 127.708 46.9958 127.392 46.9958C127.077 46.9958 126.835 47.1413 126.81 47.4323H126.616C126.641 47.02 126.98 46.8018 127.417 46.8018C127.853 46.8018 127.999 46.8988 128.096 47.1655C128.144 47.2868 128.144 47.4323 128.144 47.5536V48.4751C128.144 48.6207 128.144 48.6934 128.314 48.6934C128.484 48.6934 128.338 48.6934 128.363 48.6934V48.8632C128.314 48.8632 128.314 48.8632 128.266 48.8632M127.902 47.8446L127.174 47.8931C126.883 47.8931 126.689 48.0629 126.689 48.3296C126.689 48.5964 126.907 48.7662 127.198 48.7662C127.708 48.7662 127.926 48.3539 127.926 47.9658V47.8688L127.902 47.8446Z" fill="#BFBDBD"/>
<path d="M130.302 48.8873V48.5235C130.156 48.7903 129.865 48.9358 129.599 48.9358C129.138 48.9358 128.871 48.6447 128.871 48.184V46.8501H129.065V48.184C129.065 48.5477 129.211 48.7417 129.599 48.7417C129.987 48.7417 130.278 48.3052 130.278 47.8687V46.8501H130.472V48.8873H130.302Z" fill="#BFBDBD"/>
<path d="M132.462 48.8876L131.831 47.966L131.201 48.8876H130.958L131.71 47.8205L130.982 46.8262H131.225L131.855 47.6992L132.462 46.8262H132.704L131.977 47.8205L132.704 48.8876H132.462Z" fill="#BFBDBD"/>
<path d="M25.6577 53.8354C25.391 53.8354 25.0999 53.7141 24.9059 53.5201C24.5907 53.2048 24.5664 52.744 24.5664 52.3317C24.5664 51.9195 24.5907 51.4587 24.9059 51.1434C25.0999 50.9494 25.391 50.8281 25.6577 50.8281C26.2398 50.8281 26.6278 51.2404 26.6763 51.7739H26.4581C26.4095 51.3374 26.1185 51.0464 25.6577 51.0464C25.197 51.0464 25.197 51.1434 25.0514 51.2889C24.7847 51.5557 24.7847 51.9922 24.7847 52.3317C24.7847 52.6713 24.7847 53.1078 25.0514 53.3746C25.2212 53.5443 25.4152 53.6171 25.6577 53.6171C26.1185 53.6171 26.4338 53.3261 26.4581 52.8895H26.6763C26.6278 53.4231 26.2155 53.8354 25.6577 53.8354Z" fill="#BFBDBD"/>
<path d="M28.5661 53.5928C28.4206 53.7383 28.2266 53.8353 27.9598 53.8353C27.693 53.8353 27.499 53.7383 27.3535 53.5928C27.1353 53.3746 27.0625 53.1078 27.0625 52.7683C27.0625 52.4287 27.1353 52.162 27.3535 51.9437C27.499 51.7982 27.693 51.7012 27.9598 51.7012C28.2266 51.7012 28.4206 51.7982 28.5661 51.9437C28.7844 52.162 28.8571 52.4287 28.8571 52.7683C28.8571 53.1078 28.7844 53.3746 28.5661 53.5928ZM28.4206 52.065C28.3236 51.9437 28.1781 51.8952 27.9598 51.8952C27.7416 51.8952 27.6203 51.9679 27.5233 52.065C27.3293 52.259 27.305 52.5015 27.305 52.7683C27.305 53.035 27.3535 53.2775 27.5233 53.4716C27.6203 53.5928 27.7658 53.6413 27.9598 53.6413C28.1538 53.6413 28.2993 53.5686 28.4206 53.4716C28.6146 53.2775 28.6389 53.035 28.6389 52.7683C28.6389 52.5015 28.5904 52.259 28.4206 52.065Z" fill="#BFBDBD"/>
<path d="M30.8959 53.7623V52.4284C30.8959 52.0646 30.7504 51.8706 30.3623 51.8706C29.9743 51.8706 29.6833 52.3071 29.6833 52.7437V53.7623H29.4893V51.7251H29.659V52.0889C29.8045 51.8221 30.0956 51.6523 30.3623 51.6523C30.8231 51.6523 31.0899 51.9434 31.0899 52.4042V53.738H30.8959V53.7623Z" fill="#BFBDBD"/>
<path d="M32.5939 50.9976C32.3272 50.9976 32.2059 51.1431 32.2059 51.3856V51.7251H32.8365V51.9191H32.2059V53.7623H32.0119V51.9191H31.5996V51.7251H32.0119V51.3613C32.0119 51.0461 32.2059 50.7793 32.5939 50.7793C32.982 50.7793 32.8122 50.7793 32.9092 50.8035V50.9976C32.8365 50.9976 32.7394 50.9733 32.6182 50.9733" fill="#BFBDBD"/>
<path d="M34.8466 52.7923H33.2944C33.2944 53.0349 33.3672 53.2531 33.5127 53.3986C33.634 53.5442 33.7795 53.6169 33.9977 53.6169C34.216 53.6169 34.3373 53.5442 34.4343 53.4471C34.507 53.3744 34.5555 53.2774 34.5798 53.1561H34.7981C34.7738 53.3259 34.6768 53.4714 34.5798 53.5927C34.4343 53.7382 34.2403 53.8352 33.9977 53.8352C33.7552 53.8352 33.4885 53.7139 33.3429 53.5442C33.1732 53.3501 33.0762 53.0834 33.0762 52.7681C33.0762 52.4528 33.1247 52.2588 33.2702 52.0405C33.4399 51.798 33.6825 51.6768 33.9735 51.6768C34.5313 51.6768 34.8466 52.1375 34.8466 52.6711C34.8466 53.2046 34.8466 52.7681 34.8466 52.8166M33.9735 51.8708C33.5612 51.8708 33.2944 52.2103 33.2944 52.6226H34.6525C34.6525 52.2345 34.41 51.8708 33.9977 51.8708" fill="#BFBDBD"/>
<path d="M36.3049 51.9194C35.7956 51.9194 35.6501 52.3802 35.6501 52.7925V53.7626H35.4561V51.7254H35.6258V52.1377C35.7471 51.8467 36.0138 51.7012 36.3049 51.7012C36.5959 51.7012 36.4504 51.7012 36.4989 51.7012V51.8952C36.4261 51.8952 36.3534 51.8952 36.3049 51.8952" fill="#BFBDBD"/>
<path d="M38.5595 52.7923H37.0073C37.0073 53.0349 37.0801 53.2531 37.2256 53.3986C37.3469 53.5442 37.4924 53.6169 37.7106 53.6169C37.9289 53.6169 38.0502 53.5442 38.1472 53.4471C38.2199 53.3744 38.2684 53.2774 38.2927 53.1561H38.5109C38.4867 53.3259 38.3897 53.4714 38.2927 53.5927C38.1472 53.7382 37.9532 53.8352 37.7106 53.8352C37.4681 53.8352 37.2013 53.7139 37.0558 53.5442C36.8861 53.3501 36.7891 53.0834 36.7891 52.7681C36.7891 52.4528 36.8376 52.2588 36.9831 52.0405C37.1528 51.798 37.3954 51.6768 37.6864 51.6768C38.2442 51.6768 38.5595 52.1375 38.5595 52.6711C38.5595 53.2046 38.5595 52.7681 38.5595 52.8166M37.6864 51.8708C37.2741 51.8708 37.0073 52.2103 37.0073 52.6226H38.3654C38.3654 52.2345 38.1229 51.8708 37.7106 51.8708" fill="#BFBDBD"/>
<path d="M40.5716 53.7623V52.4284C40.5716 52.0646 40.4261 51.8706 40.0381 51.8706C39.6501 51.8706 39.3591 52.3071 39.3591 52.7437V53.7623H39.165V51.7251H39.3348V52.0889C39.4803 51.8221 39.7713 51.6523 40.0381 51.6523C40.4989 51.6523 40.7657 51.9434 40.7657 52.4042V53.738H40.5716V53.7623Z" fill="#BFBDBD"/>
<path d="M41.3955 53.7623V53.544L42.7051 51.9191H41.3955V51.7251H42.9234V51.9676L41.6138 53.5682H42.9234V53.7623H41.3955Z" fill="#BFBDBD"/>
<path d="M45.1299 53.7868C44.8874 53.7868 44.8146 53.5928 44.8146 53.3988C44.6934 53.6898 44.4024 53.8353 44.0871 53.8353C43.7718 53.8353 43.3838 53.5928 43.3838 53.2048C43.3838 52.8168 43.6748 52.6227 44.0628 52.5985L44.8146 52.55V52.356C44.8146 52.0164 44.5964 51.8952 44.2811 51.8952C43.9658 51.8952 43.7233 52.0407 43.6991 52.3317H43.505C43.5293 51.9194 43.8446 51.7012 44.3054 51.7012C44.7661 51.7012 44.8874 51.7982 44.9844 52.065C45.0329 52.1862 45.0329 52.3317 45.0329 52.453V53.3746C45.0329 53.5201 45.0329 53.5928 45.2027 53.5928C45.3724 53.5928 45.2512 53.5928 45.2512 53.5928V53.7626C45.2027 53.7626 45.2027 53.7626 45.1542 53.7626M44.8146 52.7198L44.0871 52.7683C43.7961 52.7683 43.6021 52.938 43.6021 53.2048C43.6021 53.4716 43.8203 53.6413 44.1113 53.6413C44.6206 53.6413 44.8389 53.229 44.8389 52.841V52.744L44.8146 52.7198Z" fill="#BFBDBD"/>
<path d="M48.2829 53.5925C48.1374 53.7623 47.8949 53.835 47.6281 53.835C47.3613 53.835 47.1188 53.738 46.9491 53.5682C46.8278 53.447 46.7793 53.3257 46.7793 53.156H46.9976C46.9976 53.2772 47.0703 53.3742 47.1431 53.4712C47.2643 53.5925 47.4341 53.641 47.6281 53.641C47.8221 53.641 48.0161 53.5925 48.1132 53.4955C48.1859 53.4227 48.2344 53.35 48.2344 53.2287C48.2344 53.0347 48.1132 52.8892 47.8706 52.8649L47.4826 52.8164C47.3128 52.8164 47.1431 52.7437 47.0218 52.6224C46.9491 52.5254 46.9006 52.4284 46.9006 52.3071C46.9006 52.1859 46.9733 52.0161 47.0703 51.9191C47.2158 51.7736 47.4098 51.7251 47.6281 51.7251C47.8464 51.7251 48.1132 51.7979 48.2344 51.9676C48.3314 52.0889 48.3799 52.2101 48.3799 52.3314H48.1859C48.1859 52.2586 48.1617 52.1616 48.0889 52.0889C47.9919 51.9676 47.8464 51.9191 47.6281 51.9191C47.4098 51.9191 47.3613 51.9434 47.2643 52.0161C47.1673 52.0889 47.0946 52.1859 47.0946 52.3071C47.0946 52.4769 47.1916 52.5982 47.4826 52.6467L47.8706 52.6952C48.2587 52.7437 48.4284 53.0104 48.4284 53.253C48.4284 53.4955 48.3799 53.5197 48.2829 53.6167" fill="#BFBDBD"/>
<path d="M49.6887 53.7623H49.4946L48.6943 51.7251H48.9126L49.5917 53.4955L50.2465 51.7251H50.4647L49.6887 53.7623Z" fill="#BFBDBD"/>
<path d="M50.9268 50.8755H51.2178V51.1665H50.9268V50.8755ZM50.951 51.7243H51.1693V53.7615H50.951V51.7243Z" fill="#BFBDBD"/>
<path d="M51.8496 53.7623V53.544L53.135 51.9191H51.8496V51.7251H53.3532V51.9676L52.0679 53.5682H53.3775V53.7623H51.8496Z" fill="#BFBDBD"/>
<path d="M53.8379 53.7623V53.544L55.1475 51.9191H53.8379V51.7251H55.3658V51.9676L54.0562 53.5682H55.39V53.7623H53.8379Z" fill="#BFBDBD"/>
<path d="M57.5458 52.7923H55.9937C55.9937 53.0349 56.0664 53.2531 56.2119 53.3986C56.3332 53.5442 56.4787 53.6169 56.697 53.6169C56.9152 53.6169 57.0365 53.5442 57.1335 53.4471C57.2063 53.3744 57.2548 53.2774 57.279 53.1561H57.4973C57.473 53.3259 57.376 53.4714 57.279 53.5927C57.1335 53.7382 56.9395 53.8352 56.697 53.8352C56.4544 53.8352 56.1877 53.7139 56.0422 53.5442C55.8724 53.3501 55.7754 53.0834 55.7754 52.7681C55.7754 52.4528 55.8239 52.2588 55.9694 52.0405C56.1392 51.798 56.3817 51.6768 56.6727 51.6768C57.2305 51.6768 57.5458 52.1375 57.5458 52.6711C57.5458 53.2046 57.5458 52.7681 57.5458 52.8166M56.6727 51.8708C56.2604 51.8708 55.9937 52.2103 55.9937 52.6226H57.3518C57.3518 52.2345 57.1092 51.8708 56.697 51.8708" fill="#BFBDBD"/>
<path d="M59.0051 51.9194C58.4958 51.9194 58.3503 52.3802 58.3503 52.7925V53.7626H58.1562V51.7254H58.326V52.1377C58.4473 51.8467 58.714 51.7012 59.0051 51.7012C59.2961 51.7012 59.1506 51.7012 59.1991 51.7012V51.8952C59.1263 51.8952 59.0536 51.8952 59.0051 51.8952" fill="#BFBDBD"/>
<path d="M61.2588 53.7859C61.0163 53.7859 60.9436 53.5918 60.9436 53.3978C60.8223 53.6888 60.5313 53.8344 60.216 53.8344C59.9007 53.8344 59.5127 53.5918 59.5127 53.2038C59.5127 52.8158 59.8037 52.6218 60.1917 52.5975L60.9436 52.549V52.355C60.9436 52.0155 60.7253 51.8942 60.41 51.8942C60.0947 51.8942 59.8522 52.0397 59.828 52.3307H59.634C59.6582 51.9185 59.9735 51.7002 60.4343 51.7002C60.895 51.7002 61.0163 51.7972 61.1133 52.064C61.1618 52.1852 61.1618 52.3307 61.1618 52.452V53.3736C61.1618 53.5191 61.1618 53.5918 61.3316 53.5918C61.5013 53.5918 61.3801 53.5918 61.3801 53.5918V53.7616C61.3316 53.7616 61.3316 53.7616 61.2831 53.7616M60.9436 52.7188L60.216 52.7673C59.925 52.7673 59.731 52.937 59.731 53.2038C59.731 53.4706 59.9492 53.6403 60.2403 53.6403C60.7495 53.6403 60.9678 53.2281 60.9678 52.84V52.743L60.9436 52.7188Z" fill="#BFBDBD"/>
<path d="M64.4836 53.7624V53.3987C64.3381 53.6412 64.0471 53.8109 63.7803 53.8109C63.5135 53.8109 63.368 53.7382 63.2468 53.6169C63.0285 53.4229 62.9072 53.0834 62.9072 52.7439C62.9072 52.4043 63.0042 52.0891 63.2225 51.8708C63.368 51.7495 63.5378 51.6525 63.7803 51.6525C64.0228 51.6525 64.3623 51.8223 64.4593 52.0406V50.8037H64.6534V53.7382H64.4836V53.7624ZM64.1926 52.0406C64.0956 51.9436 63.9501 51.8708 63.756 51.8708C63.562 51.8708 63.4165 51.9436 63.3195 52.0406C63.1497 52.2103 63.1012 52.4771 63.1012 52.7439C63.1012 53.0106 63.174 53.3017 63.368 53.4714C63.465 53.5684 63.6105 53.6169 63.7803 53.6169C63.9501 53.6169 64.0956 53.5442 64.1926 53.4472C64.3866 53.2774 64.4593 53.0106 64.4593 52.7439C64.4593 52.4771 64.3866 52.2103 64.1926 52.0406Z" fill="#BFBDBD"/>
<path d="M67.0536 52.7923H65.5015C65.5015 53.0349 65.5742 53.2531 65.7197 53.3986C65.841 53.5442 65.9865 53.6169 66.2048 53.6169C66.423 53.6169 66.5443 53.5442 66.6413 53.4471C66.7141 53.3744 66.7626 53.2774 66.7868 53.1561H67.0051C66.9808 53.3259 66.8838 53.4714 66.7868 53.5927C66.6413 53.7382 66.4473 53.8352 66.2048 53.8352C65.9623 53.8352 65.6955 53.7139 65.55 53.5442C65.3802 53.3501 65.2832 53.0834 65.2832 52.7681C65.2832 52.4528 65.3317 52.2588 65.4772 52.0405C65.647 51.798 65.8895 51.6768 66.1805 51.6768C66.7383 51.6768 67.0536 52.1375 67.0536 52.6711C67.0536 53.2046 67.0536 52.7681 67.0536 52.8166M66.1805 51.8708C65.7682 51.8708 65.5015 52.2103 65.5015 52.6226H66.8596C66.8596 52.2345 66.6171 51.8708 66.2048 51.8708" fill="#BFBDBD"/>
<path d="M68.049 53.7867C67.7822 53.7867 67.6367 53.6412 67.6367 53.3502V50.8037H67.8307V53.3259C67.8307 53.4714 67.8792 53.5684 68.049 53.5684C68.2188 53.5684 68.1703 53.5684 68.2188 53.5684V53.7382C68.1703 53.7382 68.1218 53.7624 68.0248 53.7624" fill="#BFBDBD"/>
<path d="M69.1877 53.7867C68.9209 53.7867 68.7754 53.6412 68.7754 53.3502V50.8037H68.9694V53.3259C68.9694 53.4714 69.0179 53.5684 69.1877 53.5684C69.3574 53.5684 69.3089 53.5684 69.3574 53.5684V53.7382C69.3089 53.7382 69.2604 53.7624 69.1634 53.7624" fill="#BFBDBD"/>
<path d="M71.494 52.7923H69.9419C69.9419 53.0349 70.0147 53.2531 70.1602 53.3986C70.2814 53.5442 70.4269 53.6169 70.6452 53.6169C70.8635 53.6169 70.9847 53.5442 71.0817 53.4471C71.1545 53.3744 71.203 53.2774 71.2272 53.1561H71.4455C71.4213 53.3259 71.3243 53.4714 71.2272 53.5927C71.0817 53.7382 70.8877 53.8352 70.6452 53.8352C70.4027 53.8352 70.1359 53.7139 69.9904 53.5442C69.8206 53.3501 69.7236 53.0834 69.7236 52.7681C69.7236 52.4528 69.7721 52.2588 69.9176 52.0405C70.0874 51.798 70.3299 51.6768 70.6209 51.6768C71.1787 51.6768 71.494 52.1375 71.494 52.6711C71.494 53.2046 71.494 52.7681 71.494 52.8166M70.6209 51.8708C70.2087 51.8708 69.9419 52.2103 69.9419 52.6226H71.3C71.3 52.2345 71.0575 51.8708 70.6452 51.8708" fill="#BFBDBD"/>
<path d="M74.5466 53.5925C74.4011 53.7623 74.1586 53.835 73.8918 53.835C73.625 53.835 73.3825 53.738 73.2127 53.5682C73.0915 53.447 73.043 53.3257 73.043 53.156H73.2612C73.2612 53.2772 73.334 53.3742 73.4067 53.4712C73.528 53.5925 73.6978 53.641 73.8918 53.641C74.0858 53.641 74.2798 53.5925 74.3768 53.4955C74.4496 53.4227 74.4981 53.35 74.4981 53.2287C74.4981 53.0347 74.3768 52.8892 74.1343 52.8649L73.7463 52.8164C73.5765 52.8164 73.4067 52.7437 73.2855 52.6224C73.2127 52.5254 73.1642 52.4284 73.1642 52.3071C73.1642 52.1859 73.237 52.0161 73.334 51.9191C73.4795 51.7736 73.6735 51.7251 73.8918 51.7251C74.1101 51.7251 74.3768 51.7979 74.4981 51.9676C74.5951 52.0889 74.6436 52.2101 74.6436 52.3314H74.4496C74.4496 52.2586 74.4253 52.1616 74.3526 52.0889C74.2556 51.9676 74.1101 51.9191 73.8918 51.9191C73.6735 51.9191 73.625 51.9434 73.528 52.0161C73.431 52.0889 73.3582 52.1859 73.3582 52.3071C73.3582 52.4769 73.4552 52.5982 73.7463 52.6467L74.1343 52.6952C74.5223 52.7437 74.6921 53.0104 74.6921 53.253C74.6921 53.4955 74.6436 53.5197 74.5466 53.6167" fill="#BFBDBD"/>
<path d="M76.9012 52.7923H75.3491C75.3491 53.0349 75.4219 53.2531 75.5674 53.3986C75.6886 53.5442 75.8342 53.6169 76.0524 53.6169C76.2707 53.6169 76.392 53.5442 76.489 53.4471C76.5617 53.3744 76.6102 53.2774 76.6345 53.1561H76.8527C76.8285 53.3259 76.7315 53.4714 76.6345 53.5927C76.489 53.7382 76.2949 53.8352 76.0524 53.8352C75.8099 53.8352 75.5431 53.7139 75.3976 53.5442C75.2279 53.3501 75.1309 53.0834 75.1309 52.7681C75.1309 52.4528 75.1794 52.2588 75.3249 52.0405C75.4946 51.798 75.7372 51.6768 76.0282 51.6768C76.586 51.6768 76.9012 52.1375 76.9012 52.6711C76.9012 53.2046 76.9012 52.7681 76.9012 52.8166M76.0524 51.8708C75.6401 51.8708 75.3734 52.2103 75.3734 52.6226H76.7315C76.7315 52.2345 76.489 51.8708 76.0767 51.8708" fill="#BFBDBD"/>
<path d="M77.3145 53.7623V53.544L78.5998 51.9191H77.3145V51.7251H78.8181V51.9676L77.5327 53.5682H78.8423V53.7623H77.3145Z" fill="#BFBDBD"/>
<path d="M79.4463 50.8755H79.7373V51.1665H79.4463V50.8755ZM79.4948 51.7243H79.7131V53.7615H79.4948V51.7243Z" fill="#BFBDBD"/>
<path d="M81.8239 53.5928C81.6784 53.7383 81.4844 53.8353 81.2176 53.8353C80.9509 53.8353 80.7568 53.7383 80.6113 53.5928C80.3931 53.3746 80.3203 53.1078 80.3203 52.7683C80.3203 52.4287 80.3931 52.162 80.6113 51.9437C80.7568 51.7982 80.9509 51.7012 81.2176 51.7012C81.4844 51.7012 81.6784 51.7982 81.8239 51.9437C82.0422 52.162 82.1149 52.4287 82.1149 52.7683C82.1149 53.1078 82.0422 53.3746 81.8239 53.5928ZM81.6784 52.065C81.5814 51.9437 81.4359 51.8952 81.2176 51.8952C80.9994 51.8952 80.8781 51.9679 80.7811 52.065C80.5871 52.259 80.5628 52.5015 80.5628 52.7683C80.5628 53.035 80.6113 53.2775 80.7811 53.4716C80.8781 53.5928 81.0236 53.6413 81.2176 53.6413C81.4116 53.6413 81.5572 53.5686 81.6784 53.4716C81.8724 53.2775 81.8967 53.035 81.8967 52.7683C81.8967 52.5015 81.8482 52.259 81.6784 52.065Z" fill="#BFBDBD"/>
<path d="M84.1517 53.7623V52.4284C84.1517 52.0646 84.0062 51.8706 83.6182 51.8706C83.2302 51.8706 82.9391 52.3071 82.9391 52.7437V53.7623H82.7451V51.7251H82.9149V52.0889C83.0604 51.8221 83.3514 51.6523 83.6182 51.6523C84.079 51.6523 84.3457 51.9434 84.3457 52.4042V53.738H84.1517V53.7623Z" fill="#BFBDBD"/>
<path d="M85.0977 50.8755H85.3887V51.1665H85.0977V50.8755ZM85.1462 51.7243H85.3644V53.7615H85.1462V51.7243Z" fill="#BFBDBD"/>
<path d="M88.7131 53.7624V53.3987C88.5676 53.6412 88.2766 53.8109 88.0098 53.8109C87.743 53.8109 87.5975 53.7382 87.4762 53.6169C87.258 53.4229 87.1367 53.0834 87.1367 52.7439C87.1367 52.4043 87.2337 52.0891 87.452 51.8708C87.5975 51.7495 87.7673 51.6525 88.0098 51.6525C88.2523 51.6525 88.5918 51.8223 88.6888 52.0406V50.8037H88.8829V53.7382H88.7131V53.7624ZM88.4221 52.0406C88.3251 51.9436 88.1795 51.8708 87.9855 51.8708C87.7915 51.8708 87.646 51.9436 87.549 52.0406C87.3792 52.2103 87.3307 52.4771 87.3307 52.7439C87.3307 53.0106 87.4035 53.3017 87.5975 53.4714C87.6945 53.5684 87.84 53.6169 88.0098 53.6169C88.1796 53.6169 88.3251 53.5442 88.4221 53.4472C88.6161 53.2774 88.6888 53.0106 88.6888 52.7439C88.6888 52.4771 88.6161 52.2103 88.4221 52.0406Z" fill="#BFBDBD"/>
<path d="M91.2831 52.7923H89.731C89.731 53.0349 89.8037 53.2531 89.9492 53.3986C90.0705 53.5442 90.216 53.6169 90.4343 53.6169C90.6525 53.6169 90.7738 53.5442 90.8708 53.4471C90.9436 53.3744 90.9921 53.2774 91.0163 53.1561H91.2346C91.2103 53.3259 91.1133 53.4714 91.0163 53.5927C90.8708 53.7382 90.6768 53.8352 90.4343 53.8352C90.1918 53.8352 89.925 53.7139 89.7795 53.5442C89.6097 53.3501 89.5127 53.0834 89.5127 52.7681C89.5127 52.4528 89.5612 52.2588 89.7067 52.0405C89.8765 51.798 90.119 51.6768 90.41 51.6768C90.9678 51.6768 91.2831 52.1375 91.2831 52.6711C91.2831 53.2046 91.2831 52.7681 91.2831 52.8166M90.41 51.8708C89.9977 51.8708 89.731 52.2103 89.731 52.6226H91.0891C91.0891 52.2345 90.8466 51.8708 90.4343 51.8708" fill="#BFBDBD"/>
<path d="M92.2775 53.7867C92.0107 53.7867 91.8652 53.6412 91.8652 53.3502V50.8037H92.0592V53.3259C92.0592 53.4714 92.1078 53.5684 92.2775 53.5684C92.4473 53.5684 92.3988 53.5684 92.4473 53.5684V53.7382C92.3988 53.7382 92.3503 53.7624 92.2533 53.7624" fill="#BFBDBD"/>
<path d="M93.4172 53.7867C93.1504 53.7867 93.0049 53.6412 93.0049 53.3502V50.8037H93.1989V53.3259C93.1989 53.4714 93.2474 53.5684 93.4172 53.5684C93.5869 53.5684 93.5384 53.5684 93.5869 53.5684V53.7382C93.5384 53.7382 93.4899 53.7624 93.3929 53.7624" fill="#BFBDBD"/>
<path d="M93.8774 51.7486L93.8047 51.6273C93.9745 51.5303 94.023 51.4333 94.023 51.2393H93.8047V50.8755H94.1927V51.2393C94.1927 51.4818 94.0957 51.6273 93.8774 51.7486Z" fill="#BFBDBD"/>
<path d="M96.1807 53.7868C95.9382 53.7868 95.8654 53.5928 95.8654 53.3988C95.7442 53.6898 95.4531 53.8353 95.1379 53.8353C94.8226 53.8353 94.4346 53.5928 94.4346 53.2048C94.4346 52.8168 94.7256 52.6227 95.1136 52.5985L95.8654 52.55V52.356C95.8654 52.0164 95.6472 51.8952 95.3319 51.8952C95.0166 51.8952 94.7741 52.0407 94.7498 52.3317H94.5558C94.5801 51.9194 94.8954 51.7012 95.3561 51.7012C95.8169 51.7012 95.9382 51.7982 96.0352 52.065C96.0837 52.1862 96.0837 52.3317 96.0837 52.453V53.3746C96.0837 53.5201 96.0837 53.5928 96.2535 53.5928C96.4232 53.5928 96.302 53.5928 96.302 53.5928V53.7626C96.2535 53.7626 96.2535 53.7626 96.205 53.7626M95.8412 52.7198L95.1136 52.7683C94.8226 52.7683 94.6286 52.938 94.6286 53.2048C94.6286 53.4716 94.8469 53.6413 95.1379 53.6413C95.6472 53.6413 95.8654 53.229 95.8654 52.841V52.744L95.8412 52.7198Z" fill="#BFBDBD"/>
<path d="M98.4115 54.4649C98.2417 54.6347 97.9265 54.7074 97.6112 54.7074C97.2959 54.7074 97.0291 54.6347 96.8594 54.4649C96.7624 54.3679 96.7139 54.2466 96.7139 54.1011C96.7139 53.9556 96.8351 53.7131 97.0291 53.6161C96.8836 53.5676 96.7624 53.4221 96.7624 53.2766C96.7624 53.1311 96.8594 52.9855 97.0049 52.8885C96.8836 52.7673 96.8109 52.5975 96.8109 52.3792C96.8109 51.9427 97.1504 51.6759 97.5627 51.6759C97.975 51.6759 97.9022 51.7244 98.0477 51.8215C98.0962 51.6517 98.266 51.5547 98.46 51.5547C98.654 51.5547 98.5085 51.5547 98.5328 51.5547V51.7244C98.5085 51.7244 98.4843 51.7244 98.46 51.7244C98.3145 51.7244 98.2175 51.7972 98.169 51.9427C98.266 52.064 98.3387 52.2095 98.3387 52.4035C98.3387 52.84 97.9992 53.1068 97.5627 53.1068C97.1261 53.1068 97.2717 53.0826 97.1504 53.0098C97.0534 53.0583 96.9564 53.1311 96.9564 53.2523C96.9564 53.3736 97.0291 53.4221 97.1019 53.4463C97.1747 53.4706 97.2959 53.4706 97.3687 53.4706H97.8052C98.072 53.4706 98.266 53.5433 98.4115 53.6646C98.5085 53.7616 98.5813 53.8829 98.5813 54.0526C98.5813 54.2224 98.5085 54.3437 98.4358 54.4407M98.266 53.8344C98.169 53.7374 98.0235 53.6889 97.7809 53.6889H97.2474C97.0776 53.7374 96.9079 53.8586 96.9079 54.1011C96.9079 54.3437 96.9564 54.2951 97.0291 54.3679C97.1746 54.5134 97.4172 54.5377 97.6354 54.5377C97.8537 54.5377 98.1205 54.5134 98.2902 54.3679C98.363 54.2951 98.3872 54.2224 98.3872 54.1011C98.3872 53.9799 98.3387 53.9071 98.2902 53.8586M97.5384 51.87C97.2232 51.87 96.9806 52.064 96.9806 52.4035C96.9806 52.743 97.2232 52.937 97.5384 52.937C97.8537 52.937 98.0962 52.743 98.0962 52.4035C98.0962 52.064 97.8537 51.87 97.5384 51.87Z" fill="#BFBDBD"/>
<path d="M99.8928 51.9194C99.3835 51.9194 99.238 52.3802 99.238 52.7925V53.7626H99.0439V51.7254H99.2137V52.1377C99.335 51.8467 99.6017 51.7012 99.8928 51.7012C100.184 51.7012 100.038 51.7012 100.087 51.7012V51.8952C100.014 51.8952 99.9413 51.8952 99.8928 51.8952" fill="#BFBDBD"/>
<path d="M100.57 50.8755H100.861V51.1665H100.57V50.8755ZM100.619 51.7243H100.837V53.7615H100.619V51.7243Z" fill="#BFBDBD"/>
<path d="M102.367 53.8353C102.125 53.8353 101.906 53.7383 101.761 53.5928C101.542 53.3746 101.47 53.1078 101.47 52.7683C101.47 52.4287 101.542 52.1377 101.761 51.9437C101.906 51.7982 102.1 51.7012 102.367 51.7012C102.779 51.7012 103.095 51.9679 103.143 52.3802H102.925C102.876 52.0892 102.658 51.8952 102.343 51.8952C102.028 51.8952 102.003 51.9679 101.882 52.065C101.688 52.259 101.664 52.5015 101.664 52.7683C101.664 53.035 101.712 53.2775 101.882 53.4716C101.979 53.5928 102.149 53.6413 102.343 53.6413C102.658 53.6413 102.876 53.4231 102.925 53.1563H103.143C103.095 53.5443 102.779 53.8596 102.343 53.8596" fill="#BFBDBD"/>
<path d="M105.034 53.5928C104.888 53.7383 104.694 53.8353 104.428 53.8353C104.161 53.8353 103.967 53.7383 103.821 53.5928C103.603 53.3746 103.53 53.1078 103.53 52.7683C103.53 52.4287 103.603 52.162 103.821 51.9437C103.967 51.7982 104.161 51.7012 104.428 51.7012C104.694 51.7012 104.888 51.7982 105.034 51.9437C105.252 52.162 105.325 52.4287 105.325 52.7683C105.325 53.1078 105.252 53.3746 105.034 53.5928ZM104.888 52.065C104.791 51.9437 104.646 51.8952 104.452 51.8952C104.258 51.8952 104.112 51.9679 104.015 52.065C103.821 52.259 103.797 52.5015 103.797 52.7683C103.797 53.035 103.846 53.2775 104.015 53.4716C104.112 53.5928 104.258 53.6413 104.452 53.6413C104.646 53.6413 104.791 53.5686 104.888 53.4716C105.082 53.2775 105.107 53.035 105.107 52.7683C105.107 52.5015 105.058 52.259 104.888 52.065Z" fill="#BFBDBD"/>
<path d="M106.366 53.7867C106.1 53.7867 105.954 53.6412 105.954 53.3502V50.8037H106.148V53.3259C106.148 53.4714 106.197 53.5684 106.366 53.5684C106.536 53.5684 106.488 53.5684 106.536 53.5684V53.7382C106.488 53.7382 106.439 53.7624 106.342 53.7624" fill="#BFBDBD"/>
<path d="M107.724 53.8106C107.336 53.8106 107.191 53.5681 107.191 53.2043V51.919H106.778V51.7249H107.191V51.1672L107.385 51.1187V51.7249H108.015V51.919H107.385V53.2043C107.385 53.4468 107.457 53.6166 107.724 53.6166C107.991 53.6166 107.942 53.6166 108.039 53.5923V53.7621C107.918 53.7864 107.821 53.8106 107.7 53.8106" fill="#BFBDBD"/>
<path d="M110.005 53.7623V53.3985C109.86 53.6652 109.569 53.8108 109.302 53.8108C108.841 53.8108 108.574 53.5197 108.574 53.059V51.7251H108.768V53.059C108.768 53.4227 108.914 53.6167 109.302 53.6167C109.69 53.6167 109.981 53.1802 109.981 52.7437V51.7251H110.175V53.7623H110.005Z" fill="#BFBDBD"/>
<path d="M111.824 51.9194C111.315 51.9194 111.17 52.3802 111.17 52.7925V53.7626H110.976V51.7254H111.145V52.1377C111.267 51.8467 111.533 51.7012 111.824 51.7012C112.115 51.7012 111.97 51.7012 112.018 51.7012V51.8952C111.946 51.8952 111.873 51.8952 111.824 51.8952" fill="#BFBDBD"/>
<path d="M114.078 53.7868C113.836 53.7868 113.763 53.5928 113.763 53.3988C113.642 53.6898 113.351 53.8353 113.035 53.8353C112.72 53.8353 112.332 53.5928 112.332 53.2048C112.332 52.8168 112.623 52.6227 113.011 52.5985L113.763 52.55V52.356C113.763 52.0164 113.545 51.8952 113.229 51.8952C112.914 51.8952 112.672 52.0407 112.647 52.3317H112.453C112.478 51.9194 112.793 51.7012 113.254 51.7012C113.714 51.7012 113.836 51.7982 113.933 52.065C113.981 52.1862 113.981 52.3317 113.981 52.453V53.3746C113.981 53.5201 113.981 53.5928 114.151 53.5928C114.321 53.5928 114.199 53.5928 114.199 53.5928V53.7626C114.151 53.7626 114.151 53.7626 114.102 53.7626M113.763 52.7198L113.035 52.7683C112.744 52.7683 112.55 52.938 112.55 53.2048C112.55 53.4716 112.769 53.6413 113.06 53.6413C113.569 53.6413 113.787 53.229 113.787 52.841V52.744L113.763 52.7198Z" fill="#BFBDBD"/>
<path d="M116.625 53.8344C116.382 53.8344 116.164 53.7374 116.019 53.5918C115.8 53.3736 115.728 53.1068 115.728 52.7673C115.728 52.4278 115.8 52.1367 116.019 51.9427C116.164 51.7972 116.358 51.7002 116.625 51.7002C117.037 51.7002 117.352 51.967 117.401 52.3792H117.183C117.134 52.0882 116.916 51.8942 116.601 51.8942C116.285 51.8942 116.261 51.967 116.14 52.064C115.946 52.258 115.922 52.5005 115.922 52.7673C115.922 53.0341 115.97 53.2766 116.14 53.4706C116.237 53.5918 116.407 53.6403 116.601 53.6403C116.916 53.6403 117.134 53.4221 117.183 53.1553H117.401C117.352 53.5433 117.037 53.8586 116.601 53.8586" fill="#BFBDBD"/>
<path d="M119.582 53.7868C119.34 53.7868 119.267 53.5928 119.267 53.3988C119.146 53.6898 118.855 53.8353 118.539 53.8353C118.224 53.8353 117.836 53.5928 117.836 53.2048C117.836 52.8168 118.127 52.6227 118.515 52.5985L119.267 52.55V52.356C119.267 52.0164 119.049 51.8952 118.733 51.8952C118.418 51.8952 118.175 52.0407 118.151 52.3317H117.957C117.981 51.9194 118.297 51.7012 118.758 51.7012C119.218 51.7012 119.34 51.7982 119.437 52.065C119.485 52.1862 119.485 52.3317 119.485 52.453V53.3746C119.485 53.5201 119.485 53.5928 119.655 53.5928C119.825 53.5928 119.679 53.5928 119.703 53.5928V53.7626C119.655 53.7626 119.655 53.7626 119.606 53.7626M119.267 52.7198L118.539 52.7683C118.248 52.7683 118.054 52.938 118.054 53.2048C118.054 53.4716 118.272 53.6413 118.563 53.6413C119.073 53.6413 119.291 53.229 119.291 52.841V52.744L119.267 52.7198Z" fill="#BFBDBD"/>
<path d="M121.695 53.7623V52.4284C121.695 52.0646 121.549 51.8706 121.161 51.8706C120.773 51.8706 120.482 52.3071 120.482 52.7437V53.7623H120.288V51.7251H120.458V52.0889C120.603 51.8221 120.894 51.6523 121.161 51.6523C121.622 51.6523 121.889 51.9434 121.889 52.4042V53.738H121.695V53.7623Z" fill="#BFBDBD"/>
<path d="M123.293 53.8106C122.905 53.8106 122.76 53.5681 122.76 53.2043V51.919H122.348V51.7249H122.76V51.1672L122.954 51.1187V51.7249H123.584V51.919H122.954V53.2043C122.954 53.4468 123.027 53.6166 123.293 53.6166C123.56 53.6166 123.512 53.6166 123.609 53.5923V53.7621C123.487 53.7864 123.39 53.8106 123.269 53.8106" fill="#BFBDBD"/>
<path d="M125.429 53.5918C125.284 53.7374 125.09 53.8344 124.823 53.8344C124.556 53.8344 124.362 53.7374 124.217 53.5918C123.999 53.3736 123.926 53.1068 123.926 52.7673C123.926 52.4278 123.999 52.161 124.217 51.9427C124.362 51.7972 124.556 51.7002 124.823 51.7002C125.09 51.7002 125.284 51.7972 125.429 51.9427C125.648 52.161 125.72 52.4278 125.72 52.7673C125.72 53.1068 125.648 53.3736 125.429 53.5918ZM125.284 52.064C125.187 51.9427 125.041 51.8942 124.847 51.8942C124.653 51.8942 124.508 51.967 124.411 52.064C124.217 52.258 124.193 52.5005 124.193 52.7673C124.193 53.0341 124.241 53.2766 124.411 53.4706C124.508 53.5918 124.653 53.6403 124.847 53.6403C125.041 53.6403 125.187 53.5676 125.284 53.4706C125.478 53.2766 125.502 53.0341 125.502 52.7673C125.502 52.5005 125.454 52.258 125.284 52.064Z" fill="#BFBDBD"/>
<path d="M127.756 53.7623V52.4284C127.756 52.0646 127.611 51.8706 127.223 51.8706C126.835 51.8706 126.544 52.3071 126.544 52.7437V53.7623H126.35V51.7251H126.519V52.0889C126.665 51.8221 126.956 51.6523 127.223 51.6523C127.683 51.6523 127.95 51.9434 127.95 52.4042V53.738H127.756V53.7623Z" fill="#BFBDBD"/>
<path d="M130.304 53.7868C130.061 53.7868 129.988 53.5928 129.988 53.3988C129.867 53.6898 129.576 53.8353 129.261 53.8353C128.946 53.8353 128.558 53.5928 128.558 53.2048C128.558 52.8168 128.849 52.6227 129.237 52.5985L129.988 52.55V52.356C129.988 52.0164 129.77 51.8952 129.455 51.8952C129.14 51.8952 128.897 52.0407 128.873 52.3317H128.679C128.703 51.9194 129.018 51.7012 129.479 51.7012C129.94 51.7012 130.061 51.7982 130.158 52.065C130.207 52.1862 130.207 52.3317 130.207 52.453V53.3746C130.207 53.5201 130.207 53.5928 130.377 53.5928C130.546 53.5928 130.425 53.5928 130.425 53.5928V53.7626C130.377 53.7626 130.377 53.7626 130.328 53.7626M129.988 52.7198L129.261 52.7683C128.97 52.7683 128.776 52.938 128.776 53.2048C128.776 53.4716 128.994 53.6413 129.285 53.6413C129.794 53.6413 130.013 53.229 130.013 52.841V52.744L129.988 52.7198Z" fill="#BFBDBD"/>
<path d="M131.394 53.7867C131.127 53.7867 130.981 53.6412 130.981 53.3502V50.8037H131.175V53.3259C131.175 53.4714 131.224 53.5684 131.394 53.5684C131.563 53.5684 131.515 53.5684 131.563 53.5684V53.7382C131.515 53.7382 131.466 53.7624 131.369 53.7624" fill="#BFBDBD"/>
<path d="M132.123 50.8755H132.414V51.1665H132.123V50.8755ZM132.172 51.7243H132.39V53.7615H132.172V51.7243Z" fill="#BFBDBD"/>
</g>
<defs>
<clipPath id="clip0_7238_2540">
<rect width="133.725" height="55" fill="white"/>
</clipPath>
</defs>
</svg>
