<svg width="202" height="50" viewBox="0 0 202 50" fill="none" xmlns="http://www.w3.org/2000/svg">
<g opacity="0.5">
<path d="M13.5262 0C5.08713 0 0.0461688 2.20667 0.0461688 2.20667C0.0461688 2.20667 -0.404312 11.98 1.50902 17.5067C2.47963 20.3339 4.05871 22.9138 6.13491 25.0644C8.2111 27.215 10.7338 28.8839 13.5252 29.9533C16.3165 28.8836 18.8392 27.2146 20.9156 25.0641C22.9919 22.9136 24.5712 20.3338 25.5424 17.5067C27.4547 11.9829 27.0024 2.20667 27.0024 2.20667C27.0024 2.20667 21.9633 0 13.5262 0ZM22.4785 16.0172H16.1928V22.3029H10.8081V16.0172H4.52236V10.6324H10.8081V4.34668H16.1909V10.6324H22.4766L22.4785 16.0172Z" fill="white"/>
<g clip-path="url(#clip0_7238_2446)">
<path d="M37.9757 8.57069C38.3757 8.82069 38.84 8.97069 39.4685 8.97069C40.3042 8.97069 40.9971 8.54212 40.9971 7.57783C40.9971 6.24212 37.8828 6.07783 37.8828 4.29926C37.8828 3.21355 38.8328 2.52783 40.0328 2.52783C40.3614 2.52783 40.8971 2.57783 41.3685 2.7564L41.2614 3.37069C40.9685 3.19926 40.49 3.12069 40.0328 3.12069C39.3328 3.12069 38.5614 3.41355 38.5614 4.29212C38.5614 5.6564 41.6757 5.66355 41.6757 7.64212C41.6757 9.01355 40.4971 9.5564 39.4542 9.5564C38.79 9.5564 38.2757 9.42069 37.9114 9.26355L37.9757 8.57069Z" fill="white"/>
<path d="M46.9415 5.13617C46.6129 4.99332 46.2058 4.88617 45.8772 4.88617C44.6772 4.88617 44.0058 5.7576 44.0058 6.9576C44.0058 8.08617 44.6915 9.02903 45.8058 9.02903C46.1986 9.02903 46.5486 8.94332 46.9272 8.80046L46.9915 9.37189C46.5772 9.51475 46.1843 9.55046 45.7201 9.55046C44.1272 9.55046 43.3486 8.32903 43.3486 6.9576C43.3486 5.42903 44.3343 4.36475 45.7986 4.36475C46.3915 4.36475 46.8201 4.50046 46.9986 4.5576L46.9415 5.13617Z" fill="white"/>
<path d="M48.7832 2.14307H49.3975V5.3145H49.4189C49.6761 4.7645 50.2332 4.3645 50.9689 4.3645C52.3046 4.3645 52.6618 5.25021 52.6618 6.47164V9.43592H52.0475V6.47878C52.0475 5.62164 51.8832 4.88592 50.8689 4.88592C49.7832 4.88592 49.3975 5.92164 49.3975 6.77878V9.43592H48.7832V2.14307Z" fill="white"/>
<path d="M60.0539 9.44231H59.3182L57.961 5.14946H57.9396L56.5825 9.44231H55.8468L54.2539 4.47803H54.9253L56.2253 8.77088H56.2468L57.6325 4.47803H58.3682L59.6825 8.77088H59.7039L61.0753 4.47803H61.6896L60.0539 9.44231Z" fill="white"/>
<path d="M66.3059 6.60681C66.3059 5.73538 65.9559 4.88538 65.0417 4.88538C64.1417 4.88538 63.5845 5.78538 63.5845 6.60681H66.3059ZM66.6059 9.28538C66.1774 9.46395 65.6202 9.55681 65.1702 9.55681C63.5274 9.55681 62.9131 8.44967 62.9131 6.96395C62.9131 5.44252 63.7488 4.37109 65.0059 4.37109C66.4059 4.37109 66.9845 5.49967 66.9845 6.83538V7.14967H63.5917C63.5917 8.20681 64.1559 9.04252 65.2274 9.04252C65.6702 9.04252 66.3274 8.85681 66.6202 8.67109L66.6059 9.28538Z" fill="white"/>
<path d="M68.8984 4.47831H69.5127V9.44259H68.8984V4.47831ZM69.5199 3.14973H68.9056V2.33545H69.5199V3.14973Z" fill="white"/>
<path d="M71.3613 8.92088L74.347 4.99946H71.4828V4.47803H75.0613V4.99946L72.0756 8.9066H75.0613V9.43517H71.3685V8.92088H71.3613Z" fill="white"/>
<path d="M79.9182 6.60681C79.9182 5.73538 79.5682 4.88538 78.654 4.88538C77.754 4.88538 77.1968 5.78538 77.1968 6.60681H79.9182ZM80.2183 9.28538C79.7897 9.46395 79.2325 9.55681 78.7825 9.55681C77.1397 9.55681 76.5254 8.44967 76.5254 6.96395C76.5254 5.44252 77.3611 4.37109 78.6182 4.37109C80.0182 4.37109 80.5968 5.49967 80.5968 6.83538V7.14967H77.204C77.204 8.20681 77.7754 9.04252 78.8397 9.04252C79.2825 9.04252 79.9397 8.85681 80.2325 8.67109L80.2183 9.28538Z" fill="white"/>
<path d="M82.5184 5.58617C82.5184 5.03617 82.5184 4.84332 82.4756 4.47903H83.0899V5.42903H83.1113C83.3399 4.87189 83.7542 4.36475 84.3827 4.36475C84.5256 4.36475 84.7042 4.39332 84.8113 4.42903V5.07189C84.6899 5.02189 84.5256 5.00046 84.3684 5.00046C83.397 5.00046 83.1327 6.08617 83.1327 6.98617V9.43617H82.5184V5.58617Z" fill="white"/>
<path d="M86.5195 4.47831H87.1338V9.44259H86.5195V4.47831ZM87.1338 3.14973H86.5195V2.33545H87.1338V3.14973Z" fill="white"/>
<path d="M89.0568 8.71359C89.4283 8.8993 89.8711 9.02787 90.3497 9.02787C90.9283 9.02787 91.4497 8.70645 91.4497 8.14216C91.4497 6.96359 89.0711 7.1493 89.0711 5.71359C89.0711 4.72787 89.8711 4.35645 90.6854 4.35645C90.9425 4.35645 91.4711 4.42073 91.914 4.58502L91.8497 5.12073C91.5283 4.97787 91.0926 4.88502 90.7497 4.88502C90.1211 4.88502 89.6854 5.07787 89.6854 5.71359C89.6854 6.63502 92.1283 6.52073 92.1283 8.14216C92.1283 9.1993 91.1426 9.5493 90.3997 9.5493C89.9211 9.5493 89.4497 9.48502 89.0068 9.31359L89.0568 8.71359Z" fill="white"/>
<path d="M97.2052 5.13617C96.8766 4.99332 96.4694 4.88617 96.1409 4.88617C94.9409 4.88617 94.2694 5.7576 94.2694 6.9576C94.2694 8.08617 94.9552 9.02903 96.0694 9.02903C96.4623 9.02903 96.8123 8.94332 97.1909 8.80046L97.2552 9.37189C96.8409 9.51475 96.448 9.55046 95.9837 9.55046C94.3909 9.55046 93.6123 8.32903 93.6123 6.9576C93.6123 5.42903 94.598 4.36475 96.0623 4.36475C96.6552 4.36475 97.0837 4.50046 97.2623 4.5576L97.2052 5.13617Z" fill="white"/>
<path d="M99.0547 2.14307H99.669V5.3145H99.6904C99.9475 4.7645 100.505 4.3645 101.24 4.3645C102.576 4.3645 102.933 5.25021 102.933 6.47164V9.43592H102.319V6.47878C102.319 5.62164 102.155 4.88592 101.14 4.88592C100.055 4.88592 99.669 5.92164 99.669 6.77878V9.43592H99.0547V2.14307Z" fill="white"/>
<path d="M108.248 6.60681C108.248 5.73538 107.898 4.88538 106.984 4.88538C106.084 4.88538 105.527 5.78538 105.527 6.60681H108.248ZM108.548 9.28538C108.12 9.46395 107.563 9.55681 107.113 9.55681C105.47 9.55681 104.855 8.44967 104.855 6.96395C104.855 5.44252 105.691 4.37109 106.948 4.37109C108.348 4.37109 108.927 5.49967 108.927 6.83538V7.14967H105.534C105.534 8.20681 106.105 9.04252 107.17 9.04252C107.613 9.04252 108.27 8.85681 108.563 8.67109L108.548 9.28538Z" fill="white"/>
<path d="M114.083 2.64307H117.412V3.22164H114.754V5.64307H117.276V6.22164H114.754V8.83592H117.526V9.41449H114.083V2.64307Z" fill="white"/>
<path d="M119.632 4.47831H120.246V9.44259H119.632V4.47831ZM120.246 3.14973H119.632V2.33545H120.246V3.14973Z" fill="white"/>
<path d="M124.405 9.02878C125.491 9.02878 125.876 7.85735 125.876 6.95735C125.876 6.05735 125.498 4.88592 124.405 4.88592C123.233 4.88592 122.933 5.99307 122.933 6.95735C122.933 7.92164 123.233 9.02878 124.405 9.02878ZM126.483 9.44307H125.869V8.65021H125.848C125.519 9.27878 125.012 9.55021 124.298 9.55021C122.933 9.55021 122.255 8.42164 122.255 6.95735C122.255 5.45021 122.833 4.3645 124.298 4.3645C125.269 4.3645 125.755 5.07878 125.848 5.3145H125.869V2.14307H126.483V9.44307Z" fill="white"/>
<path d="M130.534 8.91462C131.641 8.91462 132.041 7.85748 132.041 6.95748C132.041 5.75748 131.691 4.88605 130.57 4.88605C129.405 4.88605 129.098 5.99319 129.098 6.95748C129.098 7.92891 129.491 8.91462 130.534 8.91462ZM132.655 9.02891C132.655 10.4146 132.034 11.5432 130.327 11.5432C129.677 11.5432 129.084 11.3575 128.827 11.286L128.877 10.6718C129.255 10.8646 129.798 11.0218 130.334 11.0218C131.905 11.0218 132.048 9.87176 132.048 8.47891H132.027C131.698 9.20033 131.148 9.45033 130.52 9.45033C128.934 9.45033 128.427 8.06462 128.427 6.97176C128.427 5.46462 129.005 4.37891 130.47 4.37891C131.134 4.37891 131.555 4.46462 132.02 5.06462H132.041V4.49319H132.655V9.02891Z" fill="white"/>
<path d="M137.913 6.60681C137.913 5.73538 137.563 4.88538 136.649 4.88538C135.749 4.88538 135.192 5.78538 135.192 6.60681H137.913ZM138.22 9.28538C137.792 9.46395 137.234 9.55681 136.784 9.55681C135.142 9.55681 134.527 8.44967 134.527 6.96395C134.527 5.44252 135.363 4.37109 136.62 4.37109C138.02 4.37109 138.592 5.49967 138.592 6.83538V7.14967H135.199C135.199 8.20681 135.77 9.04252 136.834 9.04252C137.277 9.04252 137.934 8.85681 138.227 8.67109L138.22 9.28538Z" fill="white"/>
<path d="M140.512 5.64216C140.512 5.26359 140.512 4.87787 140.469 4.47073H141.062V5.35645H141.083C141.29 4.91359 141.654 4.35645 142.683 4.35645C143.912 4.35645 144.376 5.17073 144.376 6.26359V9.43502H143.769V6.42073C143.769 5.49216 143.44 4.87787 142.59 4.87787C141.476 4.87787 141.119 5.86359 141.119 6.68502V9.42787H140.504L140.512 5.64216Z" fill="white"/>
<path d="M148.62 9.02903C149.684 9.02903 150.263 8.1076 150.263 6.9576C150.263 5.8076 149.691 4.88617 148.62 4.88617C147.556 4.88617 146.977 5.8076 146.977 6.9576C146.97 8.1076 147.541 9.02903 148.62 9.02903ZM148.62 4.36475C150.22 4.36475 150.934 5.6076 150.934 6.9576C150.934 8.3076 150.22 9.55046 148.62 9.55046C147.02 9.55046 146.306 8.3076 146.306 6.9576C146.306 5.6076 147.013 4.36475 148.62 4.36475Z" fill="white"/>
<path d="M152.463 8.71359C152.834 8.8993 153.284 9.02787 153.756 9.02787C154.334 9.02787 154.856 8.70645 154.856 8.14216C154.856 6.96359 152.477 7.1493 152.477 5.71359C152.477 4.72787 153.27 4.35645 154.091 4.35645C154.348 4.35645 154.877 4.42073 155.32 4.58502L155.263 5.12073C154.941 4.97787 154.506 4.88502 154.163 4.88502C153.534 4.88502 153.098 5.07787 153.098 5.71359C153.098 6.63502 155.541 6.52073 155.541 8.14216C155.541 9.1993 154.556 9.5493 153.813 9.5493C153.334 9.5493 152.863 9.48502 152.42 9.31359L152.463 8.71359Z" fill="white"/>
<path d="M157.013 8.71359C157.384 8.8993 157.834 9.02787 158.305 9.02787C158.884 9.02787 159.405 8.70645 159.405 8.14216C159.405 6.96359 157.027 7.1493 157.027 5.71359C157.027 4.72787 157.827 4.35645 158.641 4.35645C158.898 4.35645 159.427 4.42073 159.87 4.58502L159.805 5.12073C159.484 4.97787 159.048 4.88502 158.713 4.88502C158.084 4.88502 157.648 5.07787 157.648 5.71359C157.648 6.63502 160.091 6.52073 160.091 8.14216C160.091 9.1993 159.105 9.5493 158.363 9.5493C157.884 9.5493 157.413 9.48502 156.97 9.31359L157.013 8.71359Z" fill="white"/>
<path d="M164.955 6.60681C164.955 5.73538 164.605 4.88538 163.691 4.88538C162.791 4.88538 162.234 5.78538 162.234 6.60681H164.955ZM165.255 9.28538C164.827 9.46395 164.277 9.55681 163.82 9.55681C162.177 9.55681 161.562 8.44967 161.562 6.96395C161.562 5.44252 162.398 4.37109 163.655 4.37109C165.055 4.37109 165.634 5.49967 165.634 6.83538V7.14967H162.241C162.241 8.20681 162.812 9.04252 163.877 9.04252C164.32 9.04252 164.977 8.85681 165.27 8.67109L165.255 9.28538Z" fill="white"/>
<path d="M167.556 5.64216C167.556 5.26359 167.556 4.87787 167.513 4.47073H168.106V5.35645H168.127C168.334 4.91359 168.698 4.35645 169.727 4.35645C170.956 4.35645 171.42 5.17073 171.42 6.26359V9.43502H170.813V6.42073C170.813 5.49216 170.484 4.87787 169.634 4.87787C168.52 4.87787 168.163 5.86359 168.163 6.68502V9.42787H167.548L167.556 5.64216Z" fill="white"/>
<path d="M173.34 8.71359C173.712 8.8993 174.155 9.02787 174.633 9.02787C175.212 9.02787 175.726 8.70645 175.726 8.14216C175.726 6.96359 173.347 7.1493 173.347 5.71359C173.347 4.72787 174.14 4.35645 174.962 4.35645C175.219 4.35645 175.747 4.42073 176.19 4.58502L176.126 5.12073C175.805 4.97787 175.369 4.88502 175.026 4.88502C174.397 4.88502 173.962 5.07787 173.962 5.71359C173.962 6.63502 176.405 6.52073 176.405 8.14216C176.405 9.1993 175.419 9.5493 174.676 9.5493C174.197 9.5493 173.726 9.48502 173.283 9.31359L173.34 8.71359Z" fill="white"/>
<path d="M181.491 5.13617C181.162 4.99332 180.755 4.88617 180.426 4.88617C179.226 4.88617 178.555 5.7576 178.555 6.9576C178.555 8.08617 179.233 9.02903 180.355 9.02903C180.748 9.02903 181.098 8.94332 181.476 8.80046L181.533 9.37189C181.119 9.51475 180.726 9.55046 180.262 9.55046C178.669 9.55046 177.891 8.32903 177.891 6.9576C177.891 5.42903 178.876 4.36475 180.341 4.36475C180.933 4.36475 181.362 4.50046 181.541 4.5576L181.491 5.13617Z" fill="white"/>
<path d="M183.343 2.14307H183.95V5.3145H183.971C184.228 4.7645 184.793 4.3645 185.521 4.3645C186.857 4.3645 187.214 5.25021 187.214 6.47164V9.43592H186.607V6.47878C186.607 5.62164 186.443 4.88592 185.428 4.88592C184.343 4.88592 183.957 5.92164 183.957 6.77878V9.43592H183.35V2.14307H183.343Z" fill="white"/>
<path d="M192.299 6.93502H192.128C191.064 6.93502 189.799 7.04216 189.799 8.13502C189.799 8.78502 190.264 9.03502 190.828 9.03502C192.264 9.03502 192.299 7.78502 192.299 7.24216V6.93502ZM192.356 8.64216H192.335C192.064 9.23502 191.371 9.55645 190.764 9.55645C189.356 9.55645 189.128 8.60645 189.128 8.15645C189.128 6.49216 190.899 6.42073 192.178 6.42073H192.292V6.16359C192.292 5.31359 191.992 4.89216 191.164 4.89216C190.649 4.89216 190.164 5.00645 189.706 5.2993V4.6993C190.092 4.51359 190.728 4.35645 191.164 4.35645C192.392 4.35645 192.899 4.91359 192.899 6.20644V8.3993C192.899 8.7993 192.899 9.0993 192.949 9.44216H192.349L192.356 8.64216Z" fill="white"/>
<path d="M195.548 5.00054H194.548V4.47912H195.548V4.11483C195.548 3.07197 195.591 2.02197 196.862 2.02197C197.055 2.02197 197.319 2.05054 197.434 2.11483L197.391 2.65054C197.262 2.57912 197.084 2.5434 196.905 2.5434C196.069 2.5434 196.162 3.4434 196.162 4.0434V4.47197H197.276V5.00054H196.162V9.43626H195.548V5.00054Z" fill="white"/>
<path d="M201.271 5.00017H200.143V8.20731C200.143 8.65017 200.307 9.0216 200.807 9.0216C201.043 9.0216 201.2 8.9716 201.371 8.90731L201.414 9.41445C201.271 9.47874 200.971 9.55017 200.671 9.55017C199.586 9.55017 199.543 8.80731 199.543 7.89302V5.00017H198.571V4.47874H199.543V3.27874L200.157 3.06445V4.4716H201.286L201.271 5.00017Z" fill="white"/>
<path d="M42.7333 16.8286C42.3047 16.6 41.6904 16.5357 41.2118 16.5357C39.4547 16.5357 38.4618 17.7786 38.4618 19.4643C38.4618 21.1786 39.4261 22.3929 41.2118 22.3929C41.6547 22.3929 42.3404 22.3286 42.7333 22.1L42.7761 22.6786C42.4047 22.9072 41.6475 22.9714 41.2261 22.9714C39.0833 22.9714 37.8047 21.5643 37.8047 19.4572C37.8047 17.4 39.1261 15.9429 41.2261 15.9429C41.6261 15.9429 42.4333 16.0143 42.7761 16.1929L42.7333 16.8286Z" fill="white"/>
<path d="M46.9481 22.4426C48.0124 22.4426 48.5909 21.5212 48.5909 20.3712C48.5909 19.2212 48.0195 18.2997 46.9481 18.2997C45.8766 18.2997 45.3052 19.2212 45.3052 20.3712C45.3052 21.5212 45.8766 22.4426 46.9481 22.4426ZM46.9481 17.7783C48.5552 17.7783 49.2624 19.0212 49.2624 20.3712C49.2624 21.7283 48.5481 22.964 46.9481 22.964C45.3481 22.964 44.6338 21.7212 44.6338 20.3712C44.6338 19.0212 45.3409 17.7783 46.9481 17.7783Z" fill="white"/>
<path d="M51.1854 19.064C51.1854 18.6855 51.1854 18.2997 51.1426 17.8926H51.7354V18.7783H51.7569C51.964 18.3355 52.3283 17.7783 53.3569 17.7783C54.5854 17.7783 55.0497 18.5926 55.0497 19.6855V22.8569H54.4354V19.8355C54.4354 18.9069 54.1069 18.2926 53.2569 18.2926C52.1354 18.2926 51.7854 19.2783 51.7854 20.0997V22.8426H51.1712V19.0569" fill="white"/>
<path d="M57.7617 18.4217H56.7617V17.8932H57.7617V17.5289C57.7617 16.486 57.8046 15.436 59.076 15.436C59.2689 15.436 59.5331 15.4646 59.6474 15.5289L59.6046 16.0646C59.4831 15.9932 59.2974 15.9575 59.1189 15.9575C58.2831 15.9575 58.376 16.8575 58.376 17.4575V17.886H59.4903V18.4146H58.376V22.8503H57.7617V18.4217Z" fill="white"/>
<path d="M63.348 15.9795H64.1123L62.8837 17.3795H62.4408L63.348 15.9795ZM64.3694 20.0223C64.3694 19.1509 64.0194 18.3009 63.1051 18.3009C62.2051 18.3009 61.648 19.2009 61.648 20.0223H64.3694ZM64.6694 22.7009C64.2408 22.8795 63.6837 22.9723 63.2337 22.9723C61.5908 22.9723 60.9766 21.8652 60.9766 20.3795C60.9766 18.8581 61.8123 17.7866 63.0694 17.7866C64.4694 17.7866 65.048 18.9152 65.048 20.2509V20.5581H61.6551C61.6551 21.6152 62.2194 22.4509 63.2908 22.4509C63.7337 22.4509 64.3908 22.2652 64.6837 22.0795L64.6694 22.7009Z" fill="white"/>
<path d="M68.8138 22.443C69.8995 22.443 70.2852 21.2716 70.2852 20.3716C70.2852 19.4716 69.9066 18.3002 68.8138 18.3002C67.6423 18.3002 67.3423 19.4073 67.3423 20.3716C67.3495 21.3359 67.6495 22.443 68.8138 22.443ZM70.8995 22.8573H70.2852V22.0716H70.2638C69.9352 22.7002 69.428 22.9716 68.7138 22.9716C67.3495 22.9716 66.6709 21.843 66.6709 20.3787C66.6709 18.8716 67.2495 17.7859 68.7138 17.7859C69.6852 17.7859 70.1709 18.5002 70.2638 18.7359H70.2852V15.5645H70.8995V22.8573Z" fill="white"/>
<path d="M75.1341 15.9795H75.8984L74.6698 17.3795H74.227L75.1341 15.9795ZM76.1556 20.0223C76.1556 19.1509 75.8056 18.3009 74.8913 18.3009C73.9913 18.3009 73.4341 19.2009 73.4341 20.0223H76.1556ZM76.4556 22.7009C76.027 22.8795 75.4698 22.9723 75.0198 22.9723C73.377 22.9723 72.7627 21.8652 72.7627 20.3795C72.7627 18.8581 73.5984 17.7866 74.8556 17.7866C76.2556 17.7866 76.8341 18.9152 76.8341 20.2509V20.5581H73.4413C73.4413 21.6152 74.0127 22.4509 75.077 22.4509C75.5198 22.4509 76.177 22.2652 76.4698 22.0795L76.4556 22.7009Z" fill="white"/>
<path d="M78.7557 18.9997C78.7557 18.4497 78.7557 18.2569 78.7129 17.8926H79.3272V18.8426H79.3486C79.5772 18.2855 79.9915 17.7783 80.62 17.7783C80.7629 17.7783 80.9415 17.8069 81.0486 17.8426V18.4855C80.92 18.4426 80.7557 18.4212 80.6057 18.4212C79.6343 18.4212 79.37 19.5069 79.37 20.4069V22.8569H78.7557V18.9997Z" fill="white"/>
<path d="M85.5487 20.358H85.3701C84.3058 20.358 83.0415 20.4652 83.0415 21.558C83.0415 22.208 83.5058 22.4581 84.0773 22.4581C85.513 22.4581 85.5487 21.2081 85.5487 20.6652V20.358ZM85.5987 22.058H85.5773C85.3058 22.6509 84.613 22.9723 84.0058 22.9723C82.5987 22.9723 82.3701 22.0223 82.3701 21.5723C82.3701 19.9081 84.1415 19.8366 85.4201 19.8366H85.5344V19.5866C85.5344 18.7366 85.2344 18.3152 84.4058 18.3152C83.8916 18.3152 83.4058 18.4295 82.9487 18.7223V18.1295C83.3273 17.9438 83.9701 17.7866 84.4058 17.7866C85.6344 17.7866 86.1416 18.3438 86.1416 19.6366V21.8295C86.1416 22.2295 86.1415 22.5295 86.1915 22.8723H85.5915L85.5987 22.058Z" fill="white"/>
<path d="M90.5132 18.4212H89.3846V21.6283C89.3846 22.0712 89.5489 22.4426 90.0489 22.4426C90.2846 22.4426 90.4417 22.3926 90.6203 22.3283L90.6632 22.8355C90.5203 22.8998 90.2203 22.9712 89.9203 22.9712C88.8346 22.9712 88.7917 22.2283 88.7917 21.314V18.414H87.8203V17.8855H88.7917V16.6855L89.406 16.4712V17.8783H90.5346V18.414" fill="white"/>
<path d="M92.3753 17.8926H92.9896V22.8568H92.3753V17.8926ZM92.9825 16.5711H92.3682V15.7568H92.9825V16.5711Z" fill="white"/>
<path d="M97.2274 22.4426C98.2917 22.4426 98.8702 21.5212 98.8702 20.3712C98.8702 19.2212 98.2988 18.2997 97.2274 18.2997C96.1631 18.2997 95.5845 19.2212 95.5845 20.3712C95.5845 21.5212 96.1559 22.4426 97.2274 22.4426ZM97.2274 17.7783C98.8345 17.7783 99.5417 19.0212 99.5417 20.3712C99.5417 21.7283 98.8274 22.964 97.2274 22.964C95.6274 22.964 94.9131 21.7212 94.9131 20.3712C94.9131 19.0212 95.6202 17.7783 97.2274 17.7783Z" fill="white"/>
<path d="M101.455 19.064C101.455 18.6855 101.455 18.2997 101.412 17.8926H102.005V18.7783H102.026C102.234 18.3355 102.598 17.7783 103.626 17.7783C104.855 17.7783 105.319 18.5926 105.319 19.6855V22.8569H104.705V19.8355C104.705 18.9069 104.376 18.2926 103.526 18.2926C102.412 18.2926 102.055 19.2783 102.055 20.0997V22.8426H101.441V19.0569" fill="white"/>
<path d="M110.612 22.1355C110.983 22.3212 111.426 22.4497 111.904 22.4497C112.483 22.4497 113.004 22.1283 113.004 21.564C113.004 20.3855 110.626 20.5712 110.626 19.1355C110.626 18.1497 111.426 17.7783 112.24 17.7783C112.497 17.7783 113.026 17.8426 113.469 18.0069L113.404 18.5426C113.083 18.3997 112.647 18.3069 112.304 18.3069C111.676 18.3069 111.24 18.4997 111.24 19.1355C111.24 20.0569 113.683 19.9426 113.683 21.564C113.683 22.6212 112.697 22.9712 111.954 22.9712C111.476 22.9712 111.004 22.9069 110.562 22.7355L110.612 22.1355Z" fill="white"/>
<path d="M119.408 21.6854C119.408 22.064 119.408 22.4497 119.45 22.8569H118.858V21.9712H118.836C118.629 22.414 118.265 22.9711 117.229 22.9711C116 22.9711 115.536 22.1569 115.536 21.064V17.8926H116.15V20.914C116.15 21.8497 116.479 22.4569 117.329 22.4569C118.443 22.4569 118.8 21.4712 118.8 20.6497V17.9069H119.415L119.408 21.6854Z" fill="white"/>
<path d="M121.703 17.8926H122.318V22.8568H121.703V17.8926ZM122.311 16.5711H121.696V15.7568H122.311V16.5711Z" fill="white"/>
<path d="M124.241 22.1355C124.613 22.3212 125.056 22.4497 125.534 22.4497C126.113 22.4497 126.634 22.1283 126.634 21.564C126.634 20.3855 124.256 20.5712 124.256 19.1355C124.256 18.1497 125.056 17.7783 125.87 17.7783C126.127 17.7783 126.656 17.8426 127.099 18.0069L127.034 18.5426C126.713 18.3997 126.277 18.3069 125.934 18.3069C125.306 18.3069 124.87 18.4997 124.87 19.1355C124.87 20.0569 127.313 19.9426 127.313 21.564C127.313 22.6212 126.327 22.9712 125.584 22.9712C125.106 22.9712 124.634 22.9069 124.191 22.7355L124.241 22.1355Z" fill="white"/>
<path d="M128.778 22.1355C129.149 22.3212 129.592 22.4497 130.071 22.4497C130.649 22.4497 131.164 22.1283 131.164 21.564C131.164 20.3855 128.785 20.5712 128.785 19.1355C128.785 18.1497 129.585 17.7783 130.399 17.7783C130.656 17.7783 131.185 17.8426 131.628 18.0069L131.564 18.5426C131.242 18.3997 130.806 18.3069 130.464 18.3069C129.835 18.3069 129.399 18.4997 129.399 19.1355C129.399 20.0569 131.842 19.9426 131.842 21.564C131.842 22.6212 130.856 22.9712 130.114 22.9712C129.635 22.9712 129.164 22.9069 128.721 22.7355L128.778 22.1355Z" fill="white"/>
<path d="M136.734 20.0223C136.734 19.1509 136.384 18.3009 135.469 18.3009C134.569 18.3009 134.012 19.2009 134.012 20.0223H136.734ZM137.034 22.7009C136.605 22.8795 136.048 22.9723 135.598 22.9723C133.955 22.9723 133.341 21.8652 133.341 20.3795C133.341 18.8581 134.177 17.7866 135.434 17.7866C136.834 17.7866 137.412 18.9152 137.412 20.2509V20.5581H134.019C134.019 21.6152 134.584 22.4509 135.655 22.4509C136.105 22.4509 136.755 22.2652 137.048 22.0795L137.034 22.7009Z" fill="white"/>
<path d="M42.7333 30.2422C42.3047 30.0136 41.6904 29.9493 41.2118 29.9493C39.4547 29.9493 38.4618 31.1922 38.4618 32.8779C38.4618 34.5922 39.4261 35.8064 41.2118 35.8064C41.6547 35.8064 42.3404 35.7422 42.7333 35.5136L42.7761 36.0922C42.4047 36.3207 41.6475 36.385 41.2261 36.385C39.0833 36.385 37.8047 34.9779 37.8047 32.8707C37.8047 30.8136 39.1261 29.3564 41.2261 29.3564C41.6261 29.3564 42.4333 29.4279 42.7761 29.6064L42.7333 30.2422Z" fill="white"/>
<path d="M46.9481 35.8648C48.0124 35.8648 48.5909 34.9434 48.5909 33.7934C48.5909 32.6434 48.0195 31.7219 46.9481 31.7219C45.8766 31.7219 45.3052 32.6434 45.3052 33.7934C45.3052 34.9434 45.8766 35.8648 46.9481 35.8648ZM46.9481 31.1934C48.5552 31.1934 49.2624 32.4362 49.2624 33.7862C49.2624 35.1434 48.5481 36.3791 46.9481 36.3791C45.3481 36.3791 44.6338 35.1362 44.6338 33.7862C44.6338 32.4362 45.3409 31.1934 46.9481 31.1934Z" fill="white"/>
<path d="M51.1854 32.4791C51.1854 32.1005 51.1854 31.7148 51.1426 31.3076H51.7354V32.1934H51.7569C51.964 31.7505 52.3283 31.1934 53.3569 31.1934C54.5854 31.1934 55.0497 32.0076 55.0497 33.1005V36.2719H54.4354V33.2505C54.4354 32.3219 54.1069 31.7076 53.2569 31.7076C52.1354 31.7076 51.7854 32.6934 51.7854 33.5148V36.2576H51.1712V32.4719" fill="white"/>
<path d="M57.7617 31.8353H56.7617V31.3068H57.7617V30.9425C57.7617 29.8996 57.8046 28.8496 59.076 28.8496C59.2689 28.8496 59.5331 28.8782 59.6474 28.9425L59.6046 29.4782C59.4831 29.4068 59.2974 29.371 59.1189 29.371C58.2831 29.371 58.376 30.271 58.376 30.871V31.2996H59.4903V31.8282H58.376V36.2639H57.7617V31.8353Z" fill="white"/>
<path d="M64.3694 33.4427C64.3694 32.5713 64.0194 31.7213 63.1051 31.7213C62.2051 31.7213 61.648 32.6213 61.648 33.4427H64.3694ZM64.6694 36.1213C64.2408 36.2999 63.6837 36.3927 63.2337 36.3927C61.5908 36.3927 60.9766 35.2856 60.9766 33.7999C60.9766 32.2785 61.8123 31.207 63.0694 31.207C64.4694 31.207 65.048 32.3356 65.048 33.6713V33.9785H61.6551C61.6551 35.0356 62.2194 35.8713 63.2908 35.8713C63.7337 35.8713 64.3908 35.6856 64.6837 35.4999L64.6694 36.1213Z" fill="white"/>
<path d="M68.8138 35.8647C69.8995 35.8647 70.2852 34.6933 70.2852 33.7933C70.2852 32.8933 69.9066 31.7219 68.8138 31.7219C67.6423 31.7219 67.3423 32.829 67.3423 33.7933C67.3495 34.7576 67.6495 35.8647 68.8138 35.8647ZM70.8995 36.2719H70.2852V35.4861H70.2638C69.9352 36.1147 69.428 36.3861 68.7138 36.3861C67.3495 36.3861 66.6709 35.2576 66.6709 33.7933C66.6709 32.2861 67.2495 31.2004 68.7138 31.2004C69.6852 31.2004 70.1709 31.9147 70.2638 32.1504H70.2852V28.979H70.8995V36.2719Z" fill="white"/>
<path d="M76.1556 33.4427C76.1556 32.5713 75.8056 31.7213 74.8913 31.7213C73.9913 31.7213 73.4341 32.6213 73.4341 33.4427H76.1556ZM76.4556 36.1213C76.027 36.2999 75.4698 36.3927 75.0198 36.3927C73.377 36.3927 72.7627 35.2856 72.7627 33.7999C72.7627 32.2785 73.5984 31.207 74.8556 31.207C76.2556 31.207 76.8341 32.3356 76.8341 33.6713V33.9785H73.4413C73.4413 35.0356 74.0127 35.8713 75.077 35.8713C75.5198 35.8713 76.177 35.6856 76.4698 35.4999L76.4556 36.1213Z" fill="white"/>
<path d="M78.7557 32.4148C78.7557 31.8648 78.7557 31.6719 78.7129 31.3076H79.3272V32.2576H79.3486C79.5772 31.7005 79.9915 31.1934 80.62 31.1934C80.7629 31.1934 80.9415 31.2219 81.0486 31.2576V31.9005C80.92 31.8576 80.7557 31.8362 80.6057 31.8362C79.6343 31.8362 79.37 32.9219 79.37 33.8219V36.2719H78.7557V32.4148Z" fill="white"/>
<path d="M85.5487 33.7711H85.3701C84.3058 33.7711 83.0415 33.8783 83.0415 34.9711C83.0415 35.6211 83.5058 35.8711 84.0773 35.8711C85.513 35.8711 85.5487 34.6211 85.5487 34.0783V33.7711ZM85.5987 35.4783H85.5773C85.3058 36.0711 84.613 36.3926 84.0058 36.3926C82.5987 36.3926 82.3701 35.4426 82.3701 34.9926C82.3701 33.3283 84.1415 33.2569 85.4201 33.2569H85.5344V32.9997C85.5344 32.1497 85.2344 31.7283 84.4058 31.7283C83.8916 31.7283 83.4058 31.8426 82.9487 32.1354V31.5426C83.3273 31.3568 83.9701 31.1997 84.4058 31.1997C85.6344 31.1997 86.1416 31.7569 86.1416 33.0497V35.2426C86.1416 35.6426 86.1415 35.9426 86.1915 36.2854H85.5915L85.5987 35.4783Z" fill="white"/>
<path d="M87.9209 35.7576L90.9066 31.8362H88.0423V31.3076H91.6209V31.8362L88.6352 35.7433H91.6209V36.2719H87.928V35.7576H87.9209Z" fill="white"/>
<path d="M93.4492 31.3071H94.0635V36.2714H93.4492V31.3071ZM94.0706 29.9857H93.4564V29.1714H94.0706V29.9857Z" fill="white"/>
<path d="M98.3114 35.8648C99.3757 35.8648 99.9543 34.9434 99.9543 33.7934C99.9543 32.6434 99.3828 31.7219 98.3114 31.7219C97.2471 31.7219 96.6686 32.6434 96.6686 33.7934C96.6614 34.9434 97.2328 35.8648 98.3114 35.8648ZM98.3114 31.1934C99.9186 31.1934 100.626 32.4362 100.626 33.7862C100.626 35.1434 99.9114 36.3791 98.3114 36.3791C96.7114 36.3791 95.9971 35.1362 95.9971 33.7862C95.99 32.4362 96.6971 31.1934 98.3114 31.1934Z" fill="white"/>
<path d="M102.541 32.4791C102.541 32.1005 102.541 31.7148 102.498 31.3076H103.091V32.1934H103.112C103.319 31.7505 103.684 31.1934 104.712 31.1934C105.941 31.1934 106.405 32.0076 106.405 33.1005V36.2719H105.791V33.2505C105.791 32.3219 105.462 31.7076 104.612 31.7076C103.491 31.7076 103.141 32.6934 103.141 33.5148V36.2576H102.527V32.4719" fill="white"/>
<path d="M111.728 33.4427C111.728 32.5713 111.378 31.7213 110.464 31.7213C109.564 31.7213 109.007 32.6213 109.007 33.4427H111.728ZM112.036 36.1213C111.607 36.2999 111.05 36.3927 110.6 36.3927C108.957 36.3927 108.343 35.2856 108.343 33.7999C108.343 32.2785 109.178 31.207 110.436 31.207C111.836 31.207 112.414 32.3356 112.414 33.6713V33.9785H109.021C109.021 35.0356 109.593 35.8713 110.657 35.8713C111.1 35.8713 111.757 35.6856 112.05 35.4999L112.036 36.1213Z" fill="white"/>
<path d="M117.577 35.4076C117.977 35.6576 118.441 35.8076 119.077 35.8076C119.913 35.8076 120.605 35.379 120.605 34.4147C120.605 33.079 117.491 32.9147 117.491 31.1362C117.491 30.0505 118.441 29.3647 119.641 29.3647C119.97 29.3647 120.505 29.4147 120.977 29.5933L120.87 30.2076C120.57 30.0433 120.091 29.9576 119.634 29.9576C118.934 29.9576 118.163 30.2505 118.163 31.129C118.163 32.4933 121.277 32.5005 121.277 34.479C121.277 35.8505 120.098 36.3933 119.055 36.3933C118.391 36.3933 117.877 36.2576 117.513 36.1005L117.577 35.4076Z" fill="white"/>
<path d="M125.036 36.2719H124.315L122.629 31.3076H123.3L124.672 35.6005H124.693L126.129 31.3076H126.772L125.036 36.2719Z" fill="white"/>
<path d="M128.398 31.3071H129.012V36.2714H128.398V31.3071ZM129.005 29.9857H128.391V29.1714H129.005V29.9857Z" fill="white"/>
<path d="M130.854 35.7576L133.839 31.8362H130.975V31.3076H134.554V31.8362L131.568 35.7433H134.554V36.2719H130.861V35.7576H130.854Z" fill="white"/>
<path d="M135.934 35.7576L138.919 31.8362H136.055V31.3076H139.634V31.8362L136.648 35.7433H139.634V36.2719H135.941V35.7576H135.934Z" fill="white"/>
<path d="M144.492 33.4427C144.492 32.5713 144.142 31.7213 143.228 31.7213C142.328 31.7213 141.771 32.6213 141.771 33.4427H144.492ZM144.792 36.1213C144.364 36.2999 143.814 36.3927 143.357 36.3927C141.714 36.3927 141.1 35.2856 141.1 33.7999C141.1 32.2785 141.935 31.207 143.192 31.207C144.592 31.207 145.164 32.3356 145.164 33.6713V33.9785H141.771C141.771 35.0356 142.342 35.8713 143.407 35.8713C143.85 35.8713 144.507 35.6856 144.8 35.4999L144.792 36.1213Z" fill="white"/>
<path d="M147.084 32.4148C147.084 31.8648 147.084 31.6719 147.048 31.3076H147.655V32.2576H147.676C147.905 31.7005 148.319 31.1934 148.948 31.1934C149.091 31.1934 149.269 31.2219 149.376 31.2576V31.9005C149.255 31.8576 149.084 31.8362 148.934 31.8362C147.962 31.8362 147.698 32.9219 147.698 33.8219V36.2719H147.084V32.4148Z" fill="white"/>
<path d="M153.877 33.7711H153.698C152.634 33.7711 151.369 33.8783 151.369 34.9711C151.369 35.6211 151.834 35.8711 152.405 35.8711C153.841 35.8711 153.877 34.6211 153.877 34.0783V33.7711ZM153.934 35.4783H153.912C153.641 36.0711 152.948 36.3926 152.341 36.3926C150.934 36.3926 150.705 35.4426 150.705 34.9926C150.705 33.3283 152.477 33.2569 153.755 33.2569H153.869V32.9997C153.869 32.1497 153.569 31.7283 152.741 31.7283C152.227 31.7283 151.741 31.8426 151.284 32.1354V31.5426C151.662 31.3568 152.305 31.1997 152.741 31.1997C153.969 31.1997 154.477 31.7569 154.477 33.0497V35.2426C154.477 35.6426 154.477 35.9426 154.527 36.2854H153.927L153.934 35.4783Z" fill="white"/>
<path d="M42.7333 43.6572C42.3047 43.4286 41.6904 43.3643 41.2118 43.3643C39.4547 43.3643 38.4618 44.6072 38.4618 46.2929C38.4618 48.0072 39.4261 49.2215 41.2118 49.2215C41.6547 49.2215 42.3404 49.1572 42.7333 48.9286L42.7761 49.5072C42.4047 49.7358 41.6475 49.8001 41.2261 49.8001C39.0833 49.8001 37.8047 48.3929 37.8047 46.2858C37.8047 44.2286 39.1261 42.7715 41.2261 42.7715C41.6261 42.7715 42.4333 42.8429 42.7761 43.0215L42.7333 43.6572Z" fill="white"/>
<path d="M46.9481 49.2785C48.0124 49.2785 48.5909 48.3571 48.5909 47.2071C48.5909 46.0571 48.0195 45.1357 46.9481 45.1357C45.8766 45.1357 45.3052 46.0571 45.3052 47.2071C45.3052 48.3571 45.8766 49.2785 46.9481 49.2785ZM46.9481 44.6143C48.5552 44.6143 49.2624 45.8571 49.2624 47.2071C49.2624 48.5643 48.5481 49.8 46.9481 49.8C45.3481 49.8 44.6338 48.5571 44.6338 47.2071C44.6338 45.8571 45.3409 44.6143 46.9481 44.6143Z" fill="white"/>
<path d="M51.1854 45.8922C51.1854 45.5136 51.1854 45.1279 51.1426 44.7207H51.7354V45.6064H51.7569C51.964 45.1636 52.3283 44.6064 53.3569 44.6064C54.5854 44.6064 55.0497 45.4207 55.0497 46.5136V49.685H54.4354V46.6636C54.4354 45.735 54.1069 45.1207 53.2569 45.1207C52.1354 45.1207 51.7854 46.1064 51.7854 46.9279V49.6707H51.1712V45.885" fill="white"/>
<path d="M57.7617 45.2494H56.7617V44.7208H57.7617V44.3565C57.7617 43.3137 57.8046 42.2637 59.076 42.2637C59.2689 42.2637 59.5331 42.2922 59.6474 42.3565L59.6046 42.8922C59.4831 42.8208 59.2974 42.7851 59.1189 42.7851C58.2831 42.7851 58.376 43.6851 58.376 44.2851V44.7137H59.4903V45.2422H58.376V49.678H57.7617V45.2494Z" fill="white"/>
<path d="M64.3694 46.8573C64.3694 45.9859 64.0194 45.1359 63.1051 45.1359C62.2051 45.1359 61.648 46.0359 61.648 46.8573H64.3694ZM64.6694 49.5359C64.2408 49.7144 63.6837 49.8073 63.2337 49.8073C61.5908 49.8073 60.9766 48.7002 60.9766 47.2144C60.9766 45.693 61.8123 44.6216 63.0694 44.6216C64.4694 44.6216 65.048 45.7502 65.048 47.0859V47.393H61.6551C61.6551 48.4502 62.2194 49.2859 63.2908 49.2859C63.7337 49.2859 64.3908 49.1002 64.6837 48.9144L64.6694 49.5359Z" fill="white"/>
<path d="M68.8138 49.278C69.8995 49.278 70.2852 48.1066 70.2852 47.2066C70.2852 46.3066 69.9066 45.1351 68.8138 45.1351C67.6423 45.1351 67.3423 46.2423 67.3423 47.2066C67.3495 48.1708 67.6495 49.278 68.8138 49.278ZM70.8995 49.6923H70.2852V48.9066H70.2638C69.9352 49.5351 69.428 49.8066 68.7138 49.8066C67.3495 49.8066 66.6709 48.678 66.6709 47.2137C66.6709 45.7066 67.2495 44.6208 68.7138 44.6208C69.6852 44.6208 70.1709 45.3351 70.2638 45.5708H70.2852V42.3994H70.8995V49.6923Z" fill="white"/>
<path d="M76.1556 46.8573C76.1556 45.9859 75.8056 45.1359 74.8913 45.1359C73.9913 45.1359 73.4341 46.0359 73.4341 46.8573H76.1556ZM76.4556 49.5359C76.027 49.7144 75.4698 49.8073 75.0198 49.8073C73.377 49.8073 72.7627 48.7002 72.7627 47.2144C72.7627 45.693 73.5984 44.6216 74.8556 44.6216C76.2556 44.6216 76.8341 45.7502 76.8341 47.0859V47.393H73.4413C73.4413 48.4502 74.0127 49.2859 75.077 49.2859C75.5198 49.2859 76.177 49.1002 76.4698 48.9144L76.4556 49.5359Z" fill="white"/>
<path d="M78.7557 45.8357C78.7557 45.2857 78.7557 45.0928 78.7129 44.7285H79.3272V45.6785H79.3486C79.5772 45.1214 79.9915 44.6143 80.62 44.6143C80.7629 44.6143 80.9415 44.6428 81.0486 44.6785V45.3214C80.92 45.2785 80.7557 45.2571 80.6057 45.2571C79.6343 45.2571 79.37 46.3428 79.37 47.2428V49.6928H78.7557V45.8357Z" fill="white"/>
<path d="M85.5487 47.1857H85.3701C84.3058 47.1857 83.0415 47.2928 83.0415 48.3857C83.0415 49.0357 83.5058 49.2857 84.0773 49.2857C85.513 49.2857 85.5487 48.0357 85.5487 47.4928V47.1857ZM85.5987 48.8857H85.5773C85.3058 49.4785 84.613 49.8 84.0058 49.8C82.5987 49.8 82.3701 48.85 82.3701 48.4C82.3701 46.7357 84.1415 46.6643 85.4201 46.6643H85.5344V46.4143C85.5344 45.5643 85.2344 45.1428 84.4058 45.1428C83.8916 45.1428 83.4058 45.2571 82.9487 45.55V44.9571C83.3273 44.7714 83.9701 44.6143 84.4058 44.6143C85.6344 44.6143 86.1416 45.1714 86.1416 46.4643V48.6571C86.1416 49.0571 86.1415 49.3571 86.1915 49.7H85.5915L85.5987 48.8857Z" fill="white"/>
<path d="M87.9209 49.1717L90.9066 45.2502H88.0423V44.7217H91.6209V45.2502L88.6352 49.1574H91.6209V49.686H87.928V49.1717H87.9209Z" fill="white"/>
<path d="M93.4492 44.7283H94.0635V49.6926H93.4492V44.7283ZM94.0706 43.3997H93.4564V42.5854H94.0706V43.3997Z" fill="white"/>
<path d="M100.243 48.5217C100.243 48.9003 100.243 49.286 100.285 49.6931H99.6925V48.8003H99.6711C99.4639 49.2431 99.0997 49.8003 98.0639 49.8003C96.8354 49.8003 96.3711 48.986 96.3711 47.8931V44.7217H96.9854V47.7431C96.9854 48.6788 97.3139 49.286 98.1639 49.286C99.2782 49.286 99.6354 48.3003 99.6354 47.4788V44.736H100.25L100.243 48.5217Z" fill="white"/>
<path d="M102.541 45.8922C102.541 45.5136 102.541 45.1279 102.498 44.7207H103.091V45.6064H103.112C103.319 45.1636 103.684 44.6064 104.712 44.6064C105.941 44.6064 106.405 45.4207 106.405 46.5136V49.685H105.791V46.6636C105.791 45.735 105.462 45.1207 104.612 45.1207C103.491 45.1207 103.141 46.1064 103.141 46.9279V49.6707H102.527V45.885" fill="white"/>
<path d="M111.691 48.9636C112.062 49.1493 112.505 49.2779 112.983 49.2779C113.562 49.2779 114.083 48.9564 114.083 48.3922C114.083 47.2136 111.705 47.3993 111.705 45.9636C111.705 44.9779 112.505 44.6064 113.319 44.6064C113.576 44.6064 114.105 44.6707 114.548 44.835L114.483 45.3707C114.162 45.2279 113.726 45.135 113.383 45.135C112.755 45.135 112.319 45.3279 112.319 45.9636C112.319 46.885 114.762 46.7707 114.762 48.3922C114.762 49.4493 113.776 49.7993 113.033 49.7993C112.555 49.7993 112.083 49.735 111.641 49.5636L111.691 48.9636Z" fill="white"/>
<path d="M118.334 49.6928H117.612L115.927 44.7285H116.598L117.97 49.0214H117.991L119.427 44.7285H120.07L118.334 49.6928Z" fill="white"/>
<path d="M121.691 44.7283H122.306V49.6926H121.691V44.7283ZM122.306 43.3997H121.691V42.5854H122.306V43.3997Z" fill="white"/>
<path d="M124.155 49.1717L127.141 45.2502H124.277V44.7217H127.855V45.2502L124.87 49.1574H127.855V49.686H124.162L124.155 49.1717Z" fill="white"/>
<path d="M129.691 45.8357C129.691 45.2857 129.691 45.0928 129.648 44.7285H130.263V45.6785H130.284C130.513 45.1214 130.927 44.6143 131.556 44.6143C131.698 44.6143 131.877 44.6428 131.984 44.6785V45.3214C131.856 45.2785 131.691 45.2571 131.541 45.2571C130.57 45.2571 130.306 46.3428 130.306 47.2428V49.6928H129.691V45.8357Z" fill="white"/>
<path d="M136.475 47.1857H136.297C135.232 47.1857 133.968 47.2928 133.968 48.3857C133.968 49.0357 134.432 49.2857 135.004 49.2857C136.439 49.2857 136.475 48.0357 136.475 47.4928V47.1857ZM136.532 48.8857H136.511C136.239 49.4785 135.547 49.8 134.939 49.8C133.532 49.8 133.304 48.85 133.304 48.4C133.304 46.7357 135.075 46.6643 136.354 46.6643H136.468V46.4143C136.468 45.5643 136.168 45.1428 135.339 45.1428C134.825 45.1428 134.339 45.2571 133.882 45.55V44.9571C134.261 44.7714 134.904 44.6143 135.339 44.6143C136.568 44.6143 137.075 45.1714 137.075 46.4643V48.6571C137.075 49.0571 137.075 49.3571 137.125 49.7H136.525L136.532 48.8857Z" fill="white"/>
</g>
</g>
<defs>
<clipPath id="clip0_7238_2446">
<rect width="174.286" height="50" fill="white" transform="translate(27.0488)"/>
</clipPath>
</defs>
</svg>
