<svg xmlns="http://www.w3.org/2000/svg" version="1.1" xmlns:xlink="http://www.w3.org/1999/xlink" width="1000" height="1000"><svg width="1000" height="1000" viewBox="0 0 1000 1000" fill="none" xmlns="http://www.w3.org/2000/svg">
<rect width="1000" height="1000" fill="#263645"></rect>
<path fill-rule="evenodd" clip-rule="evenodd" d="M542.421 220.85C558.652 177.952 597.015 109.269 650.789 114.623C666.117 116.156 688.773 128.503 696.669 141.815V141.731H698.118C733.225 111.348 793.509 129.867 804.974 174.991C809.341 192.125 802.118 207.81 786.013 215.453C772.008 222.109 751.64 213.542 743.556 201.133C740.701 196.744 742.38 190.718 735.43 196.135C723.189 205.668 729.677 222.13 730.895 233.952C739.944 321.364 723.251 441.911 677.666 518.195C656.185 554.122 608.962 596.306 565.707 569.324C563.713 568.085 559.156 563.298 557.539 564.327C556.09 565.272 551.366 574.972 550.337 577.282C541.938 596.117 537.025 619.928 540.531 640.338C545.529 641.115 548.699 636.495 552.857 634.206C594.684 611.298 641.613 596.012 690.076 601.156C798.255 612.642 827.021 720.086 765.582 801.514C712.207 872.255 603.356 914.523 518.904 877.022C452.216 847.415 440.856 766.365 476.111 707.593C478.148 704.212 488.94 690.837 489.066 689.22C489.192 687.603 483.439 678.196 482.284 674.899C466.914 630.931 483.544 557.271 509.182 519.035C510.967 516.368 520.206 506.205 520.332 504.925C520.499 503.266 517.581 496.988 516.951 494.216C497.99 410.94 512.248 300.64 542.421 220.85ZM726.569 687.036C697.593 652.475 627.041 670.952 593.172 689.577C553.004 711.666 476.321 787.047 549.833 817.872C601.508 839.562 680.312 801.305 712.774 759.772C727.64 740.727 744.858 708.853 726.569 687.036ZM646.128 181.101C645.141 180.409 642.684 182.34 641.718 183.033C623.031 196.66 605.897 239.726 598.421 261.627C576.941 324.514 565.602 425.281 584.5 489.03C585.76 493.229 592.395 510.132 596.427 510.468C600.458 510.804 607.009 503.224 609.403 500.284C629.54 475.633 645.267 429.712 653.015 398.824C667.587 340.829 677.015 240.566 649.487 186.351C649.151 185.679 646.401 181.27 646.149 181.101H646.128Z" fill="white"></path>
<path fill-rule="evenodd" clip-rule="evenodd" d="M238.944 210.54C264.96 162.057 315.249 95.5365 378.452 118.781C444.363 143.033 462.589 228.388 470.925 290.288C482.767 378.31 479.555 464.715 465.969 552.316C463.68 567.056 465.129 573.608 454.211 585.891C441.801 599.813 412.195 593.387 403.229 577.576C394.263 561.765 401.675 547.613 403.397 530.563L403.376 530.584C396.426 535.854 390.294 543.182 383.701 548.684C352.142 575.161 308.551 596.348 266.556 584.232C201.422 565.419 185.569 507.255 195.899 445.565C209.926 361.89 296.561 255.727 390.903 281.616C395.376 282.834 398.945 285.039 403.376 285.774C399.008 262.656 394.599 239.159 385.738 217.28C381.118 205.857 373.559 191.432 365.118 182.487C360.415 177.511 359.071 174.256 352.016 176.503C329.99 183.516 310.588 214.928 300.068 234.372C292.299 248.713 287.28 270.32 267.732 272.567C245.306 275.149 222.44 258.582 227.48 234.33C228.446 229.647 236.215 215.621 238.944 210.54ZM365.706 339.275C302.798 338.814 250.955 437.649 260.53 493.565C269.664 546.899 316.698 522.71 343.554 498.961V498.941C370.179 475.423 390.021 438.111 395.082 402.877C396.719 391.475 394.011 378.52 400.247 368.861C385.297 359.013 387.879 339.443 365.706 339.275Z" fill="white"></path>
</svg><style>@media (prefers-color-scheme: light) { :root { filter: none; } }
@media (prefers-color-scheme: dark) { :root { filter: none; } }
</style></svg>